  0
SECTION
  2
HEADER
  9
$ACADVER
  1
AC1015
  9
$ACADMAINTVER
 70
     6
  9
$DWGCODEPAGE
  3
ANSI_1252
  9
$INSBASE
 10
0.0
 20
0.0
 30
0.0
  9
$EXTMIN
 10
-8.7346984714
 20
-0.53
 30
0.0
  9
$EXTMAX
 10
7.4681241728
 20
4.0983128635
 30
0.0
  9
$LIMMIN
 10
0.0
 20
0.0
  9
$LIMMAX
 10
12.0
 20
9.0
  9
$ORTHOMODE
 70
     0
  9
$REGENMODE
 70
     1
  9
$FILLMODE
 70
     1
  9
$QTEXTMODE
 70
     0
  9
$MIRRTEXT
 70
     1
  9
$LTSCALE
 40
1.0
  9
$ATTMODE
 70
     1
  9
$TEXTSIZE
 40
0.1377952756
  9
$TRACEWID
 40
0.05
  9
$TEXTSTYLE
  7
Standard
  9
$CLAYER
  8
0
  9
$CELTYPE
  6
ByLayer
  9
$CECOLOR
 62
   256
  9
$CELTSCALE
 40
1.0
  9
$DISPSILH
 70
     0
  9
$DIMSCALE
 40
1.0
  9
$DIMASZ
 40
0.13
  9
$DIMEXO
 40
0.0
  9
$DIMDLI
 40
0.38
  9
$DIMRND
 40
0.0
  9
$DIMDLE
 40
0.0
  9
$DIMEXE
 40
0.0393700787
  9
$DIMTP
 40
0.0
  9
$DIMTM
 40
0.0
  9
$DIMTXT
 40
0.1377952756
  9
$DIMCEN
 40
0.09
  9
$DIMTSZ
 40
0.0
  9
$DIMTOL
 70
     0
  9
$DIMLIM
 70
     0
  9
$DIMTIH
 70
     1
  9
$DIMTOH
 70
     1
  9
$DIMSE1
 70
     0
  9
$DIMSE2
 70
     0
  9
$DIMTAD
 70
     1
  9
$DIMZIN
 70
     1
  9
$DIMBLK
  1

  9
$DIMASO
 70
     1
  9
$DIMSHO
 70
     1
  9
$DIMPOST
  1

  9
$DIMAPOST
  1

  9
$DIMALT
 70
     0
  9
$DIMALTD
 70
     2
  9
$DIMALTF
 40
25.4
  9
$DIMLFAC
 40
1.0
  9
$DIMTOFL
 70
     0
  9
$DIMTVP
 40
0.0
  9
$DIMTIX
 70
     0
  9
$DIMSOXD
 70
     0
  9
$DIMSAH
 70
     0
  9
$DIMBLK1
  1

  9
$DIMBLK2
  1

  9
$DIMSTYLE
  2
Standard
  9
$DIMCLRD
 70
     0
  9
$DIMCLRE
 70
     0
  9
$DIMCLRT
 70
     0
  9
$DIMTFAC
 40
1.0
  9
$DIMGAP
 40
0.06
  9
$DIMJUST
 70
     0
  9
$DIMSD1
 70
     0
  9
$DIMSD2
 70
     0
  9
$DIMTOLJ
 70
     1
  9
$DIMTZIN
 70
     1
  9
$DIMALTZ
 70
     0
  9
$DIMALTTZ
 70
     0
  9
$DIMUPT
 70
     0
  9
$DIMDEC
 70
     2
  9
$DIMTDEC
 70
     2
  9
$DIMALTU
 70
     2
  9
$DIMALTTD
 70
     2
  9
$DIMTXSTY
  7
Standard
  9
$DIMAUNIT
 70
     0
  9
$DIMADEC
 70
     2
  9
$DIMALTRND
 40
0.0
  9
$DIMAZIN
 70
     0
  9
$DIMDSEP
 70
    46
  9
$DIMATFIT
 70
     3
  9
$DIMFRAC
 70
     0
  9
$DIMLDRBLK
  1

  9
$DIMLUNIT
 70
     2
  9
$DIMLWD
 70
    -2
  9
$DIMLWE
 70
    -2
  9
$DIMTMOVE
 70
     0
  9
$LUNITS
 70
     2
  9
$LUPREC
 70
     2
  9
$SKETCHINC
 40
0.1
  9
$FILLETRAD
 40
0.0
  9
$AUNITS
 70
     0
  9
$AUPREC
 70
     2
  9
$MENU
  1
.
  9
$ELEVATION
 40
0.0
  9
$PELEVATION
 40
0.0
  9
$THICKNESS
 40
0.0
  9
$LIMCHECK
 70
     0
  9
$CHAMFERA
 40
0.0
  9
$CHAMFERB
 40
0.0
  9
$CHAMFERC
 40
0.0
  9
$CHAMFERD
 40
0.0
  9
$SKPOLY
 70
     0
  9
$TDCREATE
 40
2461070.561173843
  9
$TDUCREATE
 40
2461070.769507176
  9
$TDUPDATE
 40
2461070.561201111
  9
$TDUUPDATE
 40
2461070.769534445
  9
$TDINDWG
 40
0.0000000116
  9
$TDUSRTIMER
 40
0.0000000116
  9
$USRTIMER
 70
     1
  9
$ANGBASE
 50
0.0
  9
$ANGDIR
 70
     0
  9
$PDMODE
 70
     0
  9
$PDSIZE
 40
-1.0
  9
$PLINEWID
 40
0.0
  9
$SPLFRAME
 70
     0
  9
$SPLINETYPE
 70
     6
  9
$SPLINESEGS
 70
     8
  9
$HANDSEED
  5
666
  9
$SURFTAB1
 70
     6
  9
$SURFTAB2
 70
     6
  9
$SURFTYPE
 70
     6
  9
$SURFU
 70
     6
  9
$SURFV
 70
     6
  9
$UCSBASE
  2

  9
$UCSNAME
  2

  9
$UCSORG
 10
0.0
 20
0.0
 30
0.0
  9
$UCSXDIR
 10
1.0
 20
0.0
 30
0.0
  9
$UCSYDIR
 10
0.0
 20
1.0
 30
0.0
  9
$UCSORTHOREF
  2

  9
$UCSORTHOVIEW
 70
     0
  9
$UCSORGTOP
 10
0.0
 20
0.0
 30
0.0
  9
$UCSORGBOTTOM
 10
0.0
 20
0.0
 30
0.0
  9
$UCSORGLEFT
 10
0.0
 20
0.0
 30
0.0
  9
$UCSORGRIGHT
 10
0.0
 20
0.0
 30
0.0
  9
$UCSORGFRONT
 10
0.0
 20
0.0
 30
0.0
  9
$UCSORGBACK
 10
0.0
 20
0.0
 30
0.0
  9
$PUCSBASE
  2

  9
$PUCSNAME
  2

  9
$PUCSORG
 10
0.0
 20
0.0
 30
0.0
  9
$PUCSXDIR
 10
1.0
 20
0.0
 30
0.0
  9
$PUCSYDIR
 10
0.0
 20
1.0
 30
0.0
  9
$PUCSORTHOREF
  2

  9
$PUCSORTHOVIEW
 70
     0
  9
$PUCSORGTOP
 10
0.0
 20
0.0
 30
0.0
  9
$PUCSORGBOTTOM
 10
0.0
 20
0.0
 30
0.0
  9
$PUCSORGLEFT
 10
0.0
 20
0.0
 30
0.0
  9
$PUCSORGRIGHT
 10
0.0
 20
0.0
 30
0.0
  9
$PUCSORGFRONT
 10
0.0
 20
0.0
 30
0.0
  9
$PUCSORGBACK
 10
0.0
 20
0.0
 30
0.0
  9
$USERI1
 70
     0
  9
$USERI2
 70
     0
  9
$USERI3
 70
     0
  9
$USERI4
 70
     0
  9
$USERI5
 70
     0
  9
$USERR1
 40
0.0
  9
$USERR2
 40
0.0
  9
$USERR3
 40
0.0
  9
$USERR4
 40
0.0
  9
$USERR5
 40
0.0
  9
$WORLDVIEW
 70
     1
  9
$SHADEDGE
 70
     3
  9
$SHADEDIF
 70
    70
  9
$TILEMODE
 70
     1
  9
$MAXACTVP
 70
    64
  9
$PINSBASE
 10
0.0
 20
0.0
 30
0.0
  9
$PLIMCHECK
 70
     0
  9
$PEXTMIN
 10
1.0000000000E+20
 20
1.0000000000E+20
 30
1.0000000000E+20
  9
$PEXTMAX
 10
-1.0000000000E+20
 20
-1.0000000000E+20
 30
-1.0000000000E+20
  9
$PLIMMIN
 10
0.0
 20
0.0
  9
$PLIMMAX
 10
12.0
 20
9.0
  9
$UNITMODE
 70
     0
  9
$VISRETAIN
 70
     1
  9
$PLINEGEN
 70
     0
  9
$PSLTSCALE
 70
     1
  9
$TREEDEPTH
 70
  3020
  9
$CMLSTYLE
  2
Standard
  9
$CMLJUST
 70
     0
  9
$CMLSCALE
 40
1.0
  9
$PROXYGRAPHICS
 70
     1
  9
$MEASUREMENT
 70
     0
  9
$CELWEIGHT
370
    -1
  9
$ENDCAPS
280
     0
  9
$JOINSTYLE
280
     0
  9
$LWDISPLAY
290
     1
  9
$INSUNITS
 70
     1
  9
$HYPERLINKBASE
  1

  9
$STYLESHEET
  1

  9
$XEDIT
290
     1
  9
$CEPSNTYPE
380
     0
  9
$PSTYLEMODE
290
     1
  9
$FINGERPRINTGUID
  2
{91d64866-438d-40cb-8d3d-91c2d505995b}
  9
$VERSIONGUID
  2
{FAEB1C32-E019-11D5-929B-00C0DF256EC4}
  9
$EXTNAMES
290
     1
  9
$PSVPSCALE
 40
0.0
  9
$OLESTARTUP
290
     0
  0
ENDSEC
  0
SECTION
  2
CLASSES
  0
CLASS
  1
ACDBDICTIONARYWDFLT
  2
AcDbDictionaryWithDefault
  3
ObjectDBX Classes
 90
        0
280
     0
281
     0
  0
CLASS
  1
VISUALSTYLE
  2
AcDbVisualStyle
  3
ObjectDBX Classes
 90
     4095
280
     0
281
     0
  0
CLASS
  1
MATERIAL
  2
AcDbMaterial
  3
ObjectDBX Classes
 90
     1153
280
     0
281
     0
  0
CLASS
  1
SCALE
  2
AcDbScale
  3
ObjectDBX Classes
 90
     1153
280
     0
281
     0
  0
CLASS
  1
TABLESTYLE
  2
AcDbTableStyle
  3
ObjectDBX Classes
 90
     4095
280
     0
281
     0
  0
CLASS
  1
MLEADERSTYLE
  2
AcDbMLeaderStyle
  3
ACDB_MLEADERSTYLE_CLASS
 90
     4095
280
     0
281
     0
  0
CLASS
  1
SUN
  2
AcDbSun
  3
SCENEOE
 90
     1153
280
     0
281
     0
  0
CLASS
  1
ACDBPLACEHOLDER
  2
AcDbPlaceHolder
  3
ObjectDBX Classes
 90
        0
280
     0
281
     0
  0
CLASS
  1
LAYOUT
  2
AcDbLayout
  3
ObjectDBX Classes
 90
        0
280
     0
281
     0
  0
ENDSEC
  0
SECTION
  2
TABLES
  0
TABLE
  2
VPORT
  5
8
330
0
100
AcDbSymbolTable
 70
     1
  0
VPORT
  5
29
330
8
100
AcDbSymbolTableRecord
100
AcDbViewportTableRecord
  2
*Active
 70
     0
 10
0.0
 20
0.0
 11
1.0
 21
1.0
 12
-0.6332871493
 22
1.7841564317
 13
0.0
 23
0.0
 14
0.5
 24
0.5
 15
0.5
 25
0.5
 16
0.0
 26
0.0
 36
1.0
 17
0.0
 27
0.0
 37
0.0
 40
4.7208791208
 41
3.5008053954
 42
50.0
 43
0.0
 44
0.0
 50
0.0
 51
0.0
 71
     0
 72
   100
 73
     1
 74
     3
 75
     0
 76
     0
 77
     0
 78
     0
281
     0
 65
     1
110
0.0
120
0.0
130
0.0
111
1.0
121
0.0
131
0.0
112
0.0
122
1.0
132
0.0
 79
     0
146
0.0
  0
ENDTAB
  0
TABLE
  2
LTYPE
  5
5
330
0
100
AcDbSymbolTable
 70
     6
  0
LTYPE
  5
14
330
5
100
AcDbSymbolTableRecord
100
AcDbLinetypeTableRecord
  2
ByBlock
 70
     0
  3

 72
    65
 73
     0
 40
0.0
  0
LTYPE
  5
15
330
5
100
AcDbSymbolTableRecord
100
AcDbLinetypeTableRecord
  2
ByLayer
 70
     0
  3

 72
    65
 73
     0
 40
0.0
  0
LTYPE
  5
16
330
5
100
AcDbSymbolTableRecord
100
AcDbLinetypeTableRecord
  2
Continuous
 70
     0
  3
Solid line
 72
    65
 73
     0
 40
0.0
  0
LTYPE
  5
5E
330
5
100
AcDbSymbolTableRecord
100
AcDbLinetypeTableRecord
  2
HIDDEN
 70
     0
  3
Hidden __ __ __ __ __ __ __ __ __ __ __ __ __ __
 72
    65
 73
     2
 40
0.075
 49
0.05
 74
     0
 49
-0.025
 74
     0
  0
LTYPE
  5
5F
330
5
100
AcDbSymbolTableRecord
100
AcDbLinetypeTableRecord
  2
PHANTOM
 70
     0
  3
Phantom ______  __  __  ______  __  __  ______
 72
    65
 73
     6
 40
0.5
 49
0.25
 74
     0
 49
-0.05
 74
     0
 49
0.05
 74
     0
 49
-0.05
 74
     0
 49
0.05
 74
     0
 49
-0.05
 74
     0
  0
LTYPE
  5
60
330
5
100
AcDbSymbolTableRecord
100
AcDbLinetypeTableRecord
  2
CENTER
 70
     0
  3
Center ____ _ ____ _ ____ _ ____ _ ____ _ ____
 72
    65
 73
     4
 40
0.4
 49
0.25
 74
     0
 49
-0.05
 74
     0
 49
0.05
 74
     0
 49
-0.05
 74
     0
  0
LTYPE
  5
61
330
5
100
AcDbSymbolTableRecord
100
AcDbLinetypeTableRecord
  2
CENTERX2
 70
     0
  3
Center (2x) ________  __  ________  __  _____
 72
    65
 73
     4
 40
0.8
 49
0.5
 74
     0
 49
-0.1
 74
     0
 49
0.1
 74
     0
 49
-0.1
 74
     0
  0
LTYPE
  5
62
330
5
100
AcDbSymbolTableRecord
100
AcDbLinetypeTableRecord
  2
DOT2
 70
     0
  3
Dot (.5x) ........................................
 72
    65
 73
     2
 40
0.025
 49
0.0
 74
     0
 49
-0.025
 74
     0
  0
ENDTAB
  0
TABLE
  2
LAYER
  5
2
330
0
100
AcDbSymbolTable
 70
     1
  0
LAYER
  5
10
330
2
100
AcDbSymbolTableRecord
100
AcDbLayerTableRecord
  2
0
 70
     0
 62
     7
  6
Continuous
370
    -3
390
F
  0
ENDTAB
  0
TABLE
  2
STYLE
  5
3
330
0
100
AcDbSymbolTable
 70
     2
  0
STYLE
  5
11
330
3
100
AcDbSymbolTableRecord
100
AcDbTextStyleTableRecord
  2
Standard
 70
     0
 40
0.0
 41
1.0
 50
0.0
 71
     0
 42
0.1377952756
  3
txt
  4

  0
STYLE
  5
662
330
3
100
AcDbSymbolTableRecord
100
AcDbTextStyleTableRecord
  2
SLDTEXTSTYLE0
 70
     0
 40
0.0
 41
0.7
 50
0.0
 71
     0
 42
0.1377952756
  3
TXT
  4

  0
ENDTAB
  0
TABLE
  2
VIEW
  5
6
330
0
100
AcDbSymbolTable
 70
     0
  0
ENDTAB
  0
TABLE
  2
UCS
  5
7
330
0
100
AcDbSymbolTable
 70
     0
  0
ENDTAB
  0
TABLE
  2
APPID
  5
9
330
0
100
AcDbSymbolTable
 70
     1
  0
APPID
  5
12
330
9
100
AcDbSymbolTableRecord
100
AcDbRegAppTableRecord
  2
ACAD
 70
     0
  0
ENDTAB
  0
TABLE
  2
DIMSTYLE
  5
A
330
0
100
AcDbSymbolTable
 70
     1
100
AcDbDimStyleTable
  0
DIMSTYLE
105
27
330
A
100
AcDbSymbolTableRecord
100
AcDbDimStyleTableRecord
  2
Standard
 70
     0
178
     0
340
11
  0
ENDTAB
  0
TABLE
  2
BLOCK_RECORD
  5
1
330
0
100
AcDbSymbolTable
 70
     1
  0
BLOCK_RECORD
  5
1F
330
1
100
AcDbSymbolTableRecord
100
AcDbBlockTableRecord
  2
*Model_Space
340
22
  0
BLOCK_RECORD
  5
1B
330
1
100
AcDbSymbolTableRecord
100
AcDbBlockTableRecord
  2
*Paper_Space
340
1E
  0
BLOCK_RECORD
  5
23
330
1
100
AcDbSymbolTableRecord
100
AcDbBlockTableRecord
  2
*Paper_Space0
340
26
  0
ENDTAB
  0
ENDSEC
  0
SECTION
  2
BLOCKS
  0
BLOCK
  5
20
330
1F
100
AcDbEntity
  8
0
100
AcDbBlockBegin
  2
*Model_Space
 70
     0
 10
0.0
 20
0.0
 30
0.0
  3
*Model_Space
  1

  0
ENDBLK
  5
21
330
1F
100
AcDbEntity
  8
0
100
AcDbBlockEnd
  0
BLOCK
  5
1C
330
1B
100
AcDbEntity
 67
     1
  8
0
100
AcDbBlockBegin
  2
*Paper_Space
 70
     0
 10
0.0
 20
0.0
 30
0.0
  3
*Paper_Space
  1

  0
ENDBLK
  5
1D
330
1B
100
AcDbEntity
 67
     1
  8
0
100
AcDbBlockEnd
  0
BLOCK
  5
24
330
23
100
AcDbEntity
  8
0
100
AcDbBlockBegin
  2
*Paper_Space0
 70
     0
 10
0.0
 20
0.0
 30
0.0
  3
*Paper_Space0
  1

  0
ENDBLK
  5
25
330
23
100
AcDbEntity
  8
0
100
AcDbBlockEnd
  0
ENDSEC
  0
SECTION
  2
ENTITIES
  0
CIRCLE
  5
67
330
1F
100
AcDbEntity
  8
0
  6
Continuous
 62
     7
370
    25
100
AcDbCircle
 10
6.6531241728
 20
0.285
 30
0.0
 40
0.565000000000003
  0
LINE
  5
363
330
1F
100
AcDbEntity
  8
0
  6
Continuous
 62
     7
370
    25
100
AcDbLine
 10
-8.0313029112
 20
2.7385848207
 30
0.0
 11
5.2186970888
 21
0.4651672741
 31
0.0
  0
LINE
  5
364
330
1F
100
AcDbEntity
  8
0
  6
Continuous
 62
     7
370
    25
100
AcDbLine
 10
5.3119059685
 20
1.0084100488
 30
0.0
 11
-7.9380940315
 21
3.2818275954
 31
0.0
  0
LINE
  5
365
330
1F
100
AcDbEntity
  8
0
  6
Continuous
 62
     7
370
    25
100
AcDbLine
 10
-8.6859199045
 20
2.0924792623
 30
0.0
 11
-8.6944560015
 21
2.1949032514
 31
0.0
  0
LINE
  5
366
330
1F
100
AcDbEntity
  8
0
  6
Continuous
 62
     7
370
    25
100
AcDbLine
 10
-8.7043852527
 20
2.2057337882
 30
0.0
 11
-8.7346984714
 21
2.2109348903
 31
0.0
  0
LINE
  5
367
330
1F
100
AcDbEntity
  8
0
  6
Continuous
 62
     7
370
    25
100
AcDbLine
 10
-8.7346984714
 20
4.0983128635
 30
0.0
 11
-8.7346984714
 21
2.2109348903
 31
0.0
  0
LINE
  5
368
330
1F
100
AcDbEntity
  8
0
  6
Continuous
 62
     7
370
    25
100
AcDbLine
 10
7.4681241728
 20
4.0983128635
 30
0.0
 11
-8.7346984714
 21
4.0983128635
 31
0.0
  0
LINE
  5
369
330
1F
100
AcDbEntity
  8
0
  6
Continuous
 62
     7
370
    25
100
AcDbLine
 10
7.4681241728
 20
0.285
 30
0.0
 11
7.4681241728
 21
4.0983128635
 31
0.0
  0
LINE
  5
36A
330
1F
100
AcDbEntity
  8
0
  6
Continuous
 62
     7
370
    25
100
AcDbLine
 10
5.8888098157
 20
-0.4107694258
 30
0.0
 11
6.5153015286
 21
-0.5182620486
 31
0.0
  0
LINE
  5
36B
330
1F
100
AcDbEntity
  8
0
  6
Continuous
 62
     7
370
    25
100
AcDbLine
 10
5.8888098157
 20
-0.4107694258
 30
0.0
 11
5.8889789233
 21
-0.4097838281
 31
0.0
  0
LINE
  5
36C
330
1F
100
AcDbEntity
  8
0
  6
Continuous
 62
     7
370
    25
100
AcDbLine
 10
5.8889789233
 20
-0.4097838281
 30
0.0
 11
5.8704490526
 21
-0.4066044973
 31
0.0
  0
LINE
  5
36D
330
1F
100
AcDbEntity
  8
0
  6
Continuous
 62
     7
370
    25
100
AcDbLine
 10
5.8687941774
 20
-0.4047994079
 30
0.0
 11
5.8602580803
 21
-0.3023754188
 31
0.0
  0
LINE
  5
36E
330
1F
100
AcDbEntity
  8
0
  6
Continuous
 62
     7
370
    25
100
AcDbLine
 10
5.8503288291
 20
-0.2915448819
 30
0.0
 11
5.8099952965
 21
-0.2846245075
 31
0.0
  0
LINE
  5
36F
330
1F
100
AcDbEntity
  8
0
  6
Continuous
 62
     7
370
    25
100
AcDbLine
 10
5.7970236518
 20
-0.2915257388
 30
0.0
 11
5.7548333552
 21
-0.3852461601
 31
0.0
  0
LINE
  5
370
330
1F
100
AcDbEntity
  8
0
  6
Continuous
 62
     7
370
    25
100
AcDbLine
 10
5.7526714145
 20
-0.3863963653
 30
0.0
 11
5.7156116687
 21
-0.380037703
 31
0.0
  0
LINE
  5
371
330
1F
100
AcDbEntity
  8
0
  6
Continuous
 62
     7
370
    25
100
AcDbLine
 10
5.7139567935
 20
-0.3782326135
 30
0.0
 11
5.7054206965
 21
-0.2758086244
 31
0.0
  0
LINE
  5
372
330
1F
100
AcDbEntity
  8
0
  6
Continuous
 62
     7
370
    25
100
AcDbLine
 10
5.6954914453
 20
-0.2649780876
 30
0.0
 11
5.6551579126
 21
-0.2580577132
 31
0.0
  0
LINE
  5
373
330
1F
100
AcDbEntity
  8
0
  6
Continuous
 62
     7
370
    25
100
AcDbLine
 10
5.642186268
 20
-0.2649589445
 30
0.0
 11
5.5999959714
 21
-0.3586793658
 31
0.0
  0
LINE
  5
374
330
1F
100
AcDbEntity
  8
0
  6
Continuous
 62
     7
370
    25
100
AcDbLine
 10
5.5978340306
 20
-0.359829571
 30
0.0
 11
5.5607742849
 21
-0.3534709086
 31
0.0
  0
LINE
  5
375
330
1F
100
AcDbEntity
  8
0
  6
Continuous
 62
     7
370
    25
100
AcDbLine
 10
5.5591194097
 20
-0.3516658191
 30
0.0
 11
5.5505833126
 21
-0.24924183
 31
0.0
  0
LINE
  5
376
330
1F
100
AcDbEntity
  8
0
  6
Continuous
 62
     7
370
    25
100
AcDbLine
 10
5.5406540614
 20
-0.2384112932
 30
0.0
 11
5.5003205288
 21
-0.2314909188
 31
0.0
  0
LINE
  5
377
330
1F
100
AcDbEntity
  8
0
  6
Continuous
 62
     7
370
    25
100
AcDbLine
 10
5.4873488841
 20
-0.2383921501
 30
0.0
 11
5.4451585875
 21
-0.3321125714
 31
0.0
  0
LINE
  5
378
330
1F
100
AcDbEntity
  8
0
  6
Continuous
 62
     7
370
    25
100
AcDbLine
 10
5.4429966468
 20
-0.3332627766
 30
0.0
 11
5.405936901
 21
-0.3269041143
 31
0.0
  0
LINE
  5
379
330
1F
100
AcDbEntity
  8
0
  6
Continuous
 62
     7
370
    25
100
AcDbLine
 10
5.4042820258
 20
-0.3250990248
 30
0.0
 11
5.3957459288
 21
-0.2226750357
 31
0.0
  0
LINE
  5
37A
330
1F
100
AcDbEntity
  8
0
  6
Continuous
 62
     7
370
    25
100
AcDbLine
 10
5.3858166776
 20
-0.2118444988
 30
0.0
 11
5.3454831449
 21
-0.2049241244
 31
0.0
  0
LINE
  5
37B
330
1F
100
AcDbEntity
  8
0
  6
Continuous
 62
     7
370
    25
100
AcDbLine
 10
5.3325115003
 20
-0.2118253557
 30
0.0
 11
5.2903212037
 21
-0.305545777
 31
0.0
  0
LINE
  5
37C
330
1F
100
AcDbEntity
  8
0
  6
Continuous
 62
     7
370
    25
100
AcDbLine
 10
5.2881592629
 20
-0.3066959822
 30
0.0
 11
5.2510995172
 21
-0.3003373199
 31
0.0
  0
LINE
  5
37D
330
1F
100
AcDbEntity
  8
0
  6
Continuous
 62
     7
370
    25
100
AcDbLine
 10
5.249444642
 20
-0.2985322304
 30
0.0
 11
5.2409085449
 21
-0.1961082413
 31
0.0
  0
LINE
  5
37E
330
1F
100
AcDbEntity
  8
0
  6
Continuous
 62
     7
370
    25
100
AcDbLine
 10
5.2309792937
 20
-0.1852777045
 30
0.0
 11
5.1906457611
 21
-0.1783573301
 31
0.0
  0
LINE
  5
37F
330
1F
100
AcDbEntity
  8
0
  6
Continuous
 62
     7
370
    25
100
AcDbLine
 10
5.1776741164
 20
-0.1852585614
 30
0.0
 11
5.1354838198
 21
-0.2789789827
 31
0.0
  0
LINE
  5
380
330
1F
100
AcDbEntity
  8
0
  6
Continuous
 62
     7
370
    25
100
AcDbLine
 10
5.1333218791
 20
-0.2801291879
 30
0.0
 11
5.0962621333
 21
-0.2737705255
 31
0.0
  0
LINE
  5
381
330
1F
100
AcDbEntity
  8
0
  6
Continuous
 62
     7
370
    25
100
AcDbLine
 10
5.0946072581
 20
-0.271965436
 30
0.0
 11
5.0860711611
 21
-0.169541447
 31
0.0
  0
LINE
  5
382
330
1F
100
AcDbEntity
  8
0
  6
Continuous
 62
     7
370
    25
100
AcDbLine
 10
5.0761419099
 20
-0.1587109101
 30
0.0
 11
5.0358083772
 21
-0.1517905357
 31
0.0
  0
LINE
  5
383
330
1F
100
AcDbEntity
  8
0
  6
Continuous
 62
     7
370
    25
100
AcDbLine
 10
5.0228367326
 20
-0.158691767
 30
0.0
 11
4.980646436
 21
-0.2524121883
 31
0.0
  0
LINE
  5
384
330
1F
100
AcDbEntity
  8
0
  6
Continuous
 62
     7
370
    25
100
AcDbLine
 10
4.9784844952
 20
-0.2535623935
 30
0.0
 11
4.9414247495
 21
-0.2472037312
 31
0.0
  0
LINE
  5
385
330
1F
100
AcDbEntity
  8
0
  6
Continuous
 62
     7
370
    25
100
AcDbLine
 10
4.9397698743
 20
-0.2453986417
 30
0.0
 11
4.9312337772
 21
-0.1429746526
 31
0.0
  0
LINE
  5
386
330
1F
100
AcDbEntity
  8
0
  6
Continuous
 62
     7
370
    25
100
AcDbLine
 10
4.921304526
 20
-0.1321441157
 30
0.0
 11
4.8809709934
 21
-0.1252237413
 31
0.0
  0
LINE
  5
387
330
1F
100
AcDbEntity
  8
0
  6
Continuous
 62
     7
370
    25
100
AcDbLine
 10
4.8679993487
 20
-0.1321249726
 30
0.0
 11
4.8258090521
 21
-0.2258453939
 31
0.0
  0
LINE
  5
388
330
1F
100
AcDbEntity
  8
0
  6
Continuous
 62
     7
370
    25
100
AcDbLine
 10
4.8236471114
 20
-0.2269955992
 30
0.0
 11
4.7865873656
 21
-0.2206369368
 31
0.0
  0
LINE
  5
389
330
1F
100
AcDbEntity
  8
0
  6
Continuous
 62
     7
370
    25
100
AcDbLine
 10
4.7849324904
 20
-0.2188318473
 30
0.0
 11
4.7763963934
 21
-0.1164078582
 31
0.0
  0
LINE
  5
38A
330
1F
100
AcDbEntity
  8
0
  6
Continuous
 62
     7
370
    25
100
AcDbLine
 10
4.7664671422
 20
-0.1055773214
 30
0.0
 11
4.7261336095
 21
-0.098656947
 31
0.0
  0
LINE
  5
38B
330
1F
100
AcDbEntity
  8
0
  6
Continuous
 62
     7
370
    25
100
AcDbLine
 10
4.7131619649
 20
-0.1055581783
 30
0.0
 11
4.6709716683
 21
-0.1992785996
 31
0.0
  0
LINE
  5
38C
330
1F
100
AcDbEntity
  8
0
  6
Continuous
 62
     7
370
    25
100
AcDbLine
 10
4.6688097275
 20
-0.2004288048
 30
0.0
 11
4.6317499818
 21
-0.1940701424
 31
0.0
  0
LINE
  5
38D
330
1F
100
AcDbEntity
  8
0
  6
Continuous
 62
     7
370
    25
100
AcDbLine
 10
4.6300951066
 20
-0.192265053
 30
0.0
 11
4.6215590095
 21
-0.0898410639
 31
0.0
  0
LINE
  5
38E
330
1F
100
AcDbEntity
  8
0
  6
Continuous
 62
     7
370
    25
100
AcDbLine
 10
4.6116297583
 20
-0.079010527
 30
0.0
 11
4.5712962257
 21
-0.0720901526
 31
0.0
  0
LINE
  5
38F
330
1F
100
AcDbEntity
  8
0
  6
Continuous
 62
     7
370
    25
100
AcDbLine
 10
4.558324581
 20
-0.0789913839
 30
0.0
 11
4.5161342844
 21
-0.1727118052
 31
0.0
  0
LINE
  5
390
330
1F
100
AcDbEntity
  8
0
  6
Continuous
 62
     7
370
    25
100
AcDbLine
 10
4.5139723437
 20
-0.1738620104
 30
0.0
 11
4.4769125979
 21
-0.1675033481
 31
0.0
  0
LINE
  5
391
330
1F
100
AcDbEntity
  8
0
  6
Continuous
 62
     7
370
    25
100
AcDbLine
 10
4.4752577227
 20
-0.1656982586
 30
0.0
 11
4.4667216257
 21
-0.0632742695
 31
0.0
  0
LINE
  5
392
330
1F
100
AcDbEntity
  8
0
  6
Continuous
 62
     7
370
    25
100
AcDbLine
 10
4.4567923745
 20
-0.0524437326
 30
0.0
 11
4.4164588418
 21
-0.0455233582
 31
0.0
  0
LINE
  5
393
330
1F
100
AcDbEntity
  8
0
  6
Continuous
 62
     7
370
    25
100
AcDbLine
 10
4.4034871972
 20
-0.0524245895
 30
0.0
 11
4.3612969006
 21
-0.1461450108
 31
0.0
  0
LINE
  5
394
330
1F
100
AcDbEntity
  8
0
  6
Continuous
 62
     7
370
    25
100
AcDbLine
 10
4.3591349598
 20
-0.1472952161
 30
0.0
 11
4.3220752141
 21
-0.1409365537
 31
0.0
  0
LINE
  5
395
330
1F
100
AcDbEntity
  8
0
  6
Continuous
 62
     7
370
    25
100
AcDbLine
 10
4.3204203389
 20
-0.1391314642
 30
0.0
 11
4.3118842419
 21
-0.0367074751
 31
0.0
  0
LINE
  5
396
330
1F
100
AcDbEntity
  8
0
  6
Continuous
 62
     7
370
    25
100
AcDbLine
 10
4.3019549906
 20
-0.0258769383
 30
0.0
 11
4.261621458
 21
-0.0189565639
 31
0.0
  0
LINE
  5
397
330
1F
100
AcDbEntity
  8
0
  6
Continuous
 62
     7
370
    25
100
AcDbLine
 10
4.2486498133
 20
-0.0258577952
 30
0.0
 11
4.2064595167
 21
-0.1195782165
 31
0.0
  0
LINE
  5
398
330
1F
100
AcDbEntity
  8
0
  6
Continuous
 62
     7
370
    25
100
AcDbLine
 10
4.204297576
 20
-0.1207284217
 30
0.0
 11
4.1672378302
 21
-0.1143697593
 31
0.0
  0
LINE
  5
399
330
1F
100
AcDbEntity
  8
0
  6
Continuous
 62
     7
370
    25
100
AcDbLine
 10
4.165582955
 20
-0.1125646699
 30
0.0
 11
4.157046858
 21
-0.0101406808
 31
0.0
  0
LINE
  5
39A
330
1F
100
AcDbEntity
  8
0
  6
Continuous
 62
     7
370
    25
100
AcDbLine
 10
4.1471176068
 20
0.0006898561
 30
0.0
 11
4.1067840741
 21
0.0076102305
 31
0.0
  0
LINE
  5
39B
330
1F
100
AcDbEntity
  8
0
  6
Continuous
 62
     7
370
    25
100
AcDbLine
 10
4.0938124295
 20
0.0007089992
 30
0.0
 11
4.0516221329
 21
-0.0930114221
 31
0.0
  0
LINE
  5
39C
330
1F
100
AcDbEntity
  8
0
  6
Continuous
 62
     7
370
    25
100
AcDbLine
 10
4.0494601921
 20
-0.0941616273
 30
0.0
 11
4.0124004464
 21
-0.087802965
 31
0.0
  0
LINE
  5
39D
330
1F
100
AcDbEntity
  8
0
  6
Continuous
 62
     7
370
    25
100
AcDbLine
 10
4.0107455712
 20
-0.0859978755
 30
0.0
 11
4.0022094742
 21
0.0164261136
 31
0.0
  0
LINE
  5
39E
330
1F
100
AcDbEntity
  8
0
  6
Continuous
 62
     7
370
    25
100
AcDbLine
 10
3.9922802229
 20
0.0272566504
 30
0.0
 11
3.9519466903
 21
0.0341770248
 31
0.0
  0
LINE
  5
39F
330
1F
100
AcDbEntity
  8
0
  6
Continuous
 62
     7
370
    25
100
AcDbLine
 10
3.9389750456
 20
0.0272757935
 30
0.0
 11
3.896784749
 21
-0.0664446278
 31
0.0
  0
LINE
  5
3A0
330
1F
100
AcDbEntity
  8
0
  6
Continuous
 62
     7
370
    25
100
AcDbLine
 10
3.8946228083
 20
-0.067594833
 30
0.0
 11
3.8575630625
 21
-0.0612361706
 31
0.0
  0
LINE
  5
3A1
330
1F
100
AcDbEntity
  8
0
  6
Continuous
 62
     7
370
    25
100
AcDbLine
 10
3.8559081873
 20
-0.0594310811
 30
0.0
 11
3.8473720903
 21
0.042992908
 31
0.0
  0
LINE
  5
3A2
330
1F
100
AcDbEntity
  8
0
  6
Continuous
 62
     7
370
    25
100
AcDbLine
 10
3.8374428391
 20
0.0538234448
 30
0.0
 11
3.7971093064
 21
0.0607438192
 31
0.0
  0
LINE
  5
3A3
330
1F
100
AcDbEntity
  8
0
  6
Continuous
 62
     7
370
    25
100
AcDbLine
 10
3.7841376618
 20
0.0538425879
 30
0.0
 11
3.7419473652
 21
-0.0398778334
 31
0.0
  0
LINE
  5
3A4
330
1F
100
AcDbEntity
  8
0
  6
Continuous
 62
     7
370
    25
100
AcDbLine
 10
3.7397854244
 20
-0.0410280386
 30
0.0
 11
3.7027256787
 21
-0.0346693763
 31
0.0
  0
LINE
  5
3A5
330
1F
100
AcDbEntity
  8
0
  6
Continuous
 62
     7
370
    25
100
AcDbLine
 10
3.7010708035
 20
-0.0328642868
 30
0.0
 11
3.6925347065
 21
0.0695597023
 31
0.0
  0
LINE
  5
3A6
330
1F
100
AcDbEntity
  8
0
  6
Continuous
 62
     7
370
    25
100
AcDbLine
 10
3.6826054552
 20
0.0803902392
 30
0.0
 11
3.6422719226
 21
0.0873106136
 31
0.0
  0
LINE
  5
3A7
330
1F
100
AcDbEntity
  8
0
  6
Continuous
 62
     7
370
    25
100
AcDbLine
 10
3.6293002779
 20
0.0804093823
 30
0.0
 11
3.5871099813
 21
-0.013311039
 31
0.0
  0
LINE
  5
3A8
330
1F
100
AcDbEntity
  8
0
  6
Continuous
 62
     7
370
    25
100
AcDbLine
 10
3.5849480406
 20
-0.0144612443
 30
0.0
 11
3.5478882948
 21
-0.0081025819
 31
0.0
  0
LINE
  5
3A9
330
1F
100
AcDbEntity
  8
0
  6
Continuous
 62
     7
370
    25
100
AcDbLine
 10
3.5462334196
 20
-0.0062974924
 30
0.0
 11
3.5376973226
 21
0.0961264967
 31
0.0
  0
LINE
  5
3AA
330
1F
100
AcDbEntity
  8
0
  6
Continuous
 62
     7
370
    25
100
AcDbLine
 10
3.5277680714
 20
0.1069570335
 30
0.0
 11
3.4874345387
 21
0.1138774079
 31
0.0
  0
LINE
  5
3AB
330
1F
100
AcDbEntity
  8
0
  6
Continuous
 62
     7
370
    25
100
AcDbLine
 10
3.4744628941
 20
0.1069761766
 30
0.0
 11
3.4322725975
 21
0.0132557553
 31
0.0
  0
LINE
  5
3AC
330
1F
100
AcDbEntity
  8
0
  6
Continuous
 62
     7
370
    25
100
AcDbLine
 10
3.4301106567
 20
0.0121055501
 30
0.0
 11
3.393050911
 21
0.0184642125
 31
0.0
  0
LINE
  5
3AD
330
1F
100
AcDbEntity
  8
0
  6
Continuous
 62
     7
370
    25
100
AcDbLine
 10
3.3913960358
 20
0.0202693019
 30
0.0
 11
3.3828599388
 21
0.122693291
 31
0.0
  0
LINE
  5
3AE
330
1F
100
AcDbEntity
  8
0
  6
Continuous
 62
     7
370
    25
100
AcDbLine
 10
3.3729306875
 20
0.1335238279
 30
0.0
 11
3.3325971549
 21
0.1404442023
 31
0.0
  0
LINE
  5
3AF
330
1F
100
AcDbEntity
  8
0
  6
Continuous
 62
     7
370
    25
100
AcDbLine
 10
3.3196255102
 20
0.133542971
 30
0.0
 11
3.2774352136
 21
0.0398225497
 31
0.0
  0
LINE
  5
3B0
330
1F
100
AcDbEntity
  8
0
  6
Continuous
 62
     7
370
    25
100
AcDbLine
 10
3.2752732729
 20
0.0386723445
 30
0.0
 11
3.2382135271
 21
0.0450310068
 31
0.0
  0
LINE
  5
3B1
330
1F
100
AcDbEntity
  8
0
  6
Continuous
 62
     7
370
    25
100
AcDbLine
 10
3.2365586519
 20
0.0468360963
 30
0.0
 11
3.2280225549
 21
0.1492600854
 31
0.0
  0
LINE
  5
3B2
330
1F
100
AcDbEntity
  8
0
  6
Continuous
 62
     7
370
    25
100
AcDbLine
 10
3.2180933037
 20
0.1600906223
 30
0.0
 11
3.177759771
 21
0.1670109967
 31
0.0
  0
LINE
  5
3B3
330
1F
100
AcDbEntity
  8
0
  6
Continuous
 62
     7
370
    25
100
AcDbLine
 10
3.1647881264
 20
0.1601097654
 30
0.0
 11
3.1225978298
 21
0.0663893441
 31
0.0
  0
LINE
  5
3B4
330
1F
100
AcDbEntity
  8
0
  6
Continuous
 62
     7
370
    25
100
AcDbLine
 10
3.120435889
 20
0.0652391388
 30
0.0
 11
3.0833761433
 21
0.0715978012
 31
0.0
  0
LINE
  5
3B5
330
1F
100
AcDbEntity
  8
0
  6
Continuous
 62
     7
370
    25
100
AcDbLine
 10
3.0817212681
 20
0.0734028907
 30
0.0
 11
3.0731851711
 21
0.1758268798
 31
0.0
  0
LINE
  5
3B6
330
1F
100
AcDbEntity
  8
0
  6
Continuous
 62
     7
370
    25
100
AcDbLine
 10
3.0632559198
 20
0.1866574166
 30
0.0
 11
3.0229223872
 21
0.193577791
 31
0.0
  0
LINE
  5
3B7
330
1F
100
AcDbEntity
  8
0
  6
Continuous
 62
     7
370
    25
100
AcDbLine
 10
3.0099507425
 20
0.1866765597
 30
0.0
 11
2.9677604459
 21
0.0929561384
 31
0.0
  0
LINE
  5
3B8
330
1F
100
AcDbEntity
  8
0
  6
Continuous
 62
     7
370
    25
100
AcDbLine
 10
2.9655985052
 20
0.0918059332
 30
0.0
 11
2.9285387594
 21
0.0981645956
 31
0.0
  0
LINE
  5
3B9
330
1F
100
AcDbEntity
  8
0
  6
Continuous
 62
     7
370
    25
100
AcDbLine
 10
2.9268838842
 20
0.099969685
 30
0.0
 11
2.9183477872
 21
0.2023936741
 31
0.0
  0
LINE
  5
3BA
330
1F
100
AcDbEntity
  8
0
  6
Continuous
 62
     7
370
    25
100
AcDbLine
 10
2.908418536
 20
0.213224211
 30
0.0
 11
2.8680850033
 21
0.2201445854
 31
0.0
  0
LINE
  5
3BB
330
1F
100
AcDbEntity
  8
0
  6
Continuous
 62
     7
370
    25
100
AcDbLine
 10
2.8551133587
 20
0.2132433541
 30
0.0
 11
2.8129230621
 21
0.1195229328
 31
0.0
  0
LINE
  5
3BC
330
1F
100
AcDbEntity
  8
0
  6
Continuous
 62
     7
370
    25
100
AcDbLine
 10
2.8107611213
 20
0.1183727276
 30
0.0
 11
2.7737013756
 21
0.1247313899
 31
0.0
  0
LINE
  5
3BD
330
1F
100
AcDbEntity
  8
0
  6
Continuous
 62
     7
370
    25
100
AcDbLine
 10
2.7720465004
 20
0.1265364794
 30
0.0
 11
2.7635104034
 21
0.2289604685
 31
0.0
  0
LINE
  5
3BE
330
1F
100
AcDbEntity
  8
0
  6
Continuous
 62
     7
370
    25
100
AcDbLine
 10
2.7535811521
 20
0.2397910053
 30
0.0
 11
2.7132476195
 21
0.2467113797
 31
0.0
  0
LINE
  5
3BF
330
1F
100
AcDbEntity
  8
0
  6
Continuous
 62
     7
370
    25
100
AcDbLine
 10
2.7002759748
 20
0.2398101484
 30
0.0
 11
2.6580856782
 21
0.1460897271
 31
0.0
  0
LINE
  5
3C0
330
1F
100
AcDbEntity
  8
0
  6
Continuous
 62
     7
370
    25
100
AcDbLine
 10
2.6559237375
 20
0.1449395219
 30
0.0
 11
2.6188639917
 21
0.1512981843
 31
0.0
  0
LINE
  5
3C1
330
1F
100
AcDbEntity
  8
0
  6
Continuous
 62
     7
370
    25
100
AcDbLine
 10
2.6172091165
 20
0.1531032738
 30
0.0
 11
2.6086730195
 21
0.2555272629
 31
0.0
  0
LINE
  5
3C2
330
1F
100
AcDbEntity
  8
0
  6
Continuous
 62
     7
370
    25
100
AcDbLine
 10
2.5987437683
 20
0.2663577997
 30
0.0
 11
2.5584102356
 21
0.2732781741
 31
0.0
  0
LINE
  5
3C3
330
1F
100
AcDbEntity
  8
0
  6
Continuous
 62
     7
370
    25
100
AcDbLine
 10
2.545438591
 20
0.2663769428
 30
0.0
 11
2.5032482944
 21
0.1726565215
 31
0.0
  0
LINE
  5
3C4
330
1F
100
AcDbEntity
  8
0
  6
Continuous
 62
     7
370
    25
100
AcDbLine
 10
2.5010863536
 20
0.1715063163
 30
0.0
 11
2.4640266079
 21
0.1778649786
 31
0.0
  0
LINE
  5
3C5
330
1F
100
AcDbEntity
  8
0
  6
Continuous
 62
     7
370
    25
100
AcDbLine
 10
2.4623717327
 20
0.1796700681
 30
0.0
 11
2.4538356357
 21
0.2820940572
 31
0.0
  0
LINE
  5
3C6
330
1F
100
AcDbEntity
  8
0
  6
Continuous
 62
     7
370
    25
100
AcDbLine
 10
2.4439063844
 20
0.2929245941
 30
0.0
 11
2.4035728518
 21
0.2998449685
 31
0.0
  0
LINE
  5
3C7
330
1F
100
AcDbEntity
  8
0
  6
Continuous
 62
     7
370
    25
100
AcDbLine
 10
2.3906012071
 20
0.2929437372
 30
0.0
 11
2.3484109105
 21
0.1992233159
 31
0.0
  0
LINE
  5
3C8
330
1F
100
AcDbEntity
  8
0
  6
Continuous
 62
     7
370
    25
100
AcDbLine
 10
2.3462489698
 20
0.1980731107
 30
0.0
 11
2.309189224
 21
0.204431773
 31
0.0
  0
LINE
  5
3C9
330
1F
100
AcDbEntity
  8
0
  6
Continuous
 62
     7
370
    25
100
AcDbLine
 10
2.3075343488
 20
0.2062368625
 30
0.0
 11
2.2989982518
 21
0.3086608516
 31
0.0
  0
LINE
  5
3CA
330
1F
100
AcDbEntity
  8
0
  6
Continuous
 62
     7
370
    25
100
AcDbLine
 10
2.2890690006
 20
0.3194913884
 30
0.0
 11
2.2487354679
 21
0.3264117628
 31
0.0
  0
LINE
  5
3CB
330
1F
100
AcDbEntity
  8
0
  6
Continuous
 62
     7
370
    25
100
AcDbLine
 10
2.2357638233
 20
0.3195105315
 30
0.0
 11
2.1935735267
 21
0.2257901102
 31
0.0
  0
LINE
  5
3CC
330
1F
100
AcDbEntity
  8
0
  6
Continuous
 62
     7
370
    25
100
AcDbLine
 10
2.1914115859
 20
0.224639905
 30
0.0
 11
2.1543518402
 21
0.2309985674
 31
0.0
  0
LINE
  5
3CD
330
1F
100
AcDbEntity
  8
0
  6
Continuous
 62
     7
370
    25
100
AcDbLine
 10
2.152696965
 20
0.2328036568
 30
0.0
 11
2.144160868
 21
0.3352276459
 31
0.0
  0
LINE
  5
3CE
330
1F
100
AcDbEntity
  8
0
  6
Continuous
 62
     7
370
    25
100
AcDbLine
 10
2.1342316167
 20
0.3460581828
 30
0.0
 11
2.0938980841
 21
0.3529785572
 31
0.0
  0
LINE
  5
3CF
330
1F
100
AcDbEntity
  8
0
  6
Continuous
 62
     7
370
    25
100
AcDbLine
 10
2.0809264394
 20
0.3460773259
 30
0.0
 11
2.0387361428
 21
0.2523569046
 31
0.0
  0
LINE
  5
3D0
330
1F
100
AcDbEntity
  8
0
  6
Continuous
 62
     7
370
    25
100
AcDbLine
 10
2.0365742021
 20
0.2512066994
 30
0.0
 11
1.9995144563
 21
0.2575653617
 31
0.0
  0
LINE
  5
3D1
330
1F
100
AcDbEntity
  8
0
  6
Continuous
 62
     7
370
    25
100
AcDbLine
 10
1.9978595811
 20
0.2593704512
 30
0.0
 11
1.9893234841
 21
0.3617944403
 31
0.0
  0
LINE
  5
3D2
330
1F
100
AcDbEntity
  8
0
  6
Continuous
 62
     7
370
    25
100
AcDbLine
 10
1.9793942329
 20
0.3726249772
 30
0.0
 11
1.9390607003
 21
0.3795453516
 31
0.0
  0
LINE
  5
3D3
330
1F
100
AcDbEntity
  8
0
  6
Continuous
 62
     7
370
    25
100
AcDbLine
 10
1.9260890556
 20
0.3726441203
 30
0.0
 11
1.883898759
 21
0.278923699
 31
0.0
  0
LINE
  5
3D4
330
1F
100
AcDbEntity
  8
0
  6
Continuous
 62
     7
370
    25
100
AcDbLine
 10
1.8817368182
 20
0.2777734937
 30
0.0
 11
1.8446770725
 21
0.2841321561
 31
0.0
  0
LINE
  5
3D5
330
1F
100
AcDbEntity
  8
0
  6
Continuous
 62
     7
370
    25
100
AcDbLine
 10
1.8430221973
 20
0.2859372456
 30
0.0
 11
1.8344861003
 21
0.3883612347
 31
0.0
  0
LINE
  5
3D6
330
1F
100
AcDbEntity
  8
0
  6
Continuous
 62
     7
370
    25
100
AcDbLine
 10
1.824556849
 20
0.3991917715
 30
0.0
 11
1.7842233164
 21
0.4061121459
 31
0.0
  0
LINE
  5
3D7
330
1F
100
AcDbEntity
  8
0
  6
Continuous
 62
     7
370
    25
100
AcDbLine
 10
1.7712516717
 20
0.3992109146
 30
0.0
 11
1.7290613752
 21
0.3054904933
 31
0.0
  0
LINE
  5
3D8
330
1F
100
AcDbEntity
  8
0
  6
Continuous
 62
     7
370
    25
100
AcDbLine
 10
1.7268994344
 20
0.3043402881
 30
0.0
 11
1.6898396886
 21
0.3106989505
 31
0.0
  0
LINE
  5
3D9
330
1F
100
AcDbEntity
  8
0
  6
Continuous
 62
     7
370
    25
100
AcDbLine
 10
1.6881848134
 20
0.3125040399
 30
0.0
 11
1.6796487164
 21
0.414928029
 31
0.0
  0
LINE
  5
3DA
330
1F
100
AcDbEntity
  8
0
  6
Continuous
 62
     7
370
    25
100
AcDbLine
 10
1.6697194652
 20
0.4257585659
 30
0.0
 11
1.6293859326
 21
0.4326789403
 31
0.0
  0
LINE
  5
3DB
330
1F
100
AcDbEntity
  8
0
  6
Continuous
 62
     7
370
    25
100
AcDbLine
 10
1.6164142879
 20
0.425777709
 30
0.0
 11
1.5742239913
 21
0.3320572877
 31
0.0
  0
LINE
  5
3DC
330
1F
100
AcDbEntity
  8
0
  6
Continuous
 62
     7
370
    25
100
AcDbLine
 10
1.5720620505
 20
0.3309070825
 30
0.0
 11
1.5350023048
 21
0.3372657448
 31
0.0
  0
LINE
  5
3DD
330
1F
100
AcDbEntity
  8
0
  6
Continuous
 62
     7
370
    25
100
AcDbLine
 10
1.5333474296
 20
0.3390708343
 30
0.0
 11
1.5248113326
 21
0.4414948234
 31
0.0
  0
LINE
  5
3DE
330
1F
100
AcDbEntity
  8
0
  6
Continuous
 62
     7
370
    25
100
AcDbLine
 10
1.5148820813
 20
0.4523253603
 30
0.0
 11
1.4745485487
 21
0.4592457347
 31
0.0
  0
LINE
  5
3DF
330
1F
100
AcDbEntity
  8
0
  6
Continuous
 62
     7
370
    25
100
AcDbLine
 10
1.461576904
 20
0.4523445033
 30
0.0
 11
1.4193866075
 21
0.358624082
 31
0.0
  0
LINE
  5
3E0
330
1F
100
AcDbEntity
  8
0
  6
Continuous
 62
     7
370
    25
100
AcDbLine
 10
1.4172246667
 20
0.3574738768
 30
0.0
 11
1.3801649209
 21
0.3638325392
 31
0.0
  0
LINE
  5
3E1
330
1F
100
AcDbEntity
  8
0
  6
Continuous
 62
     7
370
    25
100
AcDbLine
 10
1.3785100457
 20
0.3656376287
 30
0.0
 11
1.3699739487
 21
0.4680616178
 31
0.0
  0
LINE
  5
3E2
330
1F
100
AcDbEntity
  8
0
  6
Continuous
 62
     7
370
    25
100
AcDbLine
 10
1.3600446975
 20
0.4788921546
 30
0.0
 11
1.3197111649
 21
0.485812529
 31
0.0
  0
LINE
  5
3E3
330
1F
100
AcDbEntity
  8
0
  6
Continuous
 62
     7
370
    25
100
AcDbLine
 10
1.3067395202
 20
0.4789112977
 30
0.0
 11
1.2645492236
 21
0.3851908764
 31
0.0
  0
LINE
  5
3E4
330
1F
100
AcDbEntity
  8
0
  6
Continuous
 62
     7
370
    25
100
AcDbLine
 10
1.2623872828
 20
0.3840406712
 30
0.0
 11
1.2253275371
 21
0.3903993336
 31
0.0
  0
LINE
  5
3E5
330
1F
100
AcDbEntity
  8
0
  6
Continuous
 62
     7
370
    25
100
AcDbLine
 10
1.2236726619
 20
0.392204423
 30
0.0
 11
1.2151365649
 21
0.4946284121
 31
0.0
  0
LINE
  5
3E6
330
1F
100
AcDbEntity
  8
0
  6
Continuous
 62
     7
370
    25
100
AcDbLine
 10
1.2052073136
 20
0.505458949
 30
0.0
 11
1.164873781
 21
0.5123793234
 31
0.0
  0
LINE
  5
3E7
330
1F
100
AcDbEntity
  8
0
  6
Continuous
 62
     7
370
    25
100
AcDbLine
 10
1.1519021363
 20
0.5054780921
 30
0.0
 11
1.1097118398
 21
0.4117576708
 31
0.0
  0
LINE
  5
3E8
330
1F
100
AcDbEntity
  8
0
  6
Continuous
 62
     7
370
    25
100
AcDbLine
 10
1.107549899
 20
0.4106074656
 30
0.0
 11
1.0704901532
 21
0.4169661279
 31
0.0
  0
LINE
  5
3E9
330
1F
100
AcDbEntity
  8
0
  6
Continuous
 62
     7
370
    25
100
AcDbLine
 10
1.068835278
 20
0.4187712174
 30
0.0
 11
1.060299181
 21
0.5211952065
 31
0.0
  0
LINE
  5
3EA
330
1F
100
AcDbEntity
  8
0
  6
Continuous
 62
     7
370
    25
100
AcDbLine
 10
1.0503699298
 20
0.5320257433
 30
0.0
 11
1.0100363972
 21
0.5389461177
 31
0.0
  0
LINE
  5
3EB
330
1F
100
AcDbEntity
  8
0
  6
Continuous
 62
     7
370
    25
100
AcDbLine
 10
0.9970647525
 20
0.5320448864
 30
0.0
 11
0.9548744559
 21
0.4383244651
 31
0.0
  0
LINE
  5
3EC
330
1F
100
AcDbEntity
  8
0
  6
Continuous
 62
     7
370
    25
100
AcDbLine
 10
0.9527125151
 20
0.4371742599
 30
0.0
 11
0.9156527694
 21
0.4435329223
 31
0.0
  0
LINE
  5
3ED
330
1F
100
AcDbEntity
  8
0
  6
Continuous
 62
     7
370
    25
100
AcDbLine
 10
0.9139978942
 20
0.4453380118
 30
0.0
 11
0.9054617972
 21
0.5477620008
 31
0.0
  0
LINE
  5
3EE
330
1F
100
AcDbEntity
  8
0
  6
Continuous
 62
     7
370
    25
100
AcDbLine
 10
0.8955325459
 20
0.5585925377
 30
0.0
 11
0.8551990133
 21
0.5655129121
 31
0.0
  0
LINE
  5
3EF
330
1F
100
AcDbEntity
  8
0
  6
Continuous
 62
     7
370
    25
100
AcDbLine
 10
0.8422273686
 20
0.5586116808
 30
0.0
 11
0.8000370721
 21
0.4648912595
 31
0.0
  0
LINE
  5
3F0
330
1F
100
AcDbEntity
  8
0
  6
Continuous
 62
     7
370
    25
100
AcDbLine
 10
0.7978751313
 20
0.4637410543
 30
0.0
 11
0.7608153855
 21
0.4700997166
 31
0.0
  0
LINE
  5
3F1
330
1F
100
AcDbEntity
  8
0
  6
Continuous
 62
     7
370
    25
100
AcDbLine
 10
0.7591605103
 20
0.4719048061
 30
0.0
 11
0.7506244133
 21
0.5743287952
 31
0.0
  0
LINE
  5
3F2
330
1F
100
AcDbEntity
  8
0
  6
Continuous
 62
     7
370
    25
100
AcDbLine
 10
0.7406951621
 20
0.5851593321
 30
0.0
 11
0.7003616295
 21
0.5920797065
 31
0.0
  0
LINE
  5
3F3
330
1F
100
AcDbEntity
  8
0
  6
Continuous
 62
     7
370
    25
100
AcDbLine
 10
0.6873899848
 20
0.5851784752
 30
0.0
 11
0.6451996882
 21
0.4914580539
 31
0.0
  0
LINE
  5
3F4
330
1F
100
AcDbEntity
  8
0
  6
Continuous
 62
     7
370
    25
100
AcDbLine
 10
0.6430377474
 20
0.4903078486
 30
0.0
 11
0.6059780017
 21
0.496666511
 31
0.0
  0
LINE
  5
3F5
330
1F
100
AcDbEntity
  8
0
  6
Continuous
 62
     7
370
    25
100
AcDbLine
 10
0.6043231265
 20
0.4984716005
 30
0.0
 11
0.5957870295
 21
0.6008955896
 31
0.0
  0
LINE
  5
3F6
330
1F
100
AcDbEntity
  8
0
  6
Continuous
 62
     7
370
    25
100
AcDbLine
 10
0.5858577782
 20
0.6117261264
 30
0.0
 11
0.5455242456
 21
0.6186465008
 31
0.0
  0
LINE
  5
3F7
330
1F
100
AcDbEntity
  8
0
  6
Continuous
 62
     7
370
    25
100
AcDbLine
 10
0.5325526009
 20
0.6117452695
 30
0.0
 11
0.4903623044
 21
0.5180248482
 31
0.0
  0
LINE
  5
3F8
330
1F
100
AcDbEntity
  8
0
  6
Continuous
 62
     7
370
    25
100
AcDbLine
 10
0.4882003636
 20
0.516874643
 30
0.0
 11
0.4511406178
 21
0.5232333054
 31
0.0
  0
LINE
  5
3F9
330
1F
100
AcDbEntity
  8
0
  6
Continuous
 62
     7
370
    25
100
AcDbLine
 10
0.4494857426
 20
0.5250383948
 30
0.0
 11
0.4409496456
 21
0.6274623839
 31
0.0
  0
LINE
  5
3FA
330
1F
100
AcDbEntity
  8
0
  6
Continuous
 62
     7
370
    25
100
AcDbLine
 10
0.4310203944
 20
0.6382929208
 30
0.0
 11
0.3906868618
 21
0.6452132952
 31
0.0
  0
LINE
  5
3FB
330
1F
100
AcDbEntity
  8
0
  6
Continuous
 62
     7
370
    25
100
AcDbLine
 10
0.3777152171
 20
0.6383120639
 30
0.0
 11
0.3355249205
 21
0.5445916426
 31
0.0
  0
LINE
  5
3FC
330
1F
100
AcDbEntity
  8
0
  6
Continuous
 62
     7
370
    25
100
AcDbLine
 10
0.3333629797
 20
0.5434414374
 30
0.0
 11
0.296303234
 21
0.5498000997
 31
0.0
  0
LINE
  5
3FD
330
1F
100
AcDbEntity
  8
0
  6
Continuous
 62
     7
370
    25
100
AcDbLine
 10
0.2946483588
 20
0.5516051892
 30
0.0
 11
0.2861122618
 21
0.6540291783
 31
0.0
  0
LINE
  5
3FE
330
1F
100
AcDbEntity
  8
0
  6
Continuous
 62
     7
370
    25
100
AcDbLine
 10
0.2761830105
 20
0.6648597152
 30
0.0
 11
0.2358494779
 21
0.6717800896
 31
0.0
  0
LINE
  5
3FF
330
1F
100
AcDbEntity
  8
0
  6
Continuous
 62
     7
370
    25
100
AcDbLine
 10
0.2228778332
 20
0.6648788583
 30
0.0
 11
0.1806875367
 21
0.571158437
 31
0.0
  0
LINE
  5
400
330
1F
100
AcDbEntity
  8
0
  6
Continuous
 62
     7
370
    25
100
AcDbLine
 10
0.1785255959
 20
0.5700082317
 30
0.0
 11
0.1414658501
 21
0.5763668941
 31
0.0
  0
LINE
  5
401
330
1F
100
AcDbEntity
  8
0
  6
Continuous
 62
     7
370
    25
100
AcDbLine
 10
0.1398109749
 20
0.5781719836
 30
0.0
 11
0.1312748779
 21
0.6805959727
 31
0.0
  0
LINE
  5
402
330
1F
100
AcDbEntity
  8
0
  6
Continuous
 62
     7
370
    25
100
AcDbLine
 10
0.1213456267
 20
0.6914265095
 30
0.0
 11
0.0810120941
 21
0.6983468839
 31
0.0
  0
LINE
  5
403
330
1F
100
AcDbEntity
  8
0
  6
Continuous
 62
     7
370
    25
100
AcDbLine
 10
0.0680404494
 20
0.6914456526
 30
0.0
 11
0.0258501528
 21
0.5977252313
 31
0.0
  0
LINE
  5
404
330
1F
100
AcDbEntity
  8
0
  6
Continuous
 62
     7
370
    25
100
AcDbLine
 10
0.023688212
 20
0.5965750261
 30
0.0
 11
-0.0133715337
 21
0.6029336885
 31
0.0
  0
LINE
  5
405
330
1F
100
AcDbEntity
  8
0
  6
Continuous
 62
     7
370
    25
100
AcDbLine
 10
-0.0150264089
 20
0.6047387779
 30
0.0
 11
-0.0235625059
 21
0.707162767
 31
0.0
  0
LINE
  5
406
330
1F
100
AcDbEntity
  8
0
  6
Continuous
 62
     7
370
    25
100
AcDbLine
 10
-0.0334917572
 20
0.7179933039
 30
0.0
 11
-0.0738252898
 21
0.7249136783
 31
0.0
  0
LINE
  5
407
330
1F
100
AcDbEntity
  8
0
  6
Continuous
 62
     7
370
    25
100
AcDbLine
 10
-0.0867969345
 20
0.718012447
 30
0.0
 11
-0.128987231
 21
0.6242920257
 31
0.0
  0
LINE
  5
408
330
1F
100
AcDbEntity
  8
0
  6
Continuous
 62
     7
370
    25
100
AcDbLine
 10
-0.1311491718
 20
0.6231418205
 30
0.0
 11
-0.1682089176
 21
0.6295004828
 31
0.0
  0
LINE
  5
409
330
1F
100
AcDbEntity
  8
0
  6
Continuous
 62
     7
370
    25
100
AcDbLine
 10
-0.1698637928
 20
0.6313055723
 30
0.0
 11
-0.1783998898
 21
0.7337295614
 31
0.0
  0
LINE
  5
40A
330
1F
100
AcDbEntity
  8
0
  6
Continuous
 62
     7
370
    25
100
AcDbLine
 10
-0.188329141
 20
0.7445600982
 30
0.0
 11
-0.2286626736
 21
0.7514804726
 31
0.0
  0
LINE
  5
40B
330
1F
100
AcDbEntity
  8
0
  6
Continuous
 62
     7
370
    25
100
AcDbLine
 10
-0.2416343183
 20
0.7445792413
 30
0.0
 11
-0.2838246149
 21
0.65085882
 31
0.0
  0
LINE
  5
40C
330
1F
100
AcDbEntity
  8
0
  6
Continuous
 62
     7
370
    25
100
AcDbLine
 10
-0.2859865557
 20
0.6497086148
 30
0.0
 11
-0.3230463014
 21
0.6560672772
 31
0.0
  0
LINE
  5
40D
330
1F
100
AcDbEntity
  8
0
  6
Continuous
 62
     7
370
    25
100
AcDbLine
 10
-0.3247011766
 20
0.6578723667
 30
0.0
 11
-0.3332372736
 21
0.7602963558
 31
0.0
  0
LINE
  5
40E
330
1F
100
AcDbEntity
  8
0
  6
Continuous
 62
     7
370
    25
100
AcDbLine
 10
-0.3431665249
 20
0.7711268926
 30
0.0
 11
-0.3835000575
 21
0.778047267
 31
0.0
  0
LINE
  5
40F
330
1F
100
AcDbEntity
  8
0
  6
Continuous
 62
     7
370
    25
100
AcDbLine
 10
-0.3964717022
 20
0.7711460357
 30
0.0
 11
-0.4386619987
 21
0.6774256144
 31
0.0
  0
LINE
  5
410
330
1F
100
AcDbEntity
  8
0
  6
Continuous
 62
     7
370
    25
100
AcDbLine
 10
-0.4408239395
 20
0.6762754092
 30
0.0
 11
-0.4778836852
 21
0.6826340715
 31
0.0
  0
LINE
  5
411
330
1F
100
AcDbEntity
  8
0
  6
Continuous
 62
     7
370
    25
100
AcDbLine
 10
-0.4795385605
 20
0.684439161
 30
0.0
 11
-0.4880746575
 21
0.7868631501
 31
0.0
  0
LINE
  5
412
330
1F
100
AcDbEntity
  8
0
  6
Continuous
 62
     7
370
    25
100
AcDbLine
 10
-0.4980039087
 20
0.797693687
 30
0.0
 11
-0.5383374413
 21
0.8046140614
 31
0.0
  0
LINE
  5
413
330
1F
100
AcDbEntity
  8
0
  6
Continuous
 62
     7
370
    25
100
AcDbLine
 10
-0.551309086
 20
0.7977128301
 30
0.0
 11
-0.5934993826
 21
0.7039924088
 31
0.0
  0
LINE
  5
414
330
1F
100
AcDbEntity
  8
0
  6
Continuous
 62
     7
370
    25
100
AcDbLine
 10
-0.5956613234
 20
0.7028422036
 30
0.0
 11
-0.6327210691
 21
0.7092008659
 31
0.0
  0
LINE
  5
415
330
1F
100
AcDbEntity
  8
0
  6
Continuous
 62
     7
370
    25
100
AcDbLine
 10
-0.6343759443
 20
0.7110059554
 30
0.0
 11
-0.6429120413
 21
0.8134299445
 31
0.0
  0
LINE
  5
416
330
1F
100
AcDbEntity
  8
0
  6
Continuous
 62
     7
370
    25
100
AcDbLine
 10
-0.6528412926
 20
0.8242604813
 30
0.0
 11
-0.6931748252
 21
0.8311808557
 31
0.0
  0
LINE
  5
417
330
1F
100
AcDbEntity
  8
0
  6
Continuous
 62
     7
370
    25
100
AcDbLine
 10
-0.7061464699
 20
0.8242796244
 30
0.0
 11
-0.7483367664
 21
0.7305592031
 31
0.0
  0
LINE
  5
418
330
1F
100
AcDbEntity
  8
0
  6
Continuous
 62
     7
370
    25
100
AcDbLine
 10
-0.7504987072
 20
0.7294089979
 30
0.0
 11
-0.7875584529
 21
0.7357676603
 31
0.0
  0
LINE
  5
419
330
1F
100
AcDbEntity
  8
0
  6
Continuous
 62
     7
370
    25
100
AcDbLine
 10
-0.7892133282
 20
0.7375727497
 30
0.0
 11
-0.7977494252
 21
0.8399967388
 31
0.0
  0
LINE
  5
41A
330
1F
100
AcDbEntity
  8
0
  6
Continuous
 62
     7
370
    25
100
AcDbLine
 10
-0.8076786764
 20
0.8508272757
 30
0.0
 11
-0.848012209
 21
0.8577476501
 31
0.0
  0
LINE
  5
41B
330
1F
100
AcDbEntity
  8
0
  6
Continuous
 62
     7
370
    25
100
AcDbLine
 10
-0.8609838537
 20
0.8508464188
 30
0.0
 11
-0.9031741503
 21
0.7571259975
 31
0.0
  0
LINE
  5
41C
330
1F
100
AcDbEntity
  8
0
  6
Continuous
 62
     7
370
    25
100
AcDbLine
 10
-0.9053360911
 20
0.7559757923
 30
0.0
 11
-0.9423958368
 21
0.7623344546
 31
0.0
  0
LINE
  5
41D
330
1F
100
AcDbEntity
  8
0
  6
Continuous
 62
     7
370
    25
100
AcDbLine
 10
-0.944050712
 20
0.7641395441
 30
0.0
 11
-0.952586809
 21
0.8665635332
 31
0.0
  0
LINE
  5
41E
330
1F
100
AcDbEntity
  8
0
  6
Continuous
 62
     7
370
    25
100
AcDbLine
 10
-0.9625160603
 20
0.8773940701
 30
0.0
 11
-1.0028495929
 21
0.8843144445
 31
0.0
  0
LINE
  5
41F
330
1F
100
AcDbEntity
  8
0
  6
Continuous
 62
     7
370
    25
100
AcDbLine
 10
-1.0158212376
 20
0.8774132132
 30
0.0
 11
-1.0580115341
 21
0.7836927919
 31
0.0
  0
LINE
  5
420
330
1F
100
AcDbEntity
  8
0
  6
Continuous
 62
     7
370
    25
100
AcDbLine
 10
-1.0601734749
 20
0.7825425866
 30
0.0
 11
-1.0972332206
 21
0.788901249
 31
0.0
  0
LINE
  5
421
330
1F
100
AcDbEntity
  8
0
  6
Continuous
 62
     7
370
    25
100
AcDbLine
 10
-1.0988880959
 20
0.7907063385
 30
0.0
 11
-1.1074241929
 21
0.8931303276
 31
0.0
  0
LINE
  5
422
330
1F
100
AcDbEntity
  8
0
  6
Continuous
 62
     7
370
    25
100
AcDbLine
 10
-1.1173534441
 20
0.9039608644
 30
0.0
 11
-1.1576869767
 21
0.9108812388
 31
0.0
  0
LINE
  5
423
330
1F
100
AcDbEntity
  8
0
  6
Continuous
 62
     7
370
    25
100
AcDbLine
 10
-1.1706586214
 20
0.9039800075
 30
0.0
 11
-1.212848918
 21
0.8102595862
 31
0.0
  0
LINE
  5
424
330
1F
100
AcDbEntity
  8
0
  6
Continuous
 62
     7
370
    25
100
AcDbLine
 10
-1.2150108588
 20
0.809109381
 30
0.0
 11
-1.2520706045
 21
0.8154680434
 31
0.0
  0
LINE
  5
425
330
1F
100
AcDbEntity
  8
0
  6
Continuous
 62
     7
370
    25
100
AcDbLine
 10
-1.2537254797
 20
0.8172731328
 30
0.0
 11
-1.2622615767
 21
0.9196971219
 31
0.0
  0
LINE
  5
426
330
1F
100
AcDbEntity
  8
0
  6
Continuous
 62
     7
370
    25
100
AcDbLine
 10
-1.272190828
 20
0.9305276588
 30
0.0
 11
-1.3125243606
 21
0.9374480332
 31
0.0
  0
LINE
  5
427
330
1F
100
AcDbEntity
  8
0
  6
Continuous
 62
     7
370
    25
100
AcDbLine
 10
-1.3254960052
 20
0.9305468019
 30
0.0
 11
-1.3676863018
 21
0.8368263806
 31
0.0
  0
LINE
  5
428
330
1F
100
AcDbEntity
  8
0
  6
Continuous
 62
     7
370
    25
100
AcDbLine
 10
-1.3698482426
 20
0.8356761754
 30
0.0
 11
-1.4069079883
 21
0.8420348377
 31
0.0
  0
LINE
  5
429
330
1F
100
AcDbEntity
  8
0
  6
Continuous
 62
     7
370
    25
100
AcDbLine
 10
-1.4085628636
 20
0.8438399272
 30
0.0
 11
-1.4170989606
 21
0.9462639163
 31
0.0
  0
LINE
  5
42A
330
1F
100
AcDbEntity
  8
0
  6
Continuous
 62
     7
370
    25
100
AcDbLine
 10
-1.4270282118
 20
0.9570944532
 30
0.0
 11
-1.4673617444
 21
0.9640148275
 31
0.0
  0
LINE
  5
42B
330
1F
100
AcDbEntity
  8
0
  6
Continuous
 62
     7
370
    25
100
AcDbLine
 10
-1.4803333891
 20
0.9571135962
 30
0.0
 11
-1.5225236857
 21
0.8633931749
 31
0.0
  0
LINE
  5
42C
330
1F
100
AcDbEntity
  8
0
  6
Continuous
 62
     7
370
    25
100
AcDbLine
 10
-1.5246856265
 20
0.8622429697
 30
0.0
 11
-1.5617453722
 21
0.8686016321
 31
0.0
  0
LINE
  5
42D
330
1F
100
AcDbEntity
  8
0
  6
Continuous
 62
     7
370
    25
100
AcDbLine
 10
-1.5634002474
 20
0.8704067216
 30
0.0
 11
-1.5719363444
 21
0.9728307107
 31
0.0
  0
LINE
  5
42E
330
1F
100
AcDbEntity
  8
0
  6
Continuous
 62
     7
370
    25
100
AcDbLine
 10
-1.5818655957
 20
0.9836612475
 30
0.0
 11
-1.6221991283
 21
0.9905816219
 31
0.0
  0
LINE
  5
42F
330
1F
100
AcDbEntity
  8
0
  6
Continuous
 62
     7
370
    25
100
AcDbLine
 10
-1.6351707729
 20
0.9836803906
 30
0.0
 11
-1.6773610695
 21
0.8899599693
 31
0.0
  0
LINE
  5
430
330
1F
100
AcDbEntity
  8
0
  6
Continuous
 62
     7
370
    25
100
AcDbLine
 10
-1.6795230103
 20
0.8888097641
 30
0.0
 11
-1.716582756
 21
0.8951684264
 31
0.0
  0
LINE
  5
431
330
1F
100
AcDbEntity
  8
0
  6
Continuous
 62
     7
370
    25
100
AcDbLine
 10
-1.7182376313
 20
0.8969735159
 30
0.0
 11
-1.7267737283
 21
0.999397505
 31
0.0
  0
LINE
  5
432
330
1F
100
AcDbEntity
  8
0
  6
Continuous
 62
     7
370
    25
100
AcDbLine
 10
-1.7367029795
 20
1.0102280419
 30
0.0
 11
-1.7770365121
 21
1.0171484163
 31
0.0
  0
LINE
  5
433
330
1F
100
AcDbEntity
  8
0
  6
Continuous
 62
     7
370
    25
100
AcDbLine
 10
-1.7900081568
 20
1.010247185
 30
0.0
 11
-1.8321984534
 21
0.9165267637
 31
0.0
  0
LINE
  5
434
330
1F
100
AcDbEntity
  8
0
  6
Continuous
 62
     7
370
    25
100
AcDbLine
 10
-1.8343603942
 20
0.9153765585
 30
0.0
 11
-1.8714201399
 21
0.9217352208
 31
0.0
  0
LINE
  5
435
330
1F
100
AcDbEntity
  8
0
  6
Continuous
 62
     7
370
    25
100
AcDbLine
 10
-1.8730750151
 20
0.9235403103
 30
0.0
 11
-1.8816111121
 21
1.0259642994
 31
0.0
  0
LINE
  5
436
330
1F
100
AcDbEntity
  8
0
  6
Continuous
 62
     7
370
    25
100
AcDbLine
 10
-1.8915403634
 20
1.0367948362
 30
0.0
 11
-1.931873896
 21
1.0437152106
 31
0.0
  0
LINE
  5
437
330
1F
100
AcDbEntity
  8
0
  6
Continuous
 62
     7
370
    25
100
AcDbLine
 10
-1.9448455406
 20
1.0368139793
 30
0.0
 11
-1.9870358372
 21
0.943093558
 31
0.0
  0
LINE
  5
438
330
1F
100
AcDbEntity
  8
0
  6
Continuous
 62
     7
370
    25
100
AcDbLine
 10
-1.989197778
 20
0.9419433528
 30
0.0
 11
-2.0262575237
 21
0.9483020152
 31
0.0
  0
LINE
  5
439
330
1F
100
AcDbEntity
  8
0
  6
Continuous
 62
     7
370
    25
100
AcDbLine
 10
-2.0279123989
 20
0.9501071047
 30
0.0
 11
-2.036448496
 21
1.0525310937
 31
0.0
  0
LINE
  5
43A
330
1F
100
AcDbEntity
  8
0
  6
Continuous
 62
     7
370
    25
100
AcDbLine
 10
-2.0463777472
 20
1.0633616306
 30
0.0
 11
-2.0867112798
 21
1.070282005
 31
0.0
  0
LINE
  5
43B
330
1F
100
AcDbEntity
  8
0
  6
Continuous
 62
     7
370
    25
100
AcDbLine
 10
-2.0996829245
 20
1.0633807737
 30
0.0
 11
-2.1418732211
 21
0.9696603524
 31
0.0
  0
LINE
  5
43C
330
1F
100
AcDbEntity
  8
0
  6
Continuous
 62
     7
370
    25
100
AcDbLine
 10
-2.1440351619
 20
0.9685101472
 30
0.0
 11
-2.1810949076
 21
0.9748688095
 31
0.0
  0
LINE
  5
43D
330
1F
100
AcDbEntity
  8
0
  6
Continuous
 62
     7
370
    25
100
AcDbLine
 10
-2.1827497828
 20
0.976673899
 30
0.0
 11
-2.1912858798
 21
1.0790978881
 31
0.0
  0
LINE
  5
43E
330
1F
100
AcDbEntity
  8
0
  6
Continuous
 62
     7
370
    25
100
AcDbLine
 10
-2.2012151311
 20
1.089928425
 30
0.0
 11
-2.2415486637
 21
1.0968487994
 31
0.0
  0
LINE
  5
43F
330
1F
100
AcDbEntity
  8
0
  6
Continuous
 62
     7
370
    25
100
AcDbLine
 10
-2.2545203083
 20
1.0899475681
 30
0.0
 11
-2.2967106049
 21
0.9962271468
 31
0.0
  0
LINE
  5
440
330
1F
100
AcDbEntity
  8
0
  6
Continuous
 62
     7
370
    25
100
AcDbLine
 10
-2.2988725457
 20
0.9950769415
 30
0.0
 11
-2.3359322914
 21
1.0014356039
 31
0.0
  0
LINE
  5
441
330
1F
100
AcDbEntity
  8
0
  6
Continuous
 62
     7
370
    25
100
AcDbLine
 10
-2.3375871666
 20
1.0032406934
 30
0.0
 11
-2.3461232637
 21
1.1056646825
 31
0.0
  0
LINE
  5
442
330
1F
100
AcDbEntity
  8
0
  6
Continuous
 62
     7
370
    25
100
AcDbLine
 10
-2.3560525149
 20
1.1164952193
 30
0.0
 11
-2.3963860475
 21
1.1234155937
 31
0.0
  0
LINE
  5
443
330
1F
100
AcDbEntity
  8
0
  6
Continuous
 62
     7
370
    25
100
AcDbLine
 10
-2.4093576922
 20
1.1165143624
 30
0.0
 11
-2.4515479888
 21
1.0227939411
 31
0.0
  0
LINE
  5
444
330
1F
100
AcDbEntity
  8
0
  6
Continuous
 62
     7
370
    25
100
AcDbLine
 10
-2.4537099296
 20
1.0216437359
 30
0.0
 11
-2.4907696753
 21
1.0280023983
 31
0.0
  0
LINE
  5
445
330
1F
100
AcDbEntity
  8
0
  6
Continuous
 62
     7
370
    25
100
AcDbLine
 10
-2.4924245505
 20
1.0298074877
 30
0.0
 11
-2.5009606475
 21
1.1322314768
 31
0.0
  0
LINE
  5
446
330
1F
100
AcDbEntity
  8
0
  6
Continuous
 62
     7
370
    25
100
AcDbLine
 10
-2.5108898988
 20
1.1430620137
 30
0.0
 11
-2.5512234314
 21
1.1499823881
 31
0.0
  0
LINE
  5
447
330
1F
100
AcDbEntity
  8
0
  6
Continuous
 62
     7
370
    25
100
AcDbLine
 10
-2.564195076
 20
1.1430811568
 30
0.0
 11
-2.6063853726
 21
1.0493607355
 31
0.0
  0
LINE
  5
448
330
1F
100
AcDbEntity
  8
0
  6
Continuous
 62
     7
370
    25
100
AcDbLine
 10
-2.6085473134
 20
1.0482105303
 30
0.0
 11
-2.6456070591
 21
1.0545691926
 31
0.0
  0
LINE
  5
449
330
1F
100
AcDbEntity
  8
0
  6
Continuous
 62
     7
370
    25
100
AcDbLine
 10
-2.6472619343
 20
1.0563742821
 30
0.0
 11
-2.6557980314
 21
1.1587982712
 31
0.0
  0
LINE
  5
44A
330
1F
100
AcDbEntity
  8
0
  6
Continuous
 62
     7
370
    25
100
AcDbLine
 10
-2.6657272826
 20
1.1696288081
 30
0.0
 11
-2.7060608152
 21
1.1765491825
 31
0.0
  0
LINE
  5
44B
330
1F
100
AcDbEntity
  8
0
  6
Continuous
 62
     7
370
    25
100
AcDbLine
 10
-2.7190324599
 20
1.1696479512
 30
0.0
 11
-2.7612227565
 21
1.0759275299
 31
0.0
  0
LINE
  5
44C
330
1F
100
AcDbEntity
  8
0
  6
Continuous
 62
     7
370
    25
100
AcDbLine
 10
-2.7633846973
 20
1.0747773246
 30
0.0
 11
-2.800444443
 21
1.081135987
 31
0.0
  0
LINE
  5
44D
330
1F
100
AcDbEntity
  8
0
  6
Continuous
 62
     7
370
    25
100
AcDbLine
 10
-2.8020993182
 20
1.0829410765
 30
0.0
 11
-2.8106354152
 21
1.1853650656
 31
0.0
  0
LINE
  5
44E
330
1F
100
AcDbEntity
  8
0
  6
Continuous
 62
     7
370
    25
100
AcDbLine
 10
-2.8205646665
 20
1.1961956024
 30
0.0
 11
-2.8608981991
 21
1.2031159768
 31
0.0
  0
LINE
  5
44F
330
1F
100
AcDbEntity
  8
0
  6
Continuous
 62
     7
370
    25
100
AcDbLine
 10
-2.8738698437
 20
1.1962147455
 30
0.0
 11
-2.9160601403
 21
1.1024943242
 31
0.0
  0
LINE
  5
450
330
1F
100
AcDbEntity
  8
0
  6
Continuous
 62
     7
370
    25
100
AcDbLine
 10
-2.9182220811
 20
1.101344119
 30
0.0
 11
-2.9552818268
 21
1.1077027814
 31
0.0
  0
LINE
  5
451
330
1F
100
AcDbEntity
  8
0
  6
Continuous
 62
     7
370
    25
100
AcDbLine
 10
-2.956936702
 20
1.1095078708
 30
0.0
 11
-2.9654727991
 21
1.2119318599
 31
0.0
  0
LINE
  5
452
330
1F
100
AcDbEntity
  8
0
  6
Continuous
 62
     7
370
    25
100
AcDbLine
 10
-2.9754020503
 20
1.2227623968
 30
0.0
 11
-3.0157355829
 21
1.2296827712
 31
0.0
  0
LINE
  5
453
330
1F
100
AcDbEntity
  8
0
  6
Continuous
 62
     7
370
    25
100
AcDbLine
 10
-3.0287072276
 20
1.2227815399
 30
0.0
 11
-3.0708975242
 21
1.1290611186
 31
0.0
  0
LINE
  5
454
330
1F
100
AcDbEntity
  8
0
  6
Continuous
 62
     7
370
    25
100
AcDbLine
 10
-3.073059465
 20
1.1279109134
 30
0.0
 11
-3.1101192107
 21
1.1342695757
 31
0.0
  0
LINE
  5
455
330
1F
100
AcDbEntity
  8
0
  6
Continuous
 62
     7
370
    25
100
AcDbLine
 10
-3.1117740859
 20
1.1360746652
 30
0.0
 11
-3.1203101829
 21
1.2384986543
 31
0.0
  0
LINE
  5
456
330
1F
100
AcDbEntity
  8
0
  6
Continuous
 62
     7
370
    25
100
AcDbLine
 10
-3.1302394342
 20
1.2493291911
 30
0.0
 11
-3.1705729668
 21
1.2562495655
 31
0.0
  0
LINE
  5
457
330
1F
100
AcDbEntity
  8
0
  6
Continuous
 62
     7
370
    25
100
AcDbLine
 10
-3.1835446114
 20
1.2493483342
 30
0.0
 11
-3.225734908
 21
1.1556279129
 31
0.0
  0
LINE
  5
458
330
1F
100
AcDbEntity
  8
0
  6
Continuous
 62
     7
370
    25
100
AcDbLine
 10
-3.2278968488
 20
1.1544777077
 30
0.0
 11
-3.2649565945
 21
1.1608363701
 31
0.0
  0
LINE
  5
459
330
1F
100
AcDbEntity
  8
0
  6
Continuous
 62
     7
370
    25
100
AcDbLine
 10
-3.2666114697
 20
1.1626414596
 30
0.0
 11
-3.2751475668
 21
1.2650654487
 31
0.0
  0
LINE
  5
45A
330
1F
100
AcDbEntity
  8
0
  6
Continuous
 62
     7
370
    25
100
AcDbLine
 10
-3.285076818
 20
1.2758959855
 30
0.0
 11
-3.3254103506
 21
1.2828163599
 31
0.0
  0
LINE
  5
45B
330
1F
100
AcDbEntity
  8
0
  6
Continuous
 62
     7
370
    25
100
AcDbLine
 10
-3.3383819953
 20
1.2759151286
 30
0.0
 11
-3.3805722919
 21
1.1821947073
 31
0.0
  0
LINE
  5
45C
330
1F
100
AcDbEntity
  8
0
  6
Continuous
 62
     7
370
    25
100
AcDbLine
 10
-3.3827342327
 20
1.1810445021
 30
0.0
 11
-3.4197939784
 21
1.1874031644
 31
0.0
  0
LINE
  5
45D
330
1F
100
AcDbEntity
  8
0
  6
Continuous
 62
     7
370
    25
100
AcDbLine
 10
-3.4214488536
 20
1.1892082539
 30
0.0
 11
-3.4299849506
 21
1.291632243
 31
0.0
  0
LINE
  5
45E
330
1F
100
AcDbEntity
  8
0
  6
Continuous
 62
     7
370
    25
100
AcDbLine
 10
-3.4399142019
 20
1.3024627799
 30
0.0
 11
-3.4802477345
 21
1.3093831543
 31
0.0
  0
LINE
  5
45F
330
1F
100
AcDbEntity
  8
0
  6
Continuous
 62
     7
370
    25
100
AcDbLine
 10
-3.4932193791
 20
1.302481923
 30
0.0
 11
-3.5354096757
 21
1.2087615017
 31
0.0
  0
LINE
  5
460
330
1F
100
AcDbEntity
  8
0
  6
Continuous
 62
     7
370
    25
100
AcDbLine
 10
-3.5375716165
 20
1.2076112964
 30
0.0
 11
-3.5746313622
 21
1.2139699588
 31
0.0
  0
LINE
  5
461
330
1F
100
AcDbEntity
  8
0
  6
Continuous
 62
     7
370
    25
100
AcDbLine
 10
-3.5762862374
 20
1.2157750483
 30
0.0
 11
-3.5848223345
 21
1.3181990374
 31
0.0
  0
LINE
  5
462
330
1F
100
AcDbEntity
  8
0
  6
Continuous
 62
     7
370
    25
100
AcDbLine
 10
-3.5947515857
 20
1.3290295742
 30
0.0
 11
-3.6350851183
 21
1.3359499486
 31
0.0
  0
LINE
  5
463
330
1F
100
AcDbEntity
  8
0
  6
Continuous
 62
     7
370
    25
100
AcDbLine
 10
-3.648056763
 20
1.3290487173
 30
0.0
 11
-3.6902470596
 21
1.235328296
 31
0.0
  0
LINE
  5
464
330
1F
100
AcDbEntity
  8
0
  6
Continuous
 62
     7
370
    25
100
AcDbLine
 10
-3.6924090003
 20
1.2341780908
 30
0.0
 11
-3.7294687461
 21
1.2405367532
 31
0.0
  0
LINE
  5
465
330
1F
100
AcDbEntity
  8
0
  6
Continuous
 62
     7
370
    25
100
AcDbLine
 10
-3.7311236213
 20
1.2423418426
 30
0.0
 11
-3.7396597183
 21
1.3447658317
 31
0.0
  0
LINE
  5
466
330
1F
100
AcDbEntity
  8
0
  6
Continuous
 62
     7
370
    25
100
AcDbLine
 10
-3.7495889696
 20
1.3555963686
 30
0.0
 11
-3.7899225022
 21
1.362516743
 31
0.0
  0
LINE
  5
467
330
1F
100
AcDbEntity
  8
0
  6
Continuous
 62
     7
370
    25
100
AcDbLine
 10
-3.8028941468
 20
1.3556155117
 30
0.0
 11
-3.8450844434
 21
1.2618950904
 31
0.0
  0
LINE
  5
468
330
1F
100
AcDbEntity
  8
0
  6
Continuous
 62
     7
370
    25
100
AcDbLine
 10
-3.8472463842
 20
1.2607448852
 30
0.0
 11
-3.8843061299
 21
1.2671035475
 31
0.0
  0
LINE
  5
469
330
1F
100
AcDbEntity
  8
0
  6
Continuous
 62
     7
370
    25
100
AcDbLine
 10
-3.8859610051
 20
1.268908637
 30
0.0
 11
-3.8944971022
 21
1.3713326261
 31
0.0
  0
LINE
  5
46A
330
1F
100
AcDbEntity
  8
0
  6
Continuous
 62
     7
370
    25
100
AcDbLine
 10
-3.9044263534
 20
1.382163163
 30
0.0
 11
-3.944759886
 21
1.3890835374
 31
0.0
  0
LINE
  5
46B
330
1F
100
AcDbEntity
  8
0
  6
Continuous
 62
     7
370
    25
100
AcDbLine
 10
-3.9577315307
 20
1.3821823061
 30
0.0
 11
-3.9999218273
 21
1.2884618848
 31
0.0
  0
LINE
  5
46C
330
1F
100
AcDbEntity
  8
0
  6
Continuous
 62
     7
370
    25
100
AcDbLine
 10
-4.002083768
 20
1.2873116795
 30
0.0
 11
-4.0391435138
 21
1.2936703419
 31
0.0
  0
LINE
  5
46D
330
1F
100
AcDbEntity
  8
0
  6
Continuous
 62
     7
370
    25
100
AcDbLine
 10
-4.040798389
 20
1.2954754314
 30
0.0
 11
-4.049334486
 21
1.3978994205
 31
0.0
  0
LINE
  5
46E
330
1F
100
AcDbEntity
  8
0
  6
Continuous
 62
     7
370
    25
100
AcDbLine
 10
-4.0592637373
 20
1.4087299573
 30
0.0
 11
-4.0995972699
 21
1.4156503317
 31
0.0
  0
LINE
  5
46F
330
1F
100
AcDbEntity
  8
0
  6
Continuous
 62
     7
370
    25
100
AcDbLine
 10
-4.1125689145
 20
1.4087491004
 30
0.0
 11
-4.1547592111
 21
1.3150286791
 31
0.0
  0
LINE
  5
470
330
1F
100
AcDbEntity
  8
0
  6
Continuous
 62
     7
370
    25
100
AcDbLine
 10
-4.1569211519
 20
1.3138784739
 30
0.0
 11
-4.1939808976
 21
1.3202371363
 31
0.0
  0
LINE
  5
471
330
1F
100
AcDbEntity
  8
0
  6
Continuous
 62
     7
370
    25
100
AcDbLine
 10
-4.1956357728
 20
1.3220422257
 30
0.0
 11
-4.2041718699
 21
1.4244662148
 31
0.0
  0
LINE
  5
472
330
1F
100
AcDbEntity
  8
0
  6
Continuous
 62
     7
370
    25
100
AcDbLine
 10
-4.2141011211
 20
1.4352967517
 30
0.0
 11
-4.2544346537
 21
1.4422171261
 31
0.0
  0
LINE
  5
473
330
1F
100
AcDbEntity
  8
0
  6
Continuous
 62
     7
370
    25
100
AcDbLine
 10
-4.2674062984
 20
1.4353158948
 30
0.0
 11
-4.309596595
 21
1.3415954735
 31
0.0
  0
LINE
  5
474
330
1F
100
AcDbEntity
  8
0
  6
Continuous
 62
     7
370
    25
100
AcDbLine
 10
-4.3117585357
 20
1.3404452683
 30
0.0
 11
-4.3488182815
 21
1.3468039306
 31
0.0
  0
LINE
  5
475
330
1F
100
AcDbEntity
  8
0
  6
Continuous
 62
     7
370
    25
100
AcDbLine
 10
-4.3504731567
 20
1.3486090201
 30
0.0
 11
-4.3590092537
 21
1.4510330092
 31
0.0
  0
LINE
  5
476
330
1F
100
AcDbEntity
  8
0
  6
Continuous
 62
     7
370
    25
100
AcDbLine
 10
-4.3689385049
 20
1.461863546
 30
0.0
 11
-4.4092720376
 21
1.4687839204
 31
0.0
  0
LINE
  5
477
330
1F
100
AcDbEntity
  8
0
  6
Continuous
 62
     7
370
    25
100
AcDbLine
 10
-4.4222436822
 20
1.4618826891
 30
0.0
 11
-4.4644339788
 21
1.3681622678
 31
0.0
  0
LINE
  5
478
330
1F
100
AcDbEntity
  8
0
  6
Continuous
 62
     7
370
    25
100
AcDbLine
 10
-4.4665959196
 20
1.3670120626
 30
0.0
 11
-4.5036556653
 21
1.373370725
 31
0.0
  0
LINE
  5
479
330
1F
100
AcDbEntity
  8
0
  6
Continuous
 62
     7
370
    25
100
AcDbLine
 10
-4.5053105405
 20
1.3751758145
 30
0.0
 11
-4.5138466376
 21
1.4775998036
 31
0.0
  0
LINE
  5
47A
330
1F
100
AcDbEntity
  8
0
  6
Continuous
 62
     7
370
    25
100
AcDbLine
 10
-4.5237758888
 20
1.4884303404
 30
0.0
 11
-4.5641094214
 21
1.4953507148
 31
0.0
  0
LINE
  5
47B
330
1F
100
AcDbEntity
  8
0
  6
Continuous
 62
     7
370
    25
100
AcDbLine
 10
-4.5770810661
 20
1.4884494835
 30
0.0
 11
-4.6192713627
 21
1.3947290622
 31
0.0
  0
LINE
  5
47C
330
1F
100
AcDbEntity
  8
0
  6
Continuous
 62
     7
370
    25
100
AcDbLine
 10
-4.6214333034
 20
1.393578857
 30
0.0
 11
-4.6584930492
 21
1.3999375193
 31
0.0
  0
LINE
  5
47D
330
1F
100
AcDbEntity
  8
0
  6
Continuous
 62
     7
370
    25
100
AcDbLine
 10
-4.6601479244
 20
1.4017426088
 30
0.0
 11
-4.6686840214
 21
1.5041665979
 31
0.0
  0
LINE
  5
47E
330
1F
100
AcDbEntity
  8
0
  6
Continuous
 62
     7
370
    25
100
AcDbLine
 10
-4.6786132726
 20
1.5149971348
 30
0.0
 11
-4.7189468053
 21
1.5219175092
 31
0.0
  0
LINE
  5
47F
330
1F
100
AcDbEntity
  8
0
  6
Continuous
 62
     7
370
    25
100
AcDbLine
 10
-4.7319184499
 20
1.5150162779
 30
0.0
 11
-4.7741087465
 21
1.4212958566
 31
0.0
  0
LINE
  5
480
330
1F
100
AcDbEntity
  8
0
  6
Continuous
 62
     7
370
    25
100
AcDbLine
 10
-4.7762706873
 20
1.4201456514
 30
0.0
 11
-4.813330433
 21
1.4265043137
 31
0.0
  0
LINE
  5
481
330
1F
100
AcDbEntity
  8
0
  6
Continuous
 62
     7
370
    25
100
AcDbLine
 10
-4.8149853082
 20
1.4283094032
 30
0.0
 11
-4.8235214053
 21
1.5307333923
 31
0.0
  0
LINE
  5
482
330
1F
100
AcDbEntity
  8
0
  6
Continuous
 62
     7
370
    25
100
AcDbLine
 10
-4.8334506565
 20
1.5415639291
 30
0.0
 11
-4.8737841891
 21
1.5484843035
 31
0.0
  0
LINE
  5
483
330
1F
100
AcDbEntity
  8
0
  6
Continuous
 62
     7
370
    25
100
AcDbLine
 10
-4.8867558338
 20
1.5415830722
 30
0.0
 11
-4.9289461304
 21
1.4478626509
 31
0.0
  0
LINE
  5
484
330
1F
100
AcDbEntity
  8
0
  6
Continuous
 62
     7
370
    25
100
AcDbLine
 10
-4.9311080711
 20
1.4467124457
 30
0.0
 11
-4.9681678169
 21
1.4530711081
 31
0.0
  0
LINE
  5
485
330
1F
100
AcDbEntity
  8
0
  6
Continuous
 62
     7
370
    25
100
AcDbLine
 10
-4.9698226921
 20
1.4548761975
 30
0.0
 11
-4.9783587891
 21
1.5573001866
 31
0.0
  0
LINE
  5
486
330
1F
100
AcDbEntity
  8
0
  6
Continuous
 62
     7
370
    25
100
AcDbLine
 10
-4.9882880403
 20
1.5681307235
 30
0.0
 11
-5.028621573
 21
1.5750510979
 31
0.0
  0
LINE
  5
487
330
1F
100
AcDbEntity
  8
0
  6
Continuous
 62
     7
370
    25
100
AcDbLine
 10
-5.0415932176
 20
1.5681498666
 30
0.0
 11
-5.0837835142
 21
1.4744294453
 31
0.0
  0
LINE
  5
488
330
1F
100
AcDbEntity
  8
0
  6
Continuous
 62
     7
370
    25
100
AcDbLine
 10
-5.085945455
 20
1.4732792401
 30
0.0
 11
-5.1230052007
 21
1.4796379024
 31
0.0
  0
LINE
  5
489
330
1F
100
AcDbEntity
  8
0
  6
Continuous
 62
     7
370
    25
100
AcDbLine
 10
-5.1246600759
 20
1.4814429919
 30
0.0
 11
-5.133196173
 21
1.583866981
 31
0.0
  0
LINE
  5
48A
330
1F
100
AcDbEntity
  8
0
  6
Continuous
 62
     7
370
    25
100
AcDbLine
 10
-5.1431254242
 20
1.5946975179
 30
0.0
 11
-5.1834589568
 21
1.6016178923
 31
0.0
  0
LINE
  5
48B
330
1F
100
AcDbEntity
  8
0
  6
Continuous
 62
     7
370
    25
100
AcDbLine
 10
-5.1964306015
 20
1.594716661
 30
0.0
 11
-5.2386208981
 21
1.5009962397
 31
0.0
  0
LINE
  5
48C
330
1F
100
AcDbEntity
  8
0
  6
Continuous
 62
     7
370
    25
100
AcDbLine
 10
-5.2407828388
 20
1.4998460344
 30
0.0
 11
-5.2778425846
 21
1.5062046968
 31
0.0
  0
LINE
  5
48D
330
1F
100
AcDbEntity
  8
0
  6
Continuous
 62
     7
370
    25
100
AcDbLine
 10
-5.2794974598
 20
1.5080097863
 30
0.0
 11
-5.2880335568
 21
1.6104337754
 31
0.0
  0
LINE
  5
48E
330
1F
100
AcDbEntity
  8
0
  6
Continuous
 62
     7
370
    25
100
AcDbLine
 10
-5.297962808
 20
1.6212643122
 30
0.0
 11
-5.3382963407
 21
1.6281846866
 31
0.0
  0
LINE
  5
48F
330
1F
100
AcDbEntity
  8
0
  6
Continuous
 62
     7
370
    25
100
AcDbLine
 10
-5.3512679853
 20
1.6212834553
 30
0.0
 11
-5.3934582819
 21
1.527563034
 31
0.0
  0
LINE
  5
490
330
1F
100
AcDbEntity
  8
0
  6
Continuous
 62
     7
370
    25
100
AcDbLine
 10
-5.3956202227
 20
1.5264128288
 30
0.0
 11
-5.4326799684
 21
1.5327714912
 31
0.0
  0
LINE
  5
491
330
1F
100
AcDbEntity
  8
0
  6
Continuous
 62
     7
370
    25
100
AcDbLine
 10
-5.4343348436
 20
1.5345765806
 30
0.0
 11
-5.4428709406
 21
1.6370005697
 31
0.0
  0
LINE
  5
492
330
1F
100
AcDbEntity
  8
0
  6
Continuous
 62
     7
370
    25
100
AcDbLine
 10
-5.4528001919
 20
1.6478311066
 30
0.0
 11
-5.4931337245
 21
1.654751481
 31
0.0
  0
LINE
  5
493
330
1F
100
AcDbEntity
  8
0
  6
Continuous
 62
     7
370
    25
100
AcDbLine
 10
-5.5061053692
 20
1.6478502497
 30
0.0
 11
-5.5482956658
 21
1.5541298284
 31
0.0
  0
LINE
  5
494
330
1F
100
AcDbEntity
  8
0
  6
Continuous
 62
     7
370
    25
100
AcDbLine
 10
-5.5504576065
 20
1.5529796232
 30
0.0
 11
-5.5875173523
 21
1.5593382855
 31
0.0
  0
LINE
  5
495
330
1F
100
AcDbEntity
  8
0
  6
Continuous
 62
     7
370
    25
100
AcDbLine
 10
-5.5891722275
 20
1.561143375
 30
0.0
 11
-5.5977083245
 21
1.6635673641
 31
0.0
  0
LINE
  5
496
330
1F
100
AcDbEntity
  8
0
  6
Continuous
 62
     7
370
    25
100
AcDbLine
 10
-5.6076375757
 20
1.674397901
 30
0.0
 11
-5.6479711084
 21
1.6813182754
 31
0.0
  0
LINE
  5
497
330
1F
100
AcDbEntity
  8
0
  6
Continuous
 62
     7
370
    25
100
AcDbLine
 10
-5.660942753
 20
1.6744170441
 30
0.0
 11
-5.7031330496
 21
1.5806966227
 31
0.0
  0
LINE
  5
498
330
1F
100
AcDbEntity
  8
0
  6
Continuous
 62
     7
370
    25
100
AcDbLine
 10
-5.7052949904
 20
1.5795464175
 30
0.0
 11
-5.7423547361
 21
1.5859050799
 31
0.0
  0
LINE
  5
499
330
1F
100
AcDbEntity
  8
0
  6
Continuous
 62
     7
370
    25
100
AcDbLine
 10
-5.7440096113
 20
1.5877101694
 30
0.0
 11
-5.7525457083
 21
1.6901341585
 31
0.0
  0
LINE
  5
49A
330
1F
100
AcDbEntity
  8
0
  6
Continuous
 62
     7
370
    25
100
AcDbLine
 10
-5.7624749596
 20
1.7009646953
 30
0.0
 11
-5.8028084922
 21
1.7078850697
 31
0.0
  0
LINE
  5
49B
330
1F
100
AcDbEntity
  8
0
  6
Continuous
 62
     7
370
    25
100
AcDbLine
 10
-5.8157801369
 20
1.7009838384
 30
0.0
 11
-5.8579704335
 21
1.6072634171
 31
0.0
  0
LINE
  5
49C
330
1F
100
AcDbEntity
  8
0
  6
Continuous
 62
     7
370
    25
100
AcDbLine
 10
-5.8601323742
 20
1.6061132119
 30
0.0
 11
-5.89719212
 21
1.6124718743
 31
0.0
  0
LINE
  5
49D
330
1F
100
AcDbEntity
  8
0
  6
Continuous
 62
     7
370
    25
100
AcDbLine
 10
-5.8988469952
 20
1.6142769637
 30
0.0
 11
-5.9073830922
 21
1.7167009528
 31
0.0
  0
LINE
  5
49E
330
1F
100
AcDbEntity
  8
0
  6
Continuous
 62
     7
370
    25
100
AcDbLine
 10
-5.9173123434
 20
1.7275314897
 30
0.0
 11
-5.9576458761
 21
1.7344518641
 31
0.0
  0
LINE
  5
49F
330
1F
100
AcDbEntity
  8
0
  6
Continuous
 62
     7
370
    25
100
AcDbLine
 10
-5.9706175207
 20
1.7275506328
 30
0.0
 11
-6.0128078173
 21
1.6338302115
 31
0.0
  0
LINE
  5
4A0
330
1F
100
AcDbEntity
  8
0
  6
Continuous
 62
     7
370
    25
100
AcDbLine
 10
-6.0149697581
 20
1.6326800063
 30
0.0
 11
-6.0520295038
 21
1.6390386686
 31
0.0
  0
LINE
  5
4A1
330
1F
100
AcDbEntity
  8
0
  6
Continuous
 62
     7
370
    25
100
AcDbLine
 10
-6.053684379
 20
1.6408437581
 30
0.0
 11
-6.062220476
 21
1.7432677472
 31
0.0
  0
LINE
  5
4A2
330
1F
100
AcDbEntity
  8
0
  6
Continuous
 62
     7
370
    25
100
AcDbLine
 10
-6.0721497273
 20
1.754098284
 30
0.0
 11
-6.1124832599
 21
1.7610186584
 31
0.0
  0
LINE
  5
4A3
330
1F
100
AcDbEntity
  8
0
  6
Continuous
 62
     7
370
    25
100
AcDbLine
 10
-6.1254549046
 20
1.7541174271
 30
0.0
 11
-6.1676452012
 21
1.6603970058
 31
0.0
  0
LINE
  5
4A4
330
1F
100
AcDbEntity
  8
0
  6
Continuous
 62
     7
370
    25
100
AcDbLine
 10
-6.1698071419
 20
1.6592468006
 30
0.0
 11
-6.2068668877
 21
1.665605463
 31
0.0
  0
LINE
  5
4A5
330
1F
100
AcDbEntity
  8
0
  6
Continuous
 62
     7
370
    25
100
AcDbLine
 10
-6.2085217629
 20
1.6674105525
 30
0.0
 11
-6.2170578599
 21
1.7698345416
 31
0.0
  0
LINE
  5
4A6
330
1F
100
AcDbEntity
  8
0
  6
Continuous
 62
     7
370
    25
100
AcDbLine
 10
-6.2269871111
 20
1.7806650784
 30
0.0
 11
-6.2673206438
 21
1.7875854528
 31
0.0
  0
LINE
  5
4A7
330
1F
100
AcDbEntity
  8
0
  6
Continuous
 62
     7
370
    25
100
AcDbLine
 10
-6.2802922884
 20
1.7806842215
 30
0.0
 11
-6.322482585
 21
1.6869638002
 31
0.0
  0
LINE
  5
4A8
330
1F
100
AcDbEntity
  8
0
  6
Continuous
 62
     7
370
    25
100
AcDbLine
 10
-6.3246445258
 20
1.685813595
 30
0.0
 11
-6.3617042715
 21
1.6921722573
 31
0.0
  0
LINE
  5
4A9
330
1F
100
AcDbEntity
  8
0
  6
Continuous
 62
     7
370
    25
100
AcDbLine
 10
-6.3633591467
 20
1.6939773468
 30
0.0
 11
-6.3718952437
 21
1.7964013359
 31
0.0
  0
LINE
  5
4AA
330
1F
100
AcDbEntity
  8
0
  6
Continuous
 62
     7
370
    25
100
AcDbLine
 10
-6.381824495
 20
1.8072318728
 30
0.0
 11
-6.4221580276
 21
1.8141522472
 31
0.0
  0
LINE
  5
4AB
330
1F
100
AcDbEntity
  8
0
  6
Continuous
 62
     7
370
    25
100
AcDbLine
 10
-6.4351296723
 20
1.8072510159
 30
0.0
 11
-6.4773199689
 21
1.7135305946
 31
0.0
  0
LINE
  5
4AC
330
1F
100
AcDbEntity
  8
0
  6
Continuous
 62
     7
370
    25
100
AcDbLine
 10
-6.4794819096
 20
1.7123803893
 30
0.0
 11
-6.5165416554
 21
1.7187390517
 31
0.0
  0
LINE
  5
4AD
330
1F
100
AcDbEntity
  8
0
  6
Continuous
 62
     7
370
    25
100
AcDbLine
 10
-6.5181965306
 20
1.7205441412
 30
0.0
 11
-6.5267326276
 21
1.8229681303
 31
0.0
  0
LINE
  5
4AE
330
1F
100
AcDbEntity
  8
0
  6
Continuous
 62
     7
370
    25
100
AcDbLine
 10
-6.5366618788
 20
1.8337986671
 30
0.0
 11
-6.5769954115
 21
1.8407190415
 31
0.0
  0
LINE
  5
4AF
330
1F
100
AcDbEntity
  8
0
  6
Continuous
 62
     7
370
    25
100
AcDbLine
 10
-6.5899670561
 20
1.8338178102
 30
0.0
 11
-6.6321573527
 21
1.7400973889
 31
0.0
  0
LINE
  5
4B0
330
1F
100
AcDbEntity
  8
0
  6
Continuous
 62
     7
370
    25
100
AcDbLine
 10
-6.6343192935
 20
1.7389471837
 30
0.0
 11
-6.6713790392
 21
1.7453058461
 31
0.0
  0
LINE
  5
4B1
330
1F
100
AcDbEntity
  8
0
  6
Continuous
 62
     7
370
    25
100
AcDbLine
 10
-6.6730339144
 20
1.7471109355
 30
0.0
 11
-6.6815700114
 21
1.8495349246
 31
0.0
  0
LINE
  5
4B2
330
1F
100
AcDbEntity
  8
0
  6
Continuous
 62
     7
370
    25
100
AcDbLine
 10
-6.6914992627
 20
1.8603654615
 30
0.0
 11
-6.7318327953
 21
1.8672858359
 31
0.0
  0
LINE
  5
4B3
330
1F
100
AcDbEntity
  8
0
  6
Continuous
 62
     7
370
    25
100
AcDbLine
 10
-6.74480444
 20
1.8603846046
 30
0.0
 11
-6.7869947366
 21
1.7666641833
 31
0.0
  0
LINE
  5
4B4
330
1F
100
AcDbEntity
  8
0
  6
Continuous
 62
     7
370
    25
100
AcDbLine
 10
-6.7891566773
 20
1.7655139781
 30
0.0
 11
-6.8262164231
 21
1.7718726404
 31
0.0
  0
LINE
  5
4B5
330
1F
100
AcDbEntity
  8
0
  6
Continuous
 62
     7
370
    25
100
AcDbLine
 10
-6.8278712983
 20
1.7736777299
 30
0.0
 11
-6.8364073953
 21
1.876101719
 31
0.0
  0
LINE
  5
4B6
330
1F
100
AcDbEntity
  8
0
  6
Continuous
 62
     7
370
    25
100
AcDbLine
 10
-6.8463366465
 20
1.8869322559
 30
0.0
 11
-6.8866701792
 21
1.8938526303
 31
0.0
  0
LINE
  5
4B7
330
1F
100
AcDbEntity
  8
0
  6
Continuous
 62
     7
370
    25
100
AcDbLine
 10
-6.8996418238
 20
1.886951399
 30
0.0
 11
-6.9418321204
 21
1.7932309777
 31
0.0
  0
LINE
  5
4B8
330
1F
100
AcDbEntity
  8
0
  6
Continuous
 62
     7
370
    25
100
AcDbLine
 10
-6.9439940612
 20
1.7920807724
 30
0.0
 11
-6.9810538069
 21
1.7984394348
 31
0.0
  0
LINE
  5
4B9
330
1F
100
AcDbEntity
  8
0
  6
Continuous
 62
     7
370
    25
100
AcDbLine
 10
-6.9827086821
 20
1.8002445243
 30
0.0
 11
-6.9912447791
 21
1.9026685134
 31
0.0
  0
LINE
  5
4BA
330
1F
100
AcDbEntity
  8
0
  6
Continuous
 62
     7
370
    25
100
AcDbLine
 10
-7.0011740304
 20
1.9134990502
 30
0.0
 11
-7.041507563
 21
1.9204194246
 31
0.0
  0
LINE
  5
4BB
330
1F
100
AcDbEntity
  8
0
  6
Continuous
 62
     7
370
    25
100
AcDbLine
 10
-7.0544792077
 20
1.9135181933
 30
0.0
 11
-7.0966695043
 21
1.819797772
 31
0.0
  0
LINE
  5
4BC
330
1F
100
AcDbEntity
  8
0
  6
Continuous
 62
     7
370
    25
100
AcDbLine
 10
-7.098831445
 20
1.8186475668
 30
0.0
 11
-7.1358911908
 21
1.8250062292
 31
0.0
  0
LINE
  5
4BD
330
1F
100
AcDbEntity
  8
0
  6
Continuous
 62
     7
370
    25
100
AcDbLine
 10
-7.137546066
 20
1.8268113186
 30
0.0
 11
-7.146082163
 21
1.9292353077
 31
0.0
  0
LINE
  5
4BE
330
1F
100
AcDbEntity
  8
0
  6
Continuous
 62
     7
370
    25
100
AcDbLine
 10
-7.1560114142
 20
1.9400658446
 30
0.0
 11
-7.1963449469
 21
1.946986219
 31
0.0
  0
LINE
  5
4BF
330
1F
100
AcDbEntity
  8
0
  6
Continuous
 62
     7
370
    25
100
AcDbLine
 10
-7.2093165915
 20
1.9400849877
 30
0.0
 11
-7.2515068881
 21
1.8463645664
 31
0.0
  0
LINE
  5
4C0
330
1F
100
AcDbEntity
  8
0
  6
Continuous
 62
     7
370
    25
100
AcDbLine
 10
-7.2536688289
 20
1.8452143612
 30
0.0
 11
-7.2907285746
 21
1.8515730235
 31
0.0
  0
LINE
  5
4C1
330
1F
100
AcDbEntity
  8
0
  6
Continuous
 62
     7
370
    25
100
AcDbLine
 10
-7.2923834498
 20
1.853378113
 30
0.0
 11
-7.3009195468
 21
1.9558021021
 31
0.0
  0
LINE
  5
4C2
330
1F
100
AcDbEntity
  8
0
  6
Continuous
 62
     7
370
    25
100
AcDbLine
 10
-7.3108487981
 20
1.9666326389
 30
0.0
 11
-7.3511823307
 21
1.9735530133
 31
0.0
  0
LINE
  5
4C3
330
1F
100
AcDbEntity
  8
0
  6
Continuous
 62
     7
370
    25
100
AcDbLine
 10
-7.3641539754
 20
1.966651782
 30
0.0
 11
-7.406344272
 21
1.8729313607
 31
0.0
  0
LINE
  5
4C4
330
1F
100
AcDbEntity
  8
0
  6
Continuous
 62
     7
370
    25
100
AcDbLine
 10
-7.4085062127
 20
1.8717811555
 30
0.0
 11
-7.4455659585
 21
1.8781398179
 31
0.0
  0
LINE
  5
4C5
330
1F
100
AcDbEntity
  8
0
  6
Continuous
 62
     7
370
    25
100
AcDbLine
 10
-7.4472208337
 20
1.8799449074
 30
0.0
 11
-7.4557569307
 21
1.9823688965
 31
0.0
  0
LINE
  5
4C6
330
1F
100
AcDbEntity
  8
0
  6
Continuous
 62
     7
370
    25
100
AcDbLine
 10
-7.4656861819
 20
1.9931994333
 30
0.0
 11
-7.5060197146
 21
2.0001198077
 31
0.0
  0
LINE
  5
4C7
330
1F
100
AcDbEntity
  8
0
  6
Continuous
 62
     7
370
    25
100
AcDbLine
 10
-7.5189913592
 20
1.9932185764
 30
0.0
 11
-7.5611816558
 21
1.8994981551
 31
0.0
  0
LINE
  5
4C8
330
1F
100
AcDbEntity
  8
0
  6
Continuous
 62
     7
370
    25
100
AcDbLine
 10
-7.5633435966
 20
1.8983479499
 30
0.0
 11
-7.6004033423
 21
1.9047066122
 31
0.0
  0
LINE
  5
4C9
330
1F
100
AcDbEntity
  8
0
  6
Continuous
 62
     7
370
    25
100
AcDbLine
 10
-7.6020582175
 20
1.9065117017
 30
0.0
 11
-7.6105943145
 21
2.0089356908
 31
0.0
  0
LINE
  5
4CA
330
1F
100
AcDbEntity
  8
0
  6
Continuous
 62
     7
370
    25
100
AcDbLine
 10
-7.6205235658
 20
2.0197662277
 30
0.0
 11
-7.6608570984
 21
2.0266866021
 31
0.0
  0
LINE
  5
4CB
330
1F
100
AcDbEntity
  8
0
  6
Continuous
 62
     7
370
    25
100
AcDbLine
 10
-7.6738287431
 20
2.0197853708
 30
0.0
 11
-7.7160190397
 21
1.9260649495
 31
0.0
  0
LINE
  5
4CC
330
1F
100
AcDbEntity
  8
0
  6
Continuous
 62
     7
370
    25
100
AcDbLine
 10
-7.7181809804
 20
1.9249147443
 30
0.0
 11
-7.7552407262
 21
1.9312734066
 31
0.0
  0
LINE
  5
4CD
330
1F
100
AcDbEntity
  8
0
  6
Continuous
 62
     7
370
    25
100
AcDbLine
 10
-7.7568956014
 20
1.9330784961
 30
0.0
 11
-7.7654316984
 21
2.0355024852
 31
0.0
  0
LINE
  5
4CE
330
1F
100
AcDbEntity
  8
0
  6
Continuous
 62
     7
370
    25
100
AcDbLine
 10
-7.7753609496
 20
2.046333022
 30
0.0
 11
-7.8156944822
 21
2.0532533964
 31
0.0
  0
LINE
  5
4CF
330
1F
100
AcDbEntity
  8
0
  6
Continuous
 62
     7
370
    25
100
AcDbLine
 10
-7.8286661269
 20
2.0463521651
 30
0.0
 11
-7.8708564235
 21
1.9526317438
 31
0.0
  0
LINE
  5
4D0
330
1F
100
AcDbEntity
  8
0
  6
Continuous
 62
     7
370
    25
100
AcDbLine
 10
-7.8730183643
 20
1.9514815386
 30
0.0
 11
-7.91007811
 21
1.957840201
 31
0.0
  0
LINE
  5
4D1
330
1F
100
AcDbEntity
  8
0
  6
Continuous
 62
     7
370
    25
100
AcDbLine
 10
-7.9117329852
 20
1.9596452904
 30
0.0
 11
-7.9202690822
 21
2.0620692795
 31
0.0
  0
LINE
  5
4D2
330
1F
100
AcDbEntity
  8
0
  6
Continuous
 62
     7
370
    25
100
AcDbLine
 10
-7.9301983335
 20
2.0728998164
 30
0.0
 11
-7.9705318661
 21
2.0798201908
 31
0.0
  0
LINE
  5
4D3
330
1F
100
AcDbEntity
  8
0
  6
Continuous
 62
     7
370
    25
100
AcDbLine
 10
-7.9835035108
 20
2.0729189595
 30
0.0
 11
-8.0256938074
 21
1.9791985382
 31
0.0
  0
LINE
  5
4D4
330
1F
100
AcDbEntity
  8
0
  6
Continuous
 62
     7
370
    25
100
AcDbLine
 10
-8.0278557481
 20
1.978048333
 30
0.0
 11
-8.0649154939
 21
1.9844069953
 31
0.0
  0
LINE
  5
4D5
330
1F
100
AcDbEntity
  8
0
  6
Continuous
 62
     7
370
    25
100
AcDbLine
 10
-8.0665703691
 20
1.9862120848
 30
0.0
 11
-8.0751064661
 21
2.0886360739
 31
0.0
  0
LINE
  5
4D6
330
1F
100
AcDbEntity
  8
0
  6
Continuous
 62
     7
370
    25
100
AcDbLine
 10
-8.0850357173
 20
2.0994666108
 30
0.0
 11
-8.1253692499
 21
2.1063869852
 31
0.0
  0
LINE
  5
4D7
330
1F
100
AcDbEntity
  8
0
  6
Continuous
 62
     7
370
    25
100
AcDbLine
 10
-8.1383408946
 20
2.0994857539
 30
0.0
 11
-8.1805311912
 21
2.0057653326
 31
0.0
  0
LINE
  5
4D8
330
1F
100
AcDbEntity
  8
0
  6
Continuous
 62
     7
370
    25
100
AcDbLine
 10
-8.182693132
 20
2.0046151273
 30
0.0
 11
-8.2197528777
 21
2.0109737897
 31
0.0
  0
LINE
  5
4D9
330
1F
100
AcDbEntity
  8
0
  6
Continuous
 62
     7
370
    25
100
AcDbLine
 10
-8.2214077529
 20
2.0127788792
 30
0.0
 11
-8.2299438499
 21
2.1152028683
 31
0.0
  0
LINE
  5
4DA
330
1F
100
AcDbEntity
  8
0
  6
Continuous
 62
     7
370
    25
100
AcDbLine
 10
-8.2398731012
 20
2.1260334051
 30
0.0
 11
-8.2802066338
 21
2.1329537795
 31
0.0
  0
LINE
  5
4DB
330
1F
100
AcDbEntity
  8
0
  6
Continuous
 62
     7
370
    25
100
AcDbLine
 10
-8.2931782785
 20
2.1260525482
 30
0.0
 11
-8.335368575
 21
2.0323321269
 31
0.0
  0
LINE
  5
4DC
330
1F
100
AcDbEntity
  8
0
  6
Continuous
 62
     7
370
    25
100
AcDbLine
 10
-8.3375305158
 20
2.0311819217
 30
0.0
 11
-8.3745902616
 21
2.0375405841
 31
0.0
  0
LINE
  5
4DD
330
1F
100
AcDbEntity
  8
0
  6
Continuous
 62
     7
370
    25
100
AcDbLine
 10
-8.3762451368
 20
2.0393456735
 30
0.0
 11
-8.3847812338
 21
2.1417696626
 31
0.0
  0
LINE
  5
4DE
330
1F
100
AcDbEntity
  8
0
  6
Continuous
 62
     7
370
    25
100
AcDbLine
 10
-8.394710485
 20
2.1526001995
 30
0.0
 11
-8.4350440176
 21
2.1595205739
 31
0.0
  0
LINE
  5
4DF
330
1F
100
AcDbEntity
  8
0
  6
Continuous
 62
     7
370
    25
100
AcDbLine
 10
-8.4480156623
 20
2.1526193426
 30
0.0
 11
-8.4902059589
 21
2.0588989213
 31
0.0
  0
LINE
  5
4E0
330
1F
100
AcDbEntity
  8
0
  6
Continuous
 62
     7
370
    25
100
AcDbLine
 10
-8.4923678997
 20
2.0577487161
 30
0.0
 11
-8.5294276454
 21
2.0641073784
 31
0.0
  0
LINE
  5
4E1
330
1F
100
AcDbEntity
  8
0
  6
Continuous
 62
     7
370
    25
100
AcDbLine
 10
-8.5310825206
 20
2.0659124679
 30
0.0
 11
-8.5396186176
 21
2.168336457
 31
0.0
  0
LINE
  5
4E2
330
1F
100
AcDbEntity
  8
0
  6
Continuous
 62
     7
370
    25
100
AcDbLine
 10
-8.5495478689
 20
2.1791669939
 30
0.0
 11
-8.5898814015
 21
2.1860873682
 31
0.0
  0
LINE
  5
4E3
330
1F
100
AcDbEntity
  8
0
  6
Continuous
 62
     7
370
    25
100
AcDbLine
 10
-8.6028530462
 20
2.1791861369
 30
0.0
 11
-8.6450433427
 21
2.0854657156
 31
0.0
  0
LINE
  5
4E4
330
1F
100
AcDbEntity
  8
0
  6
Continuous
 62
     7
370
    25
100
AcDbLine
 10
-8.6472052835
 20
2.0843155104
 30
0.0
 11
-8.6842650293
 21
2.0906741728
 31
0.0
  0
ARC
  5
4E5
330
1F
100
AcDbEntity
  8
0
  6
Continuous
 62
     7
370
    25
100
AcDbCircle
 10
-7.9846984714
 20
3.010206208
 30
0.0
 40
0.2755905511811028
100
AcDbArc
 50
80.2640664524
 51
260.2640664524
  0
ARC
  5
4E6
330
1F
100
AcDbEntity
  8
0
  6
Continuous
 62
     7
370
    25
100
AcDbCircle
 10
5.2653015286
 20
0.7367886615
 30
0.0
 40
0.2755905511811022
100
AcDbArc
 50
260.2640664524
 51
80.2640664524
  0
ARC
  5
4E7
330
1F
100
AcDbEntity
  8
0
  6
Continuous
 62
     7
370
    25
100
AcDbCircle
 10
-8.6839268142
 20
2.092645368
 30
0.0
 40
0.0019999999999781
100
AcDbArc
 50
184.7640664519
 51
260.2640664526
  0
ARC
  5
4E8
330
1F
100
AcDbEntity
  8
0
  6
Continuous
 62
     7
370
    25
100
AcDbCircle
 10
-8.7064145432
 20
2.1939066169
 30
0.0
 40
0.0120000000000036
100
AcDbArc
 50
4.7640664524
 51
80.2640664524
  0
ARC
  5
4E9
330
1F
100
AcDbEntity
  8
0
  6
Continuous
 62
     7
370
    25
100
AcDbCircle
 10
6.6531241728
 20
0.285
 30
0.0
 40
0.8149999999999968
100
AcDbArc
 50
260.2640664524
 51
0.0
  0
ARC
  5
4EA
330
1F
100
AcDbEntity
  8
0
  6
Continuous
 62
     7
370
    25
100
AcDbCircle
 10
5.8707872676
 20
-0.4046333021
 30
0.0
 40
0.0019999999999744
100
AcDbArc
 50
184.7640664519
 51
260.2640664527
  0
ARC
  5
4EB
330
1F
100
AcDbEntity
  8
0
  6
Continuous
 62
     7
370
    25
100
AcDbCircle
 10
5.8482995386
 20
-0.3033720532
 30
0.0
 40
0.0120000000000046
100
AcDbArc
 50
4.7640664524
 51
80.2640664524
  0
ARC
  5
4EC
330
1F
100
AcDbEntity
  8
0
  6
Continuous
 62
     7
370
    25
100
AcDbCircle
 10
5.807966006
 20
-0.2964516788
 30
0.0
 40
0.0119999999999978
100
AcDbArc
 50
80.2640664524
 51
155.7640664524
  0
ARC
  5
4ED
330
1F
100
AcDbEntity
  8
0
  6
Continuous
 62
     7
370
    25
100
AcDbCircle
 10
5.7530096295
 20
-0.3844251701
 30
0.0
 40
0.0020000000000031
100
AcDbArc
 50
260.2640664525
 51
335.7640664523
  0
ARC
  5
4EE
330
1F
100
AcDbEntity
  8
0
  6
Continuous
 62
     7
370
    25
100
AcDbCircle
 10
5.7159498838
 20
-0.3780665078
 30
0.0
 40
0.0019999999999773
100
AcDbArc
 50
184.764066452
 51
260.2640664527
  0
ARC
  5
4EF
330
1F
100
AcDbEntity
  8
0
  6
Continuous
 62
     7
370
    25
100
AcDbCircle
 10
5.6934621548
 20
-0.2768052588
 30
0.0
 40
0.0120000000000018
100
AcDbArc
 50
4.7640664524
 51
80.2640664524
  0
ARC
  5
4F0
330
1F
100
AcDbEntity
  8
0
  6
Continuous
 62
     7
370
    25
100
AcDbCircle
 10
5.6531286222
 20
-0.2698848844
 30
0.0
 40
0.0119999999999992
100
AcDbArc
 50
80.2640664524
 51
155.7640664524
  0
ARC
  5
4F1
330
1F
100
AcDbEntity
  8
0
  6
Continuous
 62
     7
370
    25
100
AcDbCircle
 10
5.5981722457
 20
-0.3578583758
 30
0.0
 40
0.0020000000000024
100
AcDbArc
 50
260.2640664525
 51
335.7640664524
  0
ARC
  5
4F2
330
1F
100
AcDbEntity
  8
0
  6
Continuous
 62
     7
370
    25
100
AcDbCircle
 10
5.5611124999
 20
-0.3514997134
 30
0.0
 40
0.0019999999999744
100
AcDbArc
 50
184.7640664519
 51
260.2640664527
  0
ARC
  5
4F3
330
1F
100
AcDbEntity
  8
0
  6
Continuous
 62
     7
370
    25
100
AcDbCircle
 10
5.5386247709
 20
-0.2502384645
 30
0.0
 40
0.0120000000000008
100
AcDbArc
 50
4.7640664524
 51
80.2640664524
  0
ARC
  5
4F4
330
1F
100
AcDbEntity
  8
0
  6
Continuous
 62
     7
370
    25
100
AcDbCircle
 10
5.4982912383
 20
-0.2433180901
 30
0.0
 40
0.0119999999999979
100
AcDbArc
 50
80.2640664524
 51
155.7640664524
  0
ARC
  5
4F5
330
1F
100
AcDbEntity
  8
0
  6
Continuous
 62
     7
370
    25
100
AcDbCircle
 10
5.4433348618
 20
-0.3312915814
 30
0.0
 40
0.0020000000000031
100
AcDbArc
 50
260.2640664525
 51
335.7640664523
  0
ARC
  5
4F6
330
1F
100
AcDbEntity
  8
0
  6
Continuous
 62
     7
370
    25
100
AcDbCircle
 10
5.4062751161
 20
-0.324932919
 30
0.0
 40
0.0019999999999772
100
AcDbArc
 50
184.764066452
 51
260.2640664527
  0
ARC
  5
4F7
330
1F
100
AcDbEntity
  8
0
  6
Continuous
 62
     7
370
    25
100
AcDbCircle
 10
5.3837873871
 20
-0.2236716701
 30
0.0
 40
0.0120000000000018
100
AcDbArc
 50
4.7640664524
 51
80.2640664524
  0
ARC
  5
4F8
330
1F
100
AcDbEntity
  8
0
  6
Continuous
 62
     7
370
    25
100
AcDbCircle
 10
5.3434538545
 20
-0.2167512957
 30
0.0
 40
0.0119999999999991
100
AcDbArc
 50
80.2640664524
 51
155.7640664524
  0
ARC
  5
4F9
330
1F
100
AcDbEntity
  8
0
  6
Continuous
 62
     7
370
    25
100
AcDbCircle
 10
5.288497478
 20
-0.304724787
 30
0.0
 40
0.0020000000000024
100
AcDbArc
 50
260.2640664525
 51
335.7640664524
  0
ARC
  5
4FA
330
1F
100
AcDbEntity
  8
0
  6
Continuous
 62
     7
370
    25
100
AcDbCircle
 10
5.2514377322
 20
-0.2983661247
 30
0.0
 40
0.0019999999999772
100
AcDbArc
 50
184.764066452
 51
260.2640664527
  0
ARC
  5
4FB
330
1F
100
AcDbEntity
  8
0
  6
Continuous
 62
     7
370
    25
100
AcDbCircle
 10
5.2289500032
 20
-0.1971048757
 30
0.0
 40
0.0120000000000027
100
AcDbArc
 50
4.7640664524
 51
80.2640664524
  0
ARC
  5
4FC
330
1F
100
AcDbEntity
  8
0
  6
Continuous
 62
     7
370
    25
100
AcDbCircle
 10
5.1886164706
 20
-0.1901845013
 30
0.0
 40
0.0119999999999991
100
AcDbArc
 50
80.2640664524
 51
155.7640664524
  0
ARC
  5
4FD
330
1F
100
AcDbEntity
  8
0
  6
Continuous
 62
     7
370
    25
100
AcDbCircle
 10
5.1336600941
 20
-0.2781579927
 30
0.0
 40
0.0020000000000024
100
AcDbArc
 50
260.2640664525
 51
335.7640664524
  0
ARC
  5
4FE
330
1F
100
AcDbEntity
  8
0
  6
Continuous
 62
     7
370
    25
100
AcDbCircle
 10
5.0966003484
 20
-0.2717993303
 30
0.0
 40
0.0019999999999744
100
AcDbArc
 50
184.7640664519
 51
260.2640664527
  0
ARC
  5
4FF
330
1F
100
AcDbEntity
  8
0
  6
Continuous
 62
     7
370
    25
100
AcDbCircle
 10
5.0741126194
 20
-0.1705380814
 30
0.0
 40
0.0120000000000008
100
AcDbArc
 50
4.7640664524
 51
80.2640664524
  0
ARC
  5
500
330
1F
100
AcDbEntity
  8
0
  6
Continuous
 62
     7
370
    25
100
AcDbCircle
 10
5.0337790868
 20
-0.163617707
 30
0.0
 40
0.0119999999999979
100
AcDbArc
 50
80.2640664524
 51
155.7640664524
  0
ARC
  5
501
330
1F
100
AcDbEntity
  8
0
  6
Continuous
 62
     7
370
    25
100
AcDbCircle
 10
4.9788227103
 20
-0.2515911983
 30
0.0
 40
0.0020000000000036
100
AcDbArc
 50
260.2640664526
 51
335.7640664523
  0
ARC
  5
502
330
1F
100
AcDbEntity
  8
0
  6
Continuous
 62
     7
370
    25
100
AcDbCircle
 10
4.9417629646
 20
-0.245232536
 30
0.0
 40
0.0019999999999763
100
AcDbArc
 50
184.7640664519
 51
260.2640664527
  0
ARC
  5
503
330
1F
100
AcDbEntity
  8
0
  6
Continuous
 62
     7
370
    25
100
AcDbCircle
 10
4.9192752355
 20
-0.143971287
 30
0.0
 40
0.0120000000000027
100
AcDbArc
 50
4.7640664524
 51
80.2640664524
  0
ARC
  5
504
330
1F
100
AcDbEntity
  8
0
  6
Continuous
 62
     7
370
    25
100
AcDbCircle
 10
4.8789417029
 20
-0.1370509126
 30
0.0
 40
0.0119999999999994
100
AcDbArc
 50
80.2640664524
 51
155.7640664524
  0
ARC
  5
505
330
1F
100
AcDbEntity
  8
0
  6
Continuous
 62
     7
370
    25
100
AcDbCircle
 10
4.8239853264
 20
-0.2250244039
 30
0.0
 40
0.0020000000000018
100
AcDbArc
 50
260.2640664525
 51
335.7640664524
  0
ARC
  5
506
330
1F
100
AcDbEntity
  8
0
  6
Continuous
 62
     7
370
    25
100
AcDbCircle
 10
4.7869255807
 20
-0.2186657416
 30
0.0
 40
0.0019999999999762
100
AcDbArc
 50
184.7640664519
 51
260.2640664527
  0
ARC
  5
507
330
1F
100
AcDbEntity
  8
0
  6
Continuous
 62
     7
370
    25
100
AcDbCircle
 10
4.7644378517
 20
-0.1174044926
 30
0.0
 40
0.0120000000000018
100
AcDbArc
 50
4.7640664524
 51
80.2640664524
  0
ARC
  5
508
330
1F
100
AcDbEntity
  8
0
  6
Continuous
 62
     7
370
    25
100
AcDbCircle
 10
4.7241043191
 20
-0.1104841182
 30
0.0
 40
0.0120000000000019
100
AcDbArc
 50
80.2640664524
 51
155.7640664524
  0
ARC
  5
509
330
1F
100
AcDbEntity
  8
0
  6
Continuous
 62
     7
370
    25
100
AcDbCircle
 10
4.6691479426
 20
-0.1984576096
 30
0.0
 40
0.0020000000000017
100
AcDbArc
 50
260.2640664525
 51
335.7640664524
  0
ARC
  5
50A
330
1F
100
AcDbEntity
  8
0
  6
Continuous
 62
     7
370
    25
100
AcDbCircle
 10
4.6320881969
 20
-0.1920989472
 30
0.0
 40
0.0019999999999739
100
AcDbArc
 50
184.7640664519
 51
260.2640664527
  0
ARC
  5
50B
330
1F
100
AcDbEntity
  8
0
  6
Continuous
 62
     7
370
    25
100
AcDbCircle
 10
4.6096004678
 20
-0.0908376983
 30
0.0
 40
0.0120000000000011
100
AcDbArc
 50
4.7640664524
 51
80.2640664524
  0
ARC
  5
50C
330
1F
100
AcDbEntity
  8
0
  6
Continuous
 62
     7
370
    25
100
AcDbCircle
 10
4.5692669352
 20
-0.0839173239
 30
0.0
 40
0.0119999999999993
100
AcDbArc
 50
80.2640664524
 51
155.7640664524
  0
ARC
  5
50D
330
1F
100
AcDbEntity
  8
0
  6
Continuous
 62
     7
370
    25
100
AcDbCircle
 10
4.5143105587
 20
-0.1718908152
 30
0.0
 40
0.0020000000000037
100
AcDbArc
 50
260.2640664526
 51
335.7640664523
  0
ARC
  5
50E
330
1F
100
AcDbEntity
  8
0
  6
Continuous
 62
     7
370
    25
100
AcDbCircle
 10
4.477250813
 20
-0.1655321529
 30
0.0
 40
0.0019999999999762
100
AcDbArc
 50
184.7640664519
 51
260.2640664527
  0
ARC
  5
50F
330
1F
100
AcDbEntity
  8
0
  6
Continuous
 62
     7
370
    25
100
AcDbCircle
 10
4.454763084
 20
-0.0642709039
 30
0.0
 40
0.0120000000000018
100
AcDbArc
 50
4.7640664524
 51
80.2640664524
  0
ARC
  5
510
330
1F
100
AcDbEntity
  8
0
  6
Continuous
 62
     7
370
    25
100
AcDbCircle
 10
4.4144295514
 20
-0.0573505295
 30
0.0
 40
0.0120000000000019
100
AcDbArc
 50
80.2640664524
 51
155.7640664524
  0
ARC
  5
511
330
1F
100
AcDbEntity
  8
0
  6
Continuous
 62
     7
370
    25
100
AcDbCircle
 10
4.3594731749
 20
-0.1453240209
 30
0.0
 40
0.0020000000000017
100
AcDbArc
 50
260.2640664525
 51
335.7640664524
  0
ARC
  5
512
330
1F
100
AcDbEntity
  8
0
  6
Continuous
 62
     7
370
    25
100
AcDbCircle
 10
4.3224134292
 20
-0.1389653585
 30
0.0
 40
0.0019999999999762
100
AcDbArc
 50
184.7640664519
 51
260.2640664527
  0
ARC
  5
513
330
1F
100
AcDbEntity
  8
0
  6
Continuous
 62
     7
370
    25
100
AcDbCircle
 10
4.2999257001
 20
-0.0377041096
 30
0.0
 40
0.0120000000000018
100
AcDbArc
 50
4.7640664524
 51
80.2640664524
  0
ARC
  5
514
330
1F
100
AcDbEntity
  8
0
  6
Continuous
 62
     7
370
    25
100
AcDbCircle
 10
4.2595921675
 20
-0.0307837352
 30
0.0
 40
0.0119999999999993
100
AcDbArc
 50
80.2640664524
 51
155.7640664524
  0
ARC
  5
515
330
1F
100
AcDbEntity
  8
0
  6
Continuous
 62
     7
370
    25
100
AcDbCircle
 10
4.204635791
 20
-0.1187572265
 30
0.0
 40
0.002000000000003
100
AcDbArc
 50
260.2640664526
 51
335.7640664523
  0
ARC
  5
516
330
1F
100
AcDbEntity
  8
0
  6
Continuous
 62
     7
370
    25
100
AcDbCircle
 10
4.1675760453
 20
-0.1123985641
 30
0.0
 40
0.0019999999999763
100
AcDbArc
 50
184.7640664519
 51
260.2640664527
  0
ARC
  5
517
330
1F
100
AcDbEntity
  8
0
  6
Continuous
 62
     7
370
    25
100
AcDbCircle
 10
4.1450883163
 20
-0.0111373152
 30
0.0
 40
0.0120000000000027
100
AcDbArc
 50
4.7640664524
 51
80.2640664524
  0
ARC
  5
518
330
1F
100
AcDbEntity
  8
0
  6
Continuous
 62
     7
370
    25
100
AcDbCircle
 10
4.1047547837
 20
-0.0042169408
 30
0.0
 40
0.0119999999999993
100
AcDbArc
 50
80.2640664524
 51
155.7640664524
  0
ARC
  5
519
330
1F
100
AcDbEntity
  8
0
  6
Continuous
 62
     7
370
    25
100
AcDbCircle
 10
4.0497984072
 20
-0.0921904321
 30
0.0
 40
0.002000000000003
100
AcDbArc
 50
260.2640664526
 51
335.7640664523
  0
ARC
  5
51A
330
1F
100
AcDbEntity
  8
0
  6
Continuous
 62
     7
370
    25
100
AcDbCircle
 10
4.0127386615
 20
-0.0858317698
 30
0.0
 40
0.0019999999999763
100
AcDbArc
 50
184.7640664519
 51
260.2640664527
  0
ARC
  5
51B
330
1F
100
AcDbEntity
  8
0
  6
Continuous
 62
     7
370
    25
100
AcDbCircle
 10
3.9902509324
 20
0.0154294792
 30
0.0
 40
0.0120000000000027
100
AcDbArc
 50
4.7640664524
 51
80.2640664524
  0
ARC
  5
51C
330
1F
100
AcDbEntity
  8
0
  6
Continuous
 62
     7
370
    25
100
AcDbCircle
 10
3.9499173998
 20
0.0223498536
 30
0.0
 40
0.011999999999999
100
AcDbArc
 50
80.2640664524
 51
155.7640664524
  0
ARC
  5
51D
330
1F
100
AcDbEntity
  8
0
  6
Continuous
 62
     7
370
    25
100
AcDbCircle
 10
3.8949610233
 20
-0.0656236378
 30
0.0
 40
0.0020000000000027
100
AcDbArc
 50
260.2640664525
 51
335.7640664524
  0
ARC
  5
51E
330
1F
100
AcDbEntity
  8
0
  6
Continuous
 62
     7
370
    25
100
AcDbCircle
 10
3.8579012776
 20
-0.0592649754
 30
0.0
 40
0.0019999999999755
100
AcDbArc
 50
184.7640664519
 51
260.2640664527
  0
ARC
  5
51F
330
1F
100
AcDbEntity
  8
0
  6
Continuous
 62
     7
370
    25
100
AcDbCircle
 10
3.8354135486
 20
0.0419962735
 30
0.0
 40
0.0120000000000023
100
AcDbArc
 50
4.7640664524
 51
80.2640664524
  0
ARC
  5
520
330
1F
100
AcDbEntity
  8
0
  6
Continuous
 62
     7
370
    25
100
AcDbCircle
 10
3.795080016
 20
0.0489166479
 30
0.0
 40
0.011999999999999
100
AcDbArc
 50
80.2640664524
 51
155.7640664524
  0
ARC
  5
521
330
1F
100
AcDbEntity
  8
0
  6
Continuous
 62
     7
370
    25
100
AcDbCircle
 10
3.7401236395
 20
-0.0390568434
 30
0.0
 40
0.0020000000000023
100
AcDbArc
 50
260.2640664525
 51
335.7640664524
  0
ARC
  5
522
330
1F
100
AcDbEntity
  8
0
  6
Continuous
 62
     7
370
    25
100
AcDbCircle
 10
3.7030638938
 20
-0.032698181
 30
0.0
 40
0.0019999999999748
100
AcDbArc
 50
184.7640664519
 51
260.2640664527
  0
ARC
  5
523
330
1F
100
AcDbEntity
  8
0
  6
Continuous
 62
     7
370
    25
100
AcDbCircle
 10
3.6805761647
 20
0.0685630679
 30
0.0
 40
0.0120000000000023
100
AcDbArc
 50
4.7640664524
 51
80.2640664524
  0
ARC
  5
524
330
1F
100
AcDbEntity
  8
0
  6
Continuous
 62
     7
370
    25
100
AcDbCircle
 10
3.6402426321
 20
0.0754834423
 30
0.0
 40
0.0119999999999983
100
AcDbArc
 50
80.2640664524
 51
155.7640664524
  0
ARC
  5
525
330
1F
100
AcDbEntity
  8
0
  6
Continuous
 62
     7
370
    25
100
AcDbCircle
 10
3.5852862556
 20
-0.012490049
 30
0.0
 40
0.0020000000000023
100
AcDbArc
 50
260.2640664525
 51
335.7640664524
  0
ARC
  5
526
330
1F
100
AcDbEntity
  8
0
  6
Continuous
 62
     7
370
    25
100
AcDbCircle
 10
3.5482265099
 20
-0.0061313867
 30
0.0
 40
0.0019999999999748
100
AcDbArc
 50
184.7640664519
 51
260.2640664527
  0
ARC
  5
527
330
1F
100
AcDbEntity
  8
0
  6
Continuous
 62
     7
370
    25
100
AcDbCircle
 10
3.5257387809
 20
0.0951298623
 30
0.0
 40
0.0120000000000028
100
AcDbArc
 50
4.7640664524
 51
80.2640664524
  0
ARC
  5
528
330
1F
100
AcDbEntity
  8
0
  6
Continuous
 62
     7
370
    25
100
AcDbCircle
 10
3.4854052483
 20
0.1020502367
 30
0.0
 40
0.0119999999999994
100
AcDbArc
 50
80.2640664524
 51
155.7640664524
  0
ARC
  5
529
330
1F
100
AcDbEntity
  8
0
  6
Continuous
 62
     7
370
    25
100
AcDbCircle
 10
3.4304488718
 20
0.0140767453
 30
0.0
 40
0.0020000000000023
100
AcDbArc
 50
260.2640664525
 51
335.7640664524
  0
ARC
  5
52A
330
1F
100
AcDbEntity
  8
0
  6
Continuous
 62
     7
370
    25
100
AcDbCircle
 10
3.3933891261
 20
0.0204354077
 30
0.0
 40
0.0019999999999748
100
AcDbArc
 50
184.7640664519
 51
260.2640664527
  0
ARC
  5
52B
330
1F
100
AcDbEntity
  8
0
  6
Continuous
 62
     7
370
    25
100
AcDbCircle
 10
3.370901397
 20
0.1216966566
 30
0.0
 40
0.0120000000000028
100
AcDbArc
 50
4.7640664524
 51
80.2640664524
  0
ARC
  5
52C
330
1F
100
AcDbEntity
  8
0
  6
Continuous
 62
     7
370
    25
100
AcDbCircle
 10
3.3305678644
 20
0.128617031
 30
0.0
 40
0.0119999999999993
100
AcDbArc
 50
80.2640664524
 51
155.7640664524
  0
ARC
  5
52D
330
1F
100
AcDbEntity
  8
0
  6
Continuous
 62
     7
370
    25
100
AcDbCircle
 10
3.2756114879
 20
0.0406435397
 30
0.0
 40
0.0020000000000023
100
AcDbArc
 50
260.2640664525
 51
335.7640664524
  0
ARC
  5
52E
330
1F
100
AcDbEntity
  8
0
  6
Continuous
 62
     7
370
    25
100
AcDbCircle
 10
3.2385517422
 20
0.047002202
 30
0.0
 40
0.0019999999999748
100
AcDbArc
 50
184.7640664519
 51
260.2640664527
  0
ARC
  5
52F
330
1F
100
AcDbEntity
  8
0
  6
Continuous
 62
     7
370
    25
100
AcDbCircle
 10
3.2160640132
 20
0.148263451
 30
0.0
 40
0.0120000000000028
100
AcDbArc
 50
4.7640664524
 51
80.2640664524
  0
ARC
  5
530
330
1F
100
AcDbEntity
  8
0
  6
Continuous
 62
     7
370
    25
100
AcDbCircle
 10
3.1757304806
 20
0.1551838254
 30
0.0
 40
0.0119999999999993
100
AcDbArc
 50
80.2640664524
 51
155.7640664524
  0
ARC
  5
531
330
1F
100
AcDbEntity
  8
0
  6
Continuous
 62
     7
370
    25
100
AcDbCircle
 10
3.1207741041
 20
0.067210334
 30
0.0
 40
0.0020000000000023
100
AcDbArc
 50
260.2640664525
 51
335.7640664524
  0
ARC
  5
532
330
1F
100
AcDbEntity
  8
0
  6
Continuous
 62
     7
370
    25
100
AcDbCircle
 10
3.0837143584
 20
0.0735689964
 30
0.0
 40
0.0019999999999748
100
AcDbArc
 50
184.7640664519
 51
260.2640664527
  0
ARC
  5
533
330
1F
100
AcDbEntity
  8
0
  6
Continuous
 62
     7
370
    25
100
AcDbCircle
 10
3.0612266293
 20
0.1748302454
 30
0.0
 40
0.012000000000002
100
AcDbArc
 50
4.7640664524
 51
80.2640664524
  0
ARC
  5
534
330
1F
100
AcDbEntity
  8
0
  6
Continuous
 62
     7
370
    25
100
AcDbCircle
 10
3.0208930967
 20
0.1817506198
 30
0.0
 40
0.0119999999999993
100
AcDbArc
 50
80.2640664524
 51
155.7640664524
  0
ARC
  5
535
330
1F
100
AcDbEntity
  8
0
  6
Continuous
 62
     7
370
    25
100
AcDbCircle
 10
2.9659367202
 20
0.0937771284
 30
0.0
 40
0.0020000000000029
100
AcDbArc
 50
260.2640664525
 51
335.7640664523
  0
ARC
  5
536
330
1F
100
AcDbEntity
  8
0
  6
Continuous
 62
     7
370
    25
100
AcDbCircle
 10
2.9288769745
 20
0.1001357908
 30
0.0
 40
0.0019999999999748
100
AcDbArc
 50
184.7640664519
 51
260.2640664527
  0
ARC
  5
537
330
1F
100
AcDbEntity
  8
0
  6
Continuous
 62
     7
370
    25
100
AcDbCircle
 10
2.9063892455
 20
0.2013970397
 30
0.0
 40
0.0120000000000023
100
AcDbArc
 50
4.7640664524
 51
80.2640664524
  0
ARC
  5
538
330
1F
100
AcDbEntity
  8
0
  6
Continuous
 62
     7
370
    25
100
AcDbCircle
 10
2.8660557129
 20
0.2083174141
 30
0.0
 40
0.011999999999999
100
AcDbArc
 50
80.2640664524
 51
155.7640664524
  0
ARC
  5
539
330
1F
100
AcDbEntity
  8
0
  6
Continuous
 62
     7
370
    25
100
AcDbCircle
 10
2.8110993364
 20
0.1203439228
 30
0.0
 40
0.0020000000000018
100
AcDbArc
 50
260.2640664525
 51
335.7640664524
  0
ARC
  5
53A
330
1F
100
AcDbEntity
  8
0
  6
Continuous
 62
     7
370
    25
100
AcDbCircle
 10
2.7740395907
 20
0.1267025851
 30
0.0
 40
0.0019999999999748
100
AcDbArc
 50
184.7640664519
 51
260.2640664527
  0
ARC
  5
53B
330
1F
100
AcDbEntity
  8
0
  6
Continuous
 62
     7
370
    25
100
AcDbCircle
 10
2.7515518616
 20
0.2279638341
 30
0.0
 40
0.012000000000002
100
AcDbArc
 50
4.7640664524
 51
80.2640664524
  0
ARC
  5
53C
330
1F
100
AcDbEntity
  8
0
  6
Continuous
 62
     7
370
    25
100
AcDbCircle
 10
2.711218329
 20
0.2348842085
 30
0.0
 40
0.0119999999999993
100
AcDbArc
 50
80.2640664524
 51
155.7640664524
  0
ARC
  5
53D
330
1F
100
AcDbEntity
  8
0
  6
Continuous
 62
     7
370
    25
100
AcDbCircle
 10
2.6562619525
 20
0.1469107171
 30
0.0
 40
0.0020000000000017
100
AcDbArc
 50
260.2640664525
 51
335.7640664524
  0
ARC
  5
53E
330
1F
100
AcDbEntity
  8
0
  6
Continuous
 62
     7
370
    25
100
AcDbCircle
 10
2.6192022068
 20
0.1532693795
 30
0.0
 40
0.0019999999999748
100
AcDbArc
 50
184.7640664519
 51
260.2640664527
  0
ARC
  5
53F
330
1F
100
AcDbEntity
  8
0
  6
Continuous
 62
     7
370
    25
100
AcDbCircle
 10
2.5967144778
 20
0.2545306284
 30
0.0
 40
0.0120000000000024
100
AcDbArc
 50
4.7640664524
 51
80.2640664524
  0
ARC
  5
540
330
1F
100
AcDbEntity
  8
0
  6
Continuous
 62
     7
370
    25
100
AcDbCircle
 10
2.5563809452
 20
0.2614510028
 30
0.0
 40
0.0119999999999992
100
AcDbArc
 50
80.2640664524
 51
155.7640664524
  0
ARC
  5
541
330
1F
100
AcDbEntity
  8
0
  6
Continuous
 62
     7
370
    25
100
AcDbCircle
 10
2.5014245687
 20
0.1734775115
 30
0.0
 40
0.0020000000000017
100
AcDbArc
 50
260.2640664525
 51
335.7640664524
  0
ARC
  5
542
330
1F
100
AcDbEntity
  8
0
  6
Continuous
 62
     7
370
    25
100
AcDbCircle
 10
2.464364823
 20
0.1798361739
 30
0.0
 40
0.0019999999999758
100
AcDbArc
 50
184.7640664519
 51
260.2640664527
  0
ARC
  5
543
330
1F
100
AcDbEntity
  8
0
  6
Continuous
 62
     7
370
    25
100
AcDbCircle
 10
2.441877094
 20
0.2810974228
 30
0.0
 40
0.0120000000000009
100
AcDbArc
 50
4.7640664524
 51
80.2640664524
  0
ARC
  5
544
330
1F
100
AcDbEntity
  8
0
  6
Continuous
 62
     7
370
    25
100
AcDbCircle
 10
2.4015435613
 20
0.2880177972
 30
0.0
 40
0.0120000000000001
100
AcDbArc
 50
80.2640664524
 51
155.7640664524
  0
ARC
  5
545
330
1F
100
AcDbEntity
  8
0
  6
Continuous
 62
     7
370
    25
100
AcDbCircle
 10
2.3465871848
 20
0.2000443059
 30
0.0
 40
0.0020000000000022
100
AcDbArc
 50
260.2640664525
 51
335.7640664524
  0
ARC
  5
546
330
1F
100
AcDbEntity
  8
0
  6
Continuous
 62
     7
370
    25
100
AcDbCircle
 10
2.3095274391
 20
0.2064029682
 30
0.0
 40
0.0019999999999763
100
AcDbArc
 50
184.7640664519
 51
260.2640664527
  0
ARC
  5
547
330
1F
100
AcDbEntity
  8
0
  6
Continuous
 62
     7
370
    25
100
AcDbCircle
 10
2.2870397101
 20
0.3076642172
 30
0.0
 40
0.0120000000000009
100
AcDbArc
 50
4.7640664524
 51
80.2640664524
  0
ARC
  5
548
330
1F
100
AcDbEntity
  8
0
  6
Continuous
 62
     7
370
    25
100
AcDbCircle
 10
2.2467061775
 20
0.3145845916
 30
0.0
 40
0.0119999999999995
100
AcDbArc
 50
80.2640664524
 51
155.7640664524
  0
ARC
  5
549
330
1F
100
AcDbEntity
  8
0
  6
Continuous
 62
     7
370
    25
100
AcDbCircle
 10
2.191749801
 20
0.2266111002
 30
0.0
 40
0.0020000000000017
100
AcDbArc
 50
260.2640664525
 51
335.7640664524
  0
ARC
  5
54A
330
1F
100
AcDbEntity
  8
0
  6
Continuous
 62
     7
370
    25
100
AcDbCircle
 10
2.1546900553
 20
0.2329697626
 30
0.0
 40
0.0019999999999763
100
AcDbArc
 50
184.7640664519
 51
260.2640664527
  0
ARC
  5
54B
330
1F
100
AcDbEntity
  8
0
  6
Continuous
 62
     7
370
    25
100
AcDbCircle
 10
2.1322023263
 20
0.3342310115
 30
0.0
 40
0.0119999999999999
100
AcDbArc
 50
4.7640664524
 51
80.2640664524
  0
ARC
  5
54C
330
1F
100
AcDbEntity
  8
0
  6
Continuous
 62
     7
370
    25
100
AcDbCircle
 10
2.0918687936
 20
0.3411513859
 30
0.0
 40
0.0119999999999993
100
AcDbArc
 50
80.2640664524
 51
155.7640664524
  0
ARC
  5
54D
330
1F
100
AcDbEntity
  8
0
  6
Continuous
 62
     7
370
    25
100
AcDbCircle
 10
2.0369124171
 20
0.2531778946
 30
0.0
 40
0.0020000000000017
100
AcDbArc
 50
260.2640664525
 51
335.7640664524
  0
ARC
  5
54E
330
1F
100
AcDbEntity
  8
0
  6
Continuous
 62
     7
370
    25
100
AcDbCircle
 10
1.9998526714
 20
0.2595365569
 30
0.0
 40
0.0019999999999763
100
AcDbArc
 50
184.7640664519
 51
260.2640664527
  0
ARC
  5
54F
330
1F
100
AcDbEntity
  8
0
  6
Continuous
 62
     7
370
    25
100
AcDbCircle
 10
1.9773649424
 20
0.3607978059
 30
0.0
 40
0.0120000000000006
100
AcDbArc
 50
4.7640664524
 51
80.2640664524
  0
ARC
  5
550
330
1F
100
AcDbEntity
  8
0
  6
Continuous
 62
     7
370
    25
100
AcDbCircle
 10
1.9370314098
 20
0.3677181803
 30
0.0
 40
0.0119999999999999
100
AcDbArc
 50
80.2640664524
 51
155.7640664524
  0
ARC
  5
551
330
1F
100
AcDbEntity
  8
0
  6
Continuous
 62
     7
370
    25
100
AcDbCircle
 10
1.8820750333
 20
0.279744689
 30
0.0
 40
0.0020000000000023
100
AcDbArc
 50
260.2640664525
 51
335.7640664524
  0
ARC
  5
552
330
1F
100
AcDbEntity
  8
0
  6
Continuous
 62
     7
370
    25
100
AcDbCircle
 10
1.8450152876
 20
0.2861033513
 30
0.0
 40
0.0019999999999763
100
AcDbArc
 50
184.7640664519
 51
260.2640664527
  0
ARC
  5
553
330
1F
100
AcDbEntity
  8
0
  6
Continuous
 62
     7
370
    25
100
AcDbCircle
 10
1.8225275586
 20
0.3873646003
 30
0.0
 40
0.0120000000000006
100
AcDbArc
 50
4.7640664524
 51
80.2640664524
  0
ARC
  5
554
330
1F
100
AcDbEntity
  8
0
  6
Continuous
 62
     7
370
    25
100
AcDbCircle
 10
1.7821940259
 20
0.3942849747
 30
0.0
 40
0.0119999999999992
100
AcDbArc
 50
80.2640664524
 51
155.7640664524
  0
ARC
  5
555
330
1F
100
AcDbEntity
  8
0
  6
Continuous
 62
     7
370
    25
100
AcDbCircle
 10
1.7272376495
 20
0.3063114833
 30
0.0
 40
0.002000000000002
100
AcDbArc
 50
260.2640664525
 51
335.7640664524
  0
ARC
  5
556
330
1F
100
AcDbEntity
  8
0
  6
Continuous
 62
     7
370
    25
100
AcDbCircle
 10
1.6901779037
 20
0.3126701457
 30
0.0
 40
0.0019999999999753
100
AcDbArc
 50
184.7640664519
 51
260.2640664527
  0
ARC
  5
557
330
1F
100
AcDbEntity
  8
0
  6
Continuous
 62
     7
370
    25
100
AcDbCircle
 10
1.6676901747
 20
0.4139313946
 30
0.0
 40
0.0120000000000004
100
AcDbArc
 50
4.7640664524
 51
80.2640664524
  0
ARC
  5
558
330
1F
100
AcDbEntity
  8
0
  6
Continuous
 62
     7
370
    25
100
AcDbCircle
 10
1.6273566421
 20
0.420851769
 30
0.0
 40
0.0119999999999989
100
AcDbArc
 50
80.2640664524
 51
155.7640664524
  0
ARC
  5
559
330
1F
100
AcDbEntity
  8
0
  6
Continuous
 62
     7
370
    25
100
AcDbCircle
 10
1.5724002656
 20
0.3328782777
 30
0.0
 40
0.002000000000002
100
AcDbArc
 50
260.2640664525
 51
335.7640664524
  0
ARC
  5
55A
330
1F
100
AcDbEntity
  8
0
  6
Continuous
 62
     7
370
    25
100
AcDbCircle
 10
1.5353405199
 20
0.33923694
 30
0.0
 40
0.0019999999999753
100
AcDbArc
 50
184.7640664519
 51
260.2640664527
  0
ARC
  5
55B
330
1F
100
AcDbEntity
  8
0
  6
Continuous
 62
     7
370
    25
100
AcDbCircle
 10
1.5128527909
 20
0.440498189
 30
0.0
 40
0.0120000000000002
100
AcDbArc
 50
4.7640664524
 51
80.2640664524
  0
ARC
  5
55C
330
1F
100
AcDbEntity
  8
0
  6
Continuous
 62
     7
370
    25
100
AcDbCircle
 10
1.4725192582
 20
0.4474185634
 30
0.0
 40
0.0119999999999986
100
AcDbArc
 50
80.2640664524
 51
155.7640664524
  0
ARC
  5
55D
330
1F
100
AcDbEntity
  8
0
  6
Continuous
 62
     7
370
    25
100
AcDbCircle
 10
1.4175628818
 20
0.359445072
 30
0.0
 40
0.0020000000000021
100
AcDbArc
 50
260.2640664525
 51
335.7640664524
  0
ARC
  5
55E
330
1F
100
AcDbEntity
  8
0
  6
Continuous
 62
     7
370
    25
100
AcDbCircle
 10
1.380503136
 20
0.3658037344
 30
0.0
 40
0.0019999999999751
100
AcDbArc
 50
184.7640664519
 51
260.2640664527
  0
ARC
  5
55F
330
1F
100
AcDbEntity
  8
0
  6
Continuous
 62
     7
370
    25
100
AcDbCircle
 10
1.358015407
 20
0.4670649833
 30
0.0
 40
0.0120000000000002
100
AcDbArc
 50
4.7640664524
 51
80.2640664524
  0
ARC
  5
560
330
1F
100
AcDbEntity
  8
0
  6
Continuous
 62
     7
370
    25
100
AcDbCircle
 10
1.3176818744
 20
0.4739853577
 30
0.0
 40
0.0119999999999987
100
AcDbArc
 50
80.2640664524
 51
155.7640664524
  0
ARC
  5
561
330
1F
100
AcDbEntity
  8
0
  6
Continuous
 62
     7
370
    25
100
AcDbCircle
 10
1.2627254979
 20
0.3860118664
 30
0.0
 40
0.002000000000002
100
AcDbArc
 50
260.2640664525
 51
335.7640664524
  0
ARC
  5
562
330
1F
100
AcDbEntity
  8
0
  6
Continuous
 62
     7
370
    25
100
AcDbCircle
 10
1.2256657522
 20
0.3923705288
 30
0.0
 40
0.0019999999999749
100
AcDbArc
 50
184.7640664519
 51
260.2640664527
  0
ARC
  5
563
330
1F
100
AcDbEntity
  8
0
  6
Continuous
 62
     7
370
    25
100
AcDbCircle
 10
1.2031780232
 20
0.4936317777
 30
0.0
 40
0.0120000000000004
100
AcDbArc
 50
4.7640664524
 51
80.2640664524
  0
ARC
  5
564
330
1F
100
AcDbEntity
  8
0
  6
Continuous
 62
     7
370
    25
100
AcDbCircle
 10
1.1628444905
 20
0.5005521521
 30
0.0
 40
0.0119999999999991
100
AcDbArc
 50
80.2640664524
 51
155.7640664524
  0
ARC
  5
565
330
1F
100
AcDbEntity
  8
0
  6
Continuous
 62
     7
370
    25
100
AcDbCircle
 10
1.1078881141
 20
0.4125786608
 30
0.0
 40
0.0020000000000019
100
AcDbArc
 50
260.2640664525
 51
335.7640664524
  0
ARC
  5
566
330
1F
100
AcDbEntity
  8
0
  6
Continuous
 62
     7
370
    25
100
AcDbCircle
 10
1.0708283683
 20
0.4189373231
 30
0.0
 40
0.0019999999999749
100
AcDbArc
 50
184.7640664519
 51
260.2640664527
  0
ARC
  5
567
330
1F
100
AcDbEntity
  8
0
  6
Continuous
 62
     7
370
    25
100
AcDbCircle
 10
1.0483406393
 20
0.5201985721
 30
0.0
 40
0.0120000000000004
100
AcDbArc
 50
4.7640664524
 51
80.2640664524
  0
ARC
  5
568
330
1F
100
AcDbEntity
  8
0
  6
Continuous
 62
     7
370
    25
100
AcDbCircle
 10
1.0080071067
 20
0.5271189465
 30
0.0
 40
0.0119999999999991
100
AcDbArc
 50
80.2640664524
 51
155.7640664524
  0
ARC
  5
569
330
1F
100
AcDbEntity
  8
0
  6
Continuous
 62
     7
370
    25
100
AcDbCircle
 10
0.9530507302
 20
0.4391454551
 30
0.0
 40
0.0020000000000017
100
AcDbArc
 50
260.2640664525
 51
335.7640664524
  0
ARC
  5
56A
330
1F
100
AcDbEntity
  8
0
  6
Continuous
 62
     7
370
    25
100
AcDbCircle
 10
0.9159909845
 20
0.4455041175
 30
0.0
 40
0.0019999999999751
100
AcDbArc
 50
184.7640664519
 51
260.2640664527
  0
ARC
  5
56B
330
1F
100
AcDbEntity
  8
0
  6
Continuous
 62
     7
370
    25
100
AcDbCircle
 10
0.8935032555
 20
0.5467653664
 30
0.0
 40
0.0120000000000005
100
AcDbArc
 50
4.7640664524
 51
80.2640664524
  0
ARC
  5
56C
330
1F
100
AcDbEntity
  8
0
  6
Continuous
 62
     7
370
    25
100
AcDbCircle
 10
0.8531697228
 20
0.5536857408
 30
0.0
 40
0.0119999999999985
100
AcDbArc
 50
80.2640664524
 51
155.7640664524
  0
ARC
  5
56D
330
1F
100
AcDbEntity
  8
0
  6
Continuous
 62
     7
370
    25
100
AcDbCircle
 10
0.7982133464
 20
0.4657122495
 30
0.0
 40
0.0020000000000019
100
AcDbArc
 50
260.2640664525
 51
335.7640664524
  0
ARC
  5
56E
330
1F
100
AcDbEntity
  8
0
  6
Continuous
 62
     7
370
    25
100
AcDbCircle
 10
0.7611536006
 20
0.4720709119
 30
0.0
 40
0.0019999999999751
100
AcDbArc
 50
184.7640664519
 51
260.2640664527
  0
ARC
  5
56F
330
1F
100
AcDbEntity
  8
0
  6
Continuous
 62
     7
370
    25
100
AcDbCircle
 10
0.7386658716
 20
0.5733321608
 30
0.0
 40
0.0120000000000003
100
AcDbArc
 50
4.7640664524
 51
80.2640664524
  0
ARC
  5
570
330
1F
100
AcDbEntity
  8
0
  6
Continuous
 62
     7
370
    25
100
AcDbCircle
 10
0.698332339
 20
0.5802525352
 30
0.0
 40
0.0119999999999989
100
AcDbArc
 50
80.2640664524
 51
155.7640664524
  0
ARC
  5
571
330
1F
100
AcDbEntity
  8
0
  6
Continuous
 62
     7
370
    25
100
AcDbCircle
 10
0.6433759625
 20
0.4922790439
 30
0.0
 40
0.0020000000000019
100
AcDbArc
 50
260.2640664525
 51
335.7640664524
  0
ARC
  5
572
330
1F
100
AcDbEntity
  8
0
  6
Continuous
 62
     7
370
    25
100
AcDbCircle
 10
0.6063162168
 20
0.4986377062
 30
0.0
 40
0.0019999999999753
100
AcDbArc
 50
184.7640664519
 51
260.2640664527
  0
ARC
  5
573
330
1F
100
AcDbEntity
  8
0
  6
Continuous
 62
     7
370
    25
100
AcDbCircle
 10
0.5838284878
 20
0.5998989552
 30
0.0
 40
0.0120000000000007
100
AcDbArc
 50
4.7640664524
 51
80.2640664524
  0
ARC
  5
574
330
1F
100
AcDbEntity
  8
0
  6
Continuous
 62
     7
370
    25
100
AcDbCircle
 10
0.5434949551
 20
0.6068193296
 30
0.0
 40
0.0119999999999983
100
AcDbArc
 50
80.2640664524
 51
155.7640664524
  0
ARC
  5
575
330
1F
100
AcDbEntity
  8
0
  6
Continuous
 62
     7
370
    25
100
AcDbCircle
 10
0.4885385787
 20
0.5188458382
 30
0.0
 40
0.0020000000000021
100
AcDbArc
 50
260.2640664525
 51
335.7640664524
  0
ARC
  5
576
330
1F
100
AcDbEntity
  8
0
  6
Continuous
 62
     7
370
    25
100
AcDbCircle
 10
0.4514788329
 20
0.5252045006
 30
0.0
 40
0.0019999999999752
100
AcDbArc
 50
184.7640664519
 51
260.2640664527
  0
ARC
  5
577
330
1F
100
AcDbEntity
  8
0
  6
Continuous
 62
     7
370
    25
100
AcDbCircle
 10
0.4289911039
 20
0.6264657495
 30
0.0
 40
0.0120000000000011
100
AcDbArc
 50
4.7640664524
 51
80.2640664524
  0
ARC
  5
578
330
1F
100
AcDbEntity
  8
0
  6
Continuous
 62
     7
370
    25
100
AcDbCircle
 10
0.3886575713
 20
0.6333861239
 30
0.0
 40
0.0119999999999982
100
AcDbArc
 50
80.2640664524
 51
155.7640664524
  0
ARC
  5
579
330
1F
100
AcDbEntity
  8
0
  6
Continuous
 62
     7
370
    25
100
AcDbCircle
 10
0.3337011948
 20
0.5454126326
 30
0.0
 40
0.0020000000000021
100
AcDbArc
 50
260.2640664525
 51
335.7640664524
  0
ARC
  5
57A
330
1F
100
AcDbEntity
  8
0
  6
Continuous
 62
     7
370
    25
100
AcDbCircle
 10
0.2966414491
 20
0.5517712949
 30
0.0
 40
0.0019999999999755
100
AcDbArc
 50
184.7640664519
 51
260.2640664527
  0
ARC
  5
57B
330
1F
100
AcDbEntity
  8
0
  6
Continuous
 62
     7
370
    25
100
AcDbCircle
 10
0.2741537201
 20
0.6530325439
 30
0.0
 40
0.0120000000000007
100
AcDbArc
 50
4.7640664524
 51
80.2640664524
  0
ARC
  5
57C
330
1F
100
AcDbEntity
  8
0
  6
Continuous
 62
     7
370
    25
100
AcDbCircle
 10
0.2338201874
 20
0.6599529183
 30
0.0
 40
0.0119999999999987
100
AcDbArc
 50
80.2640664524
 51
155.7640664524
  0
ARC
  5
57D
330
1F
100
AcDbEntity
  8
0
  6
Continuous
 62
     7
370
    25
100
AcDbCircle
 10
0.178863811
 20
0.5719794269
 30
0.0
 40
0.002000000000002
100
AcDbArc
 50
260.2640664525
 51
335.7640664524
  0
ARC
  5
57E
330
1F
100
AcDbEntity
  8
0
  6
Continuous
 62
     7
370
    25
100
AcDbCircle
 10
0.1418040652
 20
0.5783380893
 30
0.0
 40
0.0019999999999755
100
AcDbArc
 50
184.7640664519
 51
260.2640664527
  0
ARC
  5
57F
330
1F
100
AcDbEntity
  8
0
  6
Continuous
 62
     7
370
    25
100
AcDbCircle
 10
0.1193163362
 20
0.6795993383
 30
0.0
 40
0.0120000000000009
100
AcDbArc
 50
4.7640664524
 51
80.2640664524
  0
ARC
  5
580
330
1F
100
AcDbEntity
  8
0
  6
Continuous
 62
     7
370
    25
100
AcDbCircle
 10
0.0789828036
 20
0.6865197126
 30
0.0
 40
0.0119999999999983
100
AcDbArc
 50
80.2640664524
 51
155.7640664524
  0
ARC
  5
581
330
1F
100
AcDbEntity
  8
0
  6
Continuous
 62
     7
370
    25
100
AcDbCircle
 10
0.0240264271
 20
0.5985462213
 30
0.0
 40
0.0020000000000019
100
AcDbArc
 50
260.2640664525
 51
335.7640664524
  0
ARC
  5
582
330
1F
100
AcDbEntity
  8
0
  6
Continuous
 62
     7
370
    25
100
AcDbCircle
 10
-0.0130333186
 20
0.6049048837
 30
0.0
 40
0.0019999999999754
100
AcDbArc
 50
184.7640664519
 51
260.2640664527
  0
ARC
  5
583
330
1F
100
AcDbEntity
  8
0
  6
Continuous
 62
     7
370
    25
100
AcDbCircle
 10
-0.0355210476
 20
0.7061661326
 30
0.0
 40
0.012000000000001
100
AcDbArc
 50
4.7640664524
 51
80.2640664524
  0
ARC
  5
584
330
1F
100
AcDbEntity
  8
0
  6
Continuous
 62
     7
370
    25
100
AcDbCircle
 10
-0.0758545803
 20
0.713086507
 30
0.0
 40
0.0119999999999987
100
AcDbArc
 50
80.2640664524
 51
155.7640664524
  0
ARC
  5
585
330
1F
100
AcDbEntity
  8
0
  6
Continuous
 62
     7
370
    25
100
AcDbCircle
 10
-0.1308109567
 20
0.6251130157
 30
0.0
 40
0.0020000000000019
100
AcDbArc
 50
260.2640664525
 51
335.7640664524
  0
ARC
  5
586
330
1F
100
AcDbEntity
  8
0
  6
Continuous
 62
     7
370
    25
100
AcDbCircle
 10
-0.1678707025
 20
0.631471678
 30
0.0
 40
0.0019999999999753
100
AcDbArc
 50
184.7640664519
 51
260.2640664527
  0
ARC
  5
587
330
1F
100
AcDbEntity
  8
0
  6
Continuous
 62
     7
370
    25
100
AcDbCircle
 10
-0.1903584315
 20
0.732732927
 30
0.0
 40
0.0120000000000006
100
AcDbArc
 50
4.7640664524
 51
80.2640664524
  0
ARC
  5
588
330
1F
100
AcDbEntity
  8
0
  6
Continuous
 62
     7
370
    25
100
AcDbCircle
 10
-0.2306919641
 20
0.7396533014
 30
0.0
 40
0.011999999999999
100
AcDbArc
 50
80.2640664524
 51
155.7640664524
  0
ARC
  5
589
330
1F
100
AcDbEntity
  8
0
  6
Continuous
 62
     7
370
    25
100
AcDbCircle
 10
-0.2856483406
 20
0.65167981
 30
0.0
 40
0.002000000000002
100
AcDbArc
 50
260.2640664525
 51
335.7640664524
  0
ARC
  5
58A
330
1F
100
AcDbEntity
  8
0
  6
Continuous
 62
     7
370
    25
100
AcDbCircle
 10
-0.3227080863
 20
0.6580384724
 30
0.0
 40
0.0019999999999754
100
AcDbArc
 50
184.7640664519
 51
260.2640664527
  0
ARC
  5
58B
330
1F
100
AcDbEntity
  8
0
  6
Continuous
 62
     7
370
    25
100
AcDbCircle
 10
-0.3451958153
 20
0.7592997213
 30
0.0
 40
0.012000000000001
100
AcDbArc
 50
4.7640664524
 51
80.2640664524
  0
ARC
  5
58C
330
1F
100
AcDbEntity
  8
0
  6
Continuous
 62
     7
370
    25
100
AcDbCircle
 10
-0.385529348
 20
0.7662200957
 30
0.0
 40
0.0119999999999988
100
AcDbArc
 50
80.2640664524
 51
155.7640664524
  0
ARC
  5
58D
330
1F
100
AcDbEntity
  8
0
  6
Continuous
 62
     7
370
    25
100
AcDbCircle
 10
-0.4404857244
 20
0.6782466044
 30
0.0
 40
0.0020000000000019
100
AcDbArc
 50
260.2640664525
 51
335.7640664524
  0
ARC
  5
58E
330
1F
100
AcDbEntity
  8
0
  6
Continuous
 62
     7
370
    25
100
AcDbCircle
 10
-0.4775454702
 20
0.6846052668
 30
0.0
 40
0.0019999999999755
100
AcDbArc
 50
184.7640664519
 51
260.2640664527
  0
ARC
  5
58F
330
1F
100
AcDbEntity
  8
0
  6
Continuous
 62
     7
370
    25
100
AcDbCircle
 10
-0.5000331992
 20
0.7858665157
 30
0.0
 40
0.0120000000000011
100
AcDbArc
 50
4.7640664524
 51
80.2640664524
  0
ARC
  5
590
330
1F
100
AcDbEntity
  8
0
  6
Continuous
 62
     7
370
    25
100
AcDbCircle
 10
-0.5403667318
 20
0.7927868901
 30
0.0
 40
0.0119999999999987
100
AcDbArc
 50
80.2640664524
 51
155.7640664524
  0
ARC
  5
591
330
1F
100
AcDbEntity
  8
0
  6
Continuous
 62
     7
370
    25
100
AcDbCircle
 10
-0.5953231083
 20
0.7048133988
 30
0.0
 40
0.002000000000002
100
AcDbArc
 50
260.2640664525
 51
335.7640664524
  0
ARC
  5
592
330
1F
100
AcDbEntity
  8
0
  6
Continuous
 62
     7
370
    25
100
AcDbCircle
 10
-0.632382854
 20
0.7111720611
 30
0.0
 40
0.0019999999999753
100
AcDbArc
 50
184.7640664519
 51
260.2640664527
  0
ARC
  5
593
330
1F
100
AcDbEntity
  8
0
  6
Continuous
 62
     7
370
    25
100
AcDbCircle
 10
-0.654870583
 20
0.8124333101
 30
0.0
 40
0.0120000000000011
100
AcDbArc
 50
4.7640664524
 51
80.2640664524
  0
ARC
  5
594
330
1F
100
AcDbEntity
  8
0
  6
Continuous
 62
     7
370
    25
100
AcDbCircle
 10
-0.6952041157
 20
0.8193536845
 30
0.0
 40
0.0119999999999987
100
AcDbArc
 50
80.2640664524
 51
155.7640664524
  0
ARC
  5
595
330
1F
100
AcDbEntity
  8
0
  6
Continuous
 62
     7
370
    25
100
AcDbCircle
 10
-0.7501604921
 20
0.7313801931
 30
0.0
 40
0.0020000000000019
100
AcDbArc
 50
260.2640664525
 51
335.7640664524
  0
ARC
  5
596
330
1F
100
AcDbEntity
  8
0
  6
Continuous
 62
     7
370
    25
100
AcDbCircle
 10
-0.7872202379
 20
0.7377388555
 30
0.0
 40
0.0019999999999754
100
AcDbArc
 50
184.7640664519
 51
260.2640664527
  0
ARC
  5
597
330
1F
100
AcDbEntity
  8
0
  6
Continuous
 62
     7
370
    25
100
AcDbCircle
 10
-0.8097079669
 20
0.8390001044
 30
0.0
 40
0.0120000000000009
100
AcDbArc
 50
4.7640664524
 51
80.2640664524
  0
ARC
  5
598
330
1F
100
AcDbEntity
  8
0
  6
Continuous
 62
     7
370
    25
100
AcDbCircle
 10
-0.8500414995
 20
0.8459204788
 30
0.0
 40
0.0119999999999989
100
AcDbArc
 50
80.2640664524
 51
155.7640664524
  0
ARC
  5
599
330
1F
100
AcDbEntity
  8
0
  6
Continuous
 62
     7
370
    25
100
AcDbCircle
 10
-0.904997876
 20
0.7579469875
 30
0.0
 40
0.0020000000000021
100
AcDbArc
 50
260.2640664525
 51
335.7640664524
  0
ARC
  5
59A
330
1F
100
AcDbEntity
  8
0
  6
Continuous
 62
     7
370
    25
100
AcDbCircle
 10
-0.9420576217
 20
0.7643056498
 30
0.0
 40
0.0019999999999752
100
AcDbArc
 50
184.7640664519
 51
260.2640664527
  0
ARC
  5
59B
330
1F
100
AcDbEntity
  8
0
  6
Continuous
 62
     7
370
    25
100
AcDbCircle
 10
-0.9645453507
 20
0.8655668988
 30
0.0
 40
0.0120000000000009
100
AcDbArc
 50
4.7640664524
 51
80.2640664524
  0
ARC
  5
59C
330
1F
100
AcDbEntity
  8
0
  6
Continuous
 62
     7
370
    25
100
AcDbCircle
 10
-1.0048788834
 20
0.8724872732
 30
0.0
 40
0.0119999999999983
100
AcDbArc
 50
80.2640664524
 51
155.7640664524
  0
ARC
  5
59D
330
1F
100
AcDbEntity
  8
0
  6
Continuous
 62
     7
370
    25
100
AcDbCircle
 10
-1.0598352598
 20
0.7845137819
 30
0.0
 40
0.0020000000000017
100
AcDbArc
 50
260.2640664525
 51
335.7640664524
  0
ARC
  5
59E
330
1F
100
AcDbEntity
  8
0
  6
Continuous
 62
     7
370
    25
100
AcDbCircle
 10
-1.0968950056
 20
0.7908724442
 30
0.0
 40
0.0019999999999751
100
AcDbArc
 50
184.7640664519
 51
260.2640664527
  0
ARC
  5
59F
330
1F
100
AcDbEntity
  8
0
  6
Continuous
 62
     7
370
    25
100
AcDbCircle
 10
-1.1193827346
 20
0.8921336932
 30
0.0
 40
0.0120000000000009
100
AcDbArc
 50
4.7640664524
 51
80.2640664524
  0
ARC
  5
5A0
330
1F
100
AcDbEntity
  8
0
  6
Continuous
 62
     7
370
    25
100
AcDbCircle
 10
-1.1597162672
 20
0.8990540676
 30
0.0
 40
0.0119999999999989
100
AcDbArc
 50
80.2640664524
 51
155.7640664524
  0
ARC
  5
5A1
330
1F
100
AcDbEntity
  8
0
  6
Continuous
 62
     7
370
    25
100
AcDbCircle
 10
-1.2146726437
 20
0.8110805762
 30
0.0
 40
0.0020000000000022
100
AcDbArc
 50
260.2640664525
 51
335.7640664524
  0
ARC
  5
5A2
330
1F
100
AcDbEntity
  8
0
  6
Continuous
 62
     7
370
    25
100
AcDbCircle
 10
-1.2517323894
 20
0.8174392386
 30
0.0
 40
0.001999999999975
100
AcDbArc
 50
184.7640664519
 51
260.2640664527
  0
ARC
  5
5A3
330
1F
100
AcDbEntity
  8
0
  6
Continuous
 62
     7
370
    25
100
AcDbCircle
 10
-1.2742201184
 20
0.9187004875
 30
0.0
 40
0.0120000000000005
100
AcDbArc
 50
4.7640664524
 51
80.2640664524
  0
ARC
  5
5A4
330
1F
100
AcDbEntity
  8
0
  6
Continuous
 62
     7
370
    25
100
AcDbCircle
 10
-1.314553651
 20
0.9256208619
 30
0.0
 40
0.0119999999999989
100
AcDbArc
 50
80.2640664524
 51
155.7640664524
  0
ARC
  5
5A5
330
1F
100
AcDbEntity
  8
0
  6
Continuous
 62
     7
370
    25
100
AcDbCircle
 10
-1.3695100275
 20
0.8376473706
 30
0.0
 40
0.0020000000000022
100
AcDbArc
 50
260.2640664525
 51
335.7640664524
  0
ARC
  5
5A6
330
1F
100
AcDbEntity
  8
0
  6
Continuous
 62
     7
370
    25
100
AcDbCircle
 10
-1.4065697733
 20
0.8440060329
 30
0.0
 40
0.0019999999999758
100
AcDbArc
 50
184.7640664519
 51
260.2640664527
  0
ARC
  5
5A7
330
1F
100
AcDbEntity
  8
0
  6
Continuous
 62
     7
370
    25
100
AcDbCircle
 10
-1.4290575023
 20
0.9452672819
 30
0.0
 40
0.0120000000000006
100
AcDbArc
 50
4.7640664524
 51
80.2640664524
  0
ARC
  5
5A8
330
1F
100
AcDbEntity
  8
0
  6
Continuous
 62
     7
370
    25
100
AcDbCircle
 10
-1.4693910349
 20
0.9521876563
 30
0.0
 40
0.0119999999999984
100
AcDbArc
 50
80.2640664524
 51
155.7640664524
  0
ARC
  5
5A9
330
1F
100
AcDbEntity
  8
0
  6
Continuous
 62
     7
370
    25
100
AcDbCircle
 10
-1.5243474114
 20
0.8642141649
 30
0.0
 40
0.0020000000000022
100
AcDbArc
 50
260.2640664525
 51
335.7640664524
  0
ARC
  5
5AA
330
1F
100
AcDbEntity
  8
0
  6
Continuous
 62
     7
370
    25
100
AcDbCircle
 10
-1.5614071571
 20
0.8705728273
 30
0.0
 40
0.0019999999999758
100
AcDbArc
 50
184.7640664519
 51
260.2640664527
  0
ARC
  5
5AB
330
1F
100
AcDbEntity
  8
0
  6
Continuous
 62
     7
370
    25
100
AcDbCircle
 10
-1.5838948861
 20
0.9718340762
 30
0.0
 40
0.0120000000000006
100
AcDbArc
 50
4.7640664524
 51
80.2640664524
  0
ARC
  5
5AC
330
1F
100
AcDbEntity
  8
0
  6
Continuous
 62
     7
370
    25
100
AcDbCircle
 10
-1.6242284187
 20
0.9787544506
 30
0.0
 40
0.0119999999999996
100
AcDbArc
 50
80.2640664524
 51
155.7640664524
  0
ARC
  5
5AD
330
1F
100
AcDbEntity
  8
0
  6
Continuous
 62
     7
370
    25
100
AcDbCircle
 10
-1.6791847952
 20
0.8907809593
 30
0.0
 40
0.0020000000000021
100
AcDbArc
 50
260.2640664525
 51
335.7640664524
  0
ARC
  5
5AE
330
1F
100
AcDbEntity
  8
0
  6
Continuous
 62
     7
370
    25
100
AcDbCircle
 10
-1.716244541
 20
0.8971396217
 30
0.0
 40
0.0019999999999749
100
AcDbArc
 50
184.7640664519
 51
260.2640664527
  0
ARC
  5
5AF
330
1F
100
AcDbEntity
  8
0
  6
Continuous
 62
     7
370
    25
100
AcDbCircle
 10
-1.73873227
 20
0.9984008706
 30
0.0
 40
0.0120000000000006
100
AcDbArc
 50
4.7640664524
 51
80.2640664524
  0
ARC
  5
5B0
330
1F
100
AcDbEntity
  8
0
  6
Continuous
 62
     7
370
    25
100
AcDbCircle
 10
-1.7790658026
 20
1.005321245
 30
0.0
 40
0.0119999999999989
100
AcDbArc
 50
80.2640664524
 51
155.7640664524
  0
ARC
  5
5B1
330
1F
100
AcDbEntity
  8
0
  6
Continuous
 62
     7
370
    25
100
AcDbCircle
 10
-1.8340221791
 20
0.9173477537
 30
0.0
 40
0.0020000000000025
100
AcDbArc
 50
260.2640664525
 51
335.7640664524
  0
ARC
  5
5B2
330
1F
100
AcDbEntity
  8
0
  6
Continuous
 62
     7
370
    25
100
AcDbCircle
 10
-1.8710819248
 20
0.923706416
 30
0.0
 40
0.0019999999999753
100
AcDbArc
 50
184.7640664519
 51
260.2640664527
  0
ARC
  5
5B3
330
1F
100
AcDbEntity
  8
0
  6
Continuous
 62
     7
370
    25
100
AcDbCircle
 10
-1.8935696538
 20
1.024967665
 30
0.0
 40
0.0120000000000002
100
AcDbArc
 50
4.7640664524
 51
80.2640664524
  0
ARC
  5
5B4
330
1F
100
AcDbEntity
  8
0
  6
Continuous
 62
     7
370
    25
100
AcDbCircle
 10
-1.9339031864
 20
1.0318880394
 30
0.0
 40
0.0119999999999993
100
AcDbArc
 50
80.2640664524
 51
155.7640664524
  0
ARC
  5
5B5
330
1F
100
AcDbEntity
  8
0
  6
Continuous
 62
     7
370
    25
100
AcDbCircle
 10
-1.9888595629
 20
0.943914548
 30
0.0
 40
0.0020000000000025
100
AcDbArc
 50
260.2640664525
 51
335.7640664524
  0
ARC
  5
5B6
330
1F
100
AcDbEntity
  8
0
  6
Continuous
 62
     7
370
    25
100
AcDbCircle
 10
-2.0259193087
 20
0.9502732104
 30
0.0
 40
0.0019999999999753
100
AcDbArc
 50
184.7640664519
 51
260.2640664527
  0
ARC
  5
5B7
330
1F
100
AcDbEntity
  8
0
  6
Continuous
 62
     7
370
    25
100
AcDbCircle
 10
-2.0484070377
 20
1.0515344593
 30
0.0
 40
0.0119999999999995
100
AcDbArc
 50
4.7640664524
 51
80.2640664524
  0
ARC
  5
5B8
330
1F
100
AcDbEntity
  8
0
  6
Continuous
 62
     7
370
    25
100
AcDbCircle
 10
-2.0887405703
 20
1.0584548337
 30
0.0
 40
0.0119999999999987
100
AcDbArc
 50
80.2640664524
 51
155.7640664524
  0
ARC
  5
5B9
330
1F
100
AcDbEntity
  8
0
  6
Continuous
 62
     7
370
    25
100
AcDbCircle
 10
-2.1436969468
 20
0.9704813424
 30
0.0
 40
0.0020000000000023
100
AcDbArc
 50
260.2640664525
 51
335.7640664524
  0
ARC
  5
5BA
330
1F
100
AcDbEntity
  8
0
  6
Continuous
 62
     7
370
    25
100
AcDbCircle
 10
-2.1807566925
 20
0.9768400048
 30
0.0
 40
0.0019999999999754
100
AcDbArc
 50
184.7640664519
 51
260.2640664527
  0
ARC
  5
5BB
330
1F
100
AcDbEntity
  8
0
  6
Continuous
 62
     7
370
    25
100
AcDbCircle
 10
-2.2032444215
 20
1.0781012537
 30
0.0
 40
0.0120000000000013
100
AcDbArc
 50
4.7640664524
 51
80.2640664524
  0
ARC
  5
5BC
330
1F
100
AcDbEntity
  8
0
  6
Continuous
 62
     7
370
    25
100
AcDbCircle
 10
-2.2435779541
 20
1.0850216281
 30
0.0
 40
0.0119999999999994
100
AcDbArc
 50
80.2640664524
 51
155.7640664524
  0
ARC
  5
5BD
330
1F
100
AcDbEntity
  8
0
  6
Continuous
 62
     7
370
    25
100
AcDbCircle
 10
-2.2985343306
 20
0.9970481368
 30
0.0
 40
0.0020000000000016
100
AcDbArc
 50
260.2640664525
 51
335.7640664524
  0
ARC
  5
5BE
330
1F
100
AcDbEntity
  8
0
  6
Continuous
 62
     7
370
    25
100
AcDbCircle
 10
-2.3355940764
 20
1.0034067991
 30
0.0
 40
0.0019999999999753
100
AcDbArc
 50
184.7640664519
 51
260.2640664527
  0
ARC
  5
5BF
330
1F
100
AcDbEntity
  8
0
  6
Continuous
 62
     7
370
    25
100
AcDbCircle
 10
-2.3580818054
 20
1.1046680481
 30
0.0
 40
0.0119999999999995
100
AcDbArc
 50
4.7640664524
 51
80.2640664524
  0
ARC
  5
5C0
330
1F
100
AcDbEntity
  8
0
  6
Continuous
 62
     7
370
    25
100
AcDbCircle
 10
-2.398415338
 20
1.1115884225
 30
0.0
 40
0.0119999999999992
100
AcDbArc
 50
80.2640664524
 51
155.7640664524
  0
ARC
  5
5C1
330
1F
100
AcDbEntity
  8
0
  6
Continuous
 62
     7
370
    25
100
AcDbCircle
 10
-2.4533717145
 20
1.0236149311
 30
0.0
 40
0.0020000000000016
100
AcDbArc
 50
260.2640664525
 51
335.7640664524
  0
ARC
  5
5C2
330
1F
100
AcDbEntity
  8
0
  6
Continuous
 62
     7
370
    25
100
AcDbCircle
 10
-2.4904314602
 20
1.0299735935
 30
0.0
 40
0.0019999999999753
100
AcDbArc
 50
184.7640664519
 51
260.2640664527
  0
ARC
  5
5C3
330
1F
100
AcDbEntity
  8
0
  6
Continuous
 62
     7
370
    25
100
AcDbCircle
 10
-2.5129191892
 20
1.1312348424
 30
0.0
 40
0.0120000000000006
100
AcDbArc
 50
4.7640664524
 51
80.2640664524
  0
ARC
  5
5C4
330
1F
100
AcDbEntity
  8
0
  6
Continuous
 62
     7
370
    25
100
AcDbCircle
 10
-2.5532527218
 20
1.1381552168
 30
0.0
 40
0.0119999999999979
100
AcDbArc
 50
80.2640664524
 51
155.7640664524
  0
ARC
  5
5C5
330
1F
100
AcDbEntity
  8
0
  6
Continuous
 62
     7
370
    25
100
AcDbCircle
 10
-2.6082090983
 20
1.0501817255
 30
0.0
 40
0.0020000000000028
100
AcDbArc
 50
260.2640664526
 51
335.7640664524
  0
ARC
  5
5C6
330
1F
100
AcDbEntity
  8
0
  6
Continuous
 62
     7
370
    25
100
AcDbCircle
 10
-2.6452688441
 20
1.0565403878
 30
0.0
 40
0.0019999999999754
100
AcDbArc
 50
184.7640664519
 51
260.2640664527
  0
ARC
  5
5C7
330
1F
100
AcDbEntity
  8
0
  6
Continuous
 62
     7
370
    25
100
AcDbCircle
 10
-2.6677565731
 20
1.1578016368
 30
0.0
 40
0.0120000000000013
100
AcDbArc
 50
4.7640664524
 51
80.2640664524
  0
ARC
  5
5C8
330
1F
100
AcDbEntity
  8
0
  6
Continuous
 62
     7
370
    25
100
AcDbCircle
 10
-2.7080901057
 20
1.1647220112
 30
0.0
 40
0.0119999999999986
100
AcDbArc
 50
80.2640664524
 51
155.7640664524
  0
ARC
  5
5C9
330
1F
100
AcDbEntity
  8
0
  6
Continuous
 62
     7
370
    25
100
AcDbCircle
 10
-2.7630464822
 20
1.0767485198
 30
0.0
 40
0.0020000000000025
100
AcDbArc
 50
260.2640664525
 51
335.7640664523
  0
ARC
  5
5CA
330
1F
100
AcDbEntity
  8
0
  6
Continuous
 62
     7
370
    25
100
AcDbCircle
 10
-2.8001062279
 20
1.0831071822
 30
0.0
 40
0.0019999999999754
100
AcDbArc
 50
184.7640664519
 51
260.2640664527
  0
ARC
  5
5CB
330
1F
100
AcDbEntity
  8
0
  6
Continuous
 62
     7
370
    25
100
AcDbCircle
 10
-2.8225939569
 20
1.1843684312
 30
0.0
 40
0.0120000000000018
100
AcDbArc
 50
4.7640664524
 51
80.2640664524
  0
ARC
  5
5CC
330
1F
100
AcDbEntity
  8
0
  6
Continuous
 62
     7
370
    25
100
AcDbCircle
 10
-2.8629274895
 20
1.1912888055
 30
0.0
 40
0.0119999999999986
100
AcDbArc
 50
80.2640664524
 51
155.7640664524
  0
ARC
  5
5CD
330
1F
100
AcDbEntity
  8
0
  6
Continuous
 62
     7
370
    25
100
AcDbCircle
 10
-2.917883866
 20
1.1033153142
 30
0.0
 40
0.0020000000000025
100
AcDbArc
 50
260.2640664525
 51
335.7640664523
  0
ARC
  5
5CE
330
1F
100
AcDbEntity
  8
0
  6
Continuous
 62
     7
370
    25
100
AcDbCircle
 10
-2.9549436118
 20
1.1096739766
 30
0.0
 40
0.0019999999999753
100
AcDbArc
 50
184.7640664519
 51
260.2640664527
  0
ARC
  5
5CF
330
1F
100
AcDbEntity
  8
0
  6
Continuous
 62
     7
370
    25
100
AcDbCircle
 10
-2.9774313408
 20
1.2109352255
 30
0.0
 40
0.0120000000000018
100
AcDbArc
 50
4.7640664524
 51
80.2640664524
  0
ARC
  5
5D0
330
1F
100
AcDbEntity
  8
0
  6
Continuous
 62
     7
370
    25
100
AcDbCircle
 10
-3.0177648734
 20
1.2178555999
 30
0.0
 40
0.0119999999999983
100
AcDbArc
 50
80.2640664524
 51
155.7640664524
  0
ARC
  5
5D1
330
1F
100
AcDbEntity
  8
0
  6
Continuous
 62
     7
370
    25
100
AcDbCircle
 10
-3.0727212499
 20
1.1298821086
 30
0.0
 40
0.0020000000000028
100
AcDbArc
 50
260.2640664526
 51
335.7640664524
  0
ARC
  5
5D2
330
1F
100
AcDbEntity
  8
0
  6
Continuous
 62
     7
370
    25
100
AcDbCircle
 10
-3.1097809956
 20
1.1362407709
 30
0.0
 40
0.0019999999999754
100
AcDbArc
 50
184.7640664519
 51
260.2640664527
  0
ARC
  5
5D3
330
1F
100
AcDbEntity
  8
0
  6
Continuous
 62
     7
370
    25
100
AcDbCircle
 10
-3.1322687246
 20
1.2375020199
 30
0.0
 40
0.0120000000000018
100
AcDbArc
 50
4.7640664524
 51
80.2640664524
  0
ARC
  5
5D4
330
1F
100
AcDbEntity
  8
0
  6
Continuous
 62
     7
370
    25
100
AcDbCircle
 10
-3.1726022572
 20
1.2444223943
 30
0.0
 40
0.0119999999999979
100
AcDbArc
 50
80.2640664524
 51
155.7640664524
  0
ARC
  5
5D5
330
1F
100
AcDbEntity
  8
0
  6
Continuous
 62
     7
370
    25
100
AcDbCircle
 10
-3.2275586337
 20
1.1564489029
 30
0.0
 40
0.0020000000000021
100
AcDbArc
 50
260.2640664525
 51
335.7640664524
  0
ARC
  5
5D6
330
1F
100
AcDbEntity
  8
0
  6
Continuous
 62
     7
370
    25
100
AcDbCircle
 10
-3.2646183795
 20
1.1628075653
 30
0.0
 40
0.0019999999999748
100
AcDbArc
 50
184.7640664519
 51
260.2640664527
  0
ARC
  5
5D7
330
1F
100
AcDbEntity
  8
0
  6
Continuous
 62
     7
370
    25
100
AcDbCircle
 10
-3.2871061085
 20
1.2640688142
 30
0.0
 40
0.0120000000000021
100
AcDbArc
 50
4.7640664524
 51
80.2640664524
  0
ARC
  5
5D8
330
1F
100
AcDbEntity
  8
0
  6
Continuous
 62
     7
370
    25
100
AcDbCircle
 10
-3.3274396411
 20
1.2709891886
 30
0.0
 40
0.0119999999999994
100
AcDbArc
 50
80.2640664524
 51
155.7640664524
  0
ARC
  5
5D9
330
1F
100
AcDbEntity
  8
0
  6
Continuous
 62
     7
370
    25
100
AcDbCircle
 10
-3.3823960176
 20
1.1830156973
 30
0.0
 40
0.0020000000000025
100
AcDbArc
 50
260.2640664525
 51
335.7640664523
  0
ARC
  5
5DA
330
1F
100
AcDbEntity
  8
0
  6
Continuous
 62
     7
370
    25
100
AcDbCircle
 10
-3.4194557633
 20
1.1893743597
 30
0.0
 40
0.0019999999999744
100
AcDbArc
 50
184.7640664519
 51
260.2640664527
  0
ARC
  5
5DB
330
1F
100
AcDbEntity
  8
0
  6
Continuous
 62
     7
370
    25
100
AcDbCircle
 10
-3.4419434923
 20
1.2906356086
 30
0.0
 40
0.0120000000000024
100
AcDbArc
 50
4.7640664524
 51
80.2640664524
  0
ARC
  5
5DC
330
1F
100
AcDbEntity
  8
0
  6
Continuous
 62
     7
370
    25
100
AcDbCircle
 10
-3.4822770249
 20
1.297555983
 30
0.0
 40
0.0119999999999991
100
AcDbArc
 50
80.2640664524
 51
155.7640664524
  0
ARC
  5
5DD
330
1F
100
AcDbEntity
  8
0
  6
Continuous
 62
     7
370
    25
100
AcDbCircle
 10
-3.5372334014
 20
1.2095824917
 30
0.0
 40
0.0020000000000024
100
AcDbArc
 50
260.2640664525
 51
335.7640664524
  0
ARC
  5
5DE
330
1F
100
AcDbEntity
  8
0
  6
Continuous
 62
     7
370
    25
100
AcDbCircle
 10
-3.5742931472
 20
1.215941154
 30
0.0
 40
0.0019999999999754
100
AcDbArc
 50
184.7640664519
 51
260.2640664527
  0
ARC
  5
5DF
330
1F
100
AcDbEntity
  8
0
  6
Continuous
 62
     7
370
    25
100
AcDbCircle
 10
-3.5967808762
 20
1.317202403
 30
0.0
 40
0.0120000000000009
100
AcDbArc
 50
4.7640664524
 51
80.2640664524
  0
ARC
  5
5E0
330
1F
100
AcDbEntity
  8
0
  6
Continuous
 62
     7
370
    25
100
AcDbCircle
 10
-3.6371144088
 20
1.3241227774
 30
0.0
 40
0.0119999999999982
100
AcDbArc
 50
80.2640664524
 51
155.7640664524
  0
ARC
  5
5E1
330
1F
100
AcDbEntity
  8
0
  6
Continuous
 62
     7
370
    25
100
AcDbCircle
 10
-3.6920707853
 20
1.236149286
 30
0.0
 40
0.0020000000000028
100
AcDbArc
 50
260.2640664526
 51
335.7640664524
  0
ARC
  5
5E2
330
1F
100
AcDbEntity
  8
0
  6
Continuous
 62
     7
370
    25
100
AcDbCircle
 10
-3.729130531
 20
1.2425079484
 30
0.0
 40
0.0019999999999753
100
AcDbArc
 50
184.7640664519
 51
260.2640664527
  0
ARC
  5
5E3
330
1F
100
AcDbEntity
  8
0
  6
Continuous
 62
     7
370
    25
100
AcDbCircle
 10
-3.75161826
 20
1.3437691973
 30
0.0
 40
0.0120000000000004
100
AcDbArc
 50
4.7640664524
 51
80.2640664524
  0
ARC
  5
5E4
330
1F
100
AcDbEntity
  8
0
  6
Continuous
 62
     7
370
    25
100
AcDbCircle
 10
-3.7919517926
 20
1.3506895717
 30
0.0
 40
0.0119999999999984
100
AcDbArc
 50
80.2640664524
 51
155.7640664524
  0
ARC
  5
5E5
330
1F
100
AcDbEntity
  8
0
  6
Continuous
 62
     7
370
    25
100
AcDbCircle
 10
-3.8469081691
 20
1.2627160804
 30
0.0
 40
0.0020000000000028
100
AcDbArc
 50
260.2640664526
 51
335.7640664524
  0
ARC
  5
5E6
330
1F
100
AcDbEntity
  8
0
  6
Continuous
 62
     7
370
    25
100
AcDbCircle
 10
-3.8839679149
 20
1.2690747427
 30
0.0
 40
0.0019999999999754
100
AcDbArc
 50
184.7640664519
 51
260.2640664527
  0
ARC
  5
5E7
330
1F
100
AcDbEntity
  8
0
  6
Continuous
 62
     7
370
    25
100
AcDbCircle
 10
-3.9064556439
 20
1.3703359917
 30
0.0
 40
0.0120000000000014
100
AcDbArc
 50
4.7640664524
 51
80.2640664524
  0
ARC
  5
5E8
330
1F
100
AcDbEntity
  8
0
  6
Continuous
 62
     7
370
    25
100
AcDbCircle
 10
-3.9467891765
 20
1.3772563661
 30
0.0
 40
0.0119999999999978
100
AcDbArc
 50
80.2640664524
 51
155.7640664524
  0
ARC
  5
5E9
330
1F
100
AcDbEntity
  8
0
  6
Continuous
 62
     7
370
    25
100
AcDbCircle
 10
-4.001745553
 20
1.2892828748
 30
0.0
 40
0.0020000000000025
100
AcDbArc
 50
260.2640664526
 51
335.7640664524
  0
ARC
  5
5EA
330
1F
100
AcDbEntity
  8
0
  6
Continuous
 62
     7
370
    25
100
AcDbCircle
 10
-4.0388052987
 20
1.2956415371
 30
0.0
 40
0.0019999999999743
100
AcDbArc
 50
184.7640664519
 51
260.2640664527
  0
ARC
  5
5EB
330
1F
100
AcDbEntity
  8
0
  6
Continuous
 62
     7
370
    25
100
AcDbCircle
 10
-4.0612930277
 20
1.3969027861
 30
0.0
 40
0.0120000000000027
100
AcDbArc
 50
4.7640664524
 51
80.2640664524
  0
ARC
  5
5EC
330
1F
100
AcDbEntity
  8
0
  6
Continuous
 62
     7
370
    25
100
AcDbCircle
 10
-4.1016265603
 20
1.4038231605
 30
0.0
 40
0.0119999999999991
100
AcDbArc
 50
80.2640664524
 51
155.7640664524
  0
ARC
  5
5ED
330
1F
100
AcDbEntity
  8
0
  6
Continuous
 62
     7
370
    25
100
AcDbCircle
 10
-4.1565829368
 20
1.3158496691
 30
0.0
 40
0.0020000000000007
100
AcDbArc
 50
260.2640664525
 51
335.7640664524
  0
ARC
  5
5EE
330
1F
100
AcDbEntity
  8
0
  6
Continuous
 62
     7
370
    25
100
AcDbCircle
 10
-4.1936426826
 20
1.3222083315
 30
0.0
 40
0.0019999999999756
100
AcDbArc
 50
184.7640664519
 51
260.2640664527
  0
ARC
  5
5EF
330
1F
100
AcDbEntity
  8
0
  6
Continuous
 62
     7
370
    25
100
AcDbCircle
 10
-4.2161304116
 20
1.4234695804
 30
0.0
 40
0.0120000000000027
100
AcDbArc
 50
4.7640664524
 51
80.2640664524
  0
ARC
  5
5F0
330
1F
100
AcDbEntity
  8
0
  6
Continuous
 62
     7
370
    25
100
AcDbCircle
 10
-4.2564639442
 20
1.4303899548
 30
0.0
 40
0.0119999999999993
100
AcDbArc
 50
80.2640664524
 51
155.7640664524
  0
ARC
  5
5F1
330
1F
100
AcDbEntity
  8
0
  6
Continuous
 62
     7
370
    25
100
AcDbCircle
 10
-4.3114203207
 20
1.3424164635
 30
0.0
 40
0.0020000000000019
100
AcDbArc
 50
260.2640664525
 51
335.7640664524
  0
ARC
  5
5F2
330
1F
100
AcDbEntity
  8
0
  6
Continuous
 62
     7
370
    25
100
AcDbCircle
 10
-4.3484800664
 20
1.3487751258
 30
0.0
 40
0.0019999999999754
100
AcDbArc
 50
184.7640664519
 51
260.2640664527
  0
ARC
  5
5F3
330
1F
100
AcDbEntity
  8
0
  6
Continuous
 62
     7
370
    25
100
AcDbCircle
 10
-4.3709677954
 20
1.4500363748
 30
0.0
 40
0.0120000000000028
100
AcDbArc
 50
4.7640664524
 51
80.2640664524
  0
ARC
  5
5F4
330
1F
100
AcDbEntity
  8
0
  6
Continuous
 62
     7
370
    25
100
AcDbCircle
 10
-4.411301328
 20
1.4569567492
 30
0.0
 40
0.0119999999999993
100
AcDbArc
 50
80.2640664524
 51
155.7640664524
  0
ARC
  5
5F5
330
1F
100
AcDbEntity
  8
0
  6
Continuous
 62
     7
370
    25
100
AcDbCircle
 10
-4.4662577045
 20
1.3689832578
 30
0.0
 40
0.0020000000000028
100
AcDbArc
 50
260.2640664525
 51
335.7640664524
  0
ARC
  5
5F6
330
1F
100
AcDbEntity
  8
0
  6
Continuous
 62
     7
370
    25
100
AcDbCircle
 10
-4.5033174503
 20
1.3753419202
 30
0.0
 40
0.0019999999999754
100
AcDbArc
 50
184.7640664519
 51
260.2640664527
  0
ARC
  5
5F7
330
1F
100
AcDbEntity
  8
0
  6
Continuous
 62
     7
370
    25
100
AcDbCircle
 10
-4.5258051793
 20
1.4766031691
 30
0.0
 40
0.0120000000000027
100
AcDbArc
 50
4.7640664524
 51
80.2640664524
  0
ARC
  5
5F8
330
1F
100
AcDbEntity
  8
0
  6
Continuous
 62
     7
370
    25
100
AcDbCircle
 10
-4.5661387119
 20
1.4835235435
 30
0.0
 40
0.0119999999999978
100
AcDbArc
 50
80.2640664524
 51
155.7640664524
  0
ARC
  5
5F9
330
1F
100
AcDbEntity
  8
0
  6
Continuous
 62
     7
370
    25
100
AcDbCircle
 10
-4.6210950884
 20
1.3955500522
 30
0.0
 40
0.0020000000000016
100
AcDbArc
 50
260.2640664525
 51
335.7640664524
  0
ARC
  5
5FA
330
1F
100
AcDbEntity
  8
0
  6
Continuous
 62
     7
370
    25
100
AcDbCircle
 10
-4.6581548341
 20
1.4019087146
 30
0.0
 40
0.0019999999999753
100
AcDbArc
 50
184.7640664519
 51
260.2640664527
  0
ARC
  5
5FB
330
1F
100
AcDbEntity
  8
0
  6
Continuous
 62
     7
370
    25
100
AcDbCircle
 10
-4.6806425631
 20
1.5031699635
 30
0.0
 40
0.012000000000001
100
AcDbArc
 50
4.7640664524
 51
80.2640664524
  0
ARC
  5
5FC
330
1F
100
AcDbEntity
  8
0
  6
Continuous
 62
     7
370
    25
100
AcDbCircle
 10
-4.7209760957
 20
1.5100903379
 30
0.0
 40
0.012
100
AcDbArc
 50
80.2640664524
 51
155.7640664524
  0
ARC
  5
5FD
330
1F
100
AcDbEntity
  8
0
  6
Continuous
 62
     7
370
    25
100
AcDbCircle
 10
-4.7759324722
 20
1.4221168466
 30
0.0
 40
0.002000000000003
100
AcDbArc
 50
260.2640664526
 51
335.7640664523
  0
ARC
  5
5FE
330
1F
100
AcDbEntity
  8
0
  6
Continuous
 62
     7
370
    25
100
AcDbCircle
 10
-4.8129922179
 20
1.4284755089
 30
0.0
 40
0.0019999999999753
100
AcDbArc
 50
184.7640664519
 51
260.2640664527
  0
ARC
  5
5FF
330
1F
100
AcDbEntity
  8
0
  6
Continuous
 62
     7
370
    25
100
AcDbCircle
 10
-4.835479947
 20
1.5297367579
 30
0.0
 40
0.0120000000000018
100
AcDbArc
 50
4.7640664524
 51
80.2640664524
  0
ARC
  5
600
330
1F
100
AcDbEntity
  8
0
  6
Continuous
 62
     7
370
    25
100
AcDbCircle
 10
-4.8758134796
 20
1.5366571323
 30
0.0
 40
0.0119999999999989
100
AcDbArc
 50
80.2640664524
 51
155.7640664524
  0
ARC
  5
601
330
1F
100
AcDbEntity
  8
0
  6
Continuous
 62
     7
370
    25
100
AcDbCircle
 10
-4.9307698561
 20
1.4486836409
 30
0.0
 40
0.0020000000000023
100
AcDbArc
 50
260.2640664525
 51
335.7640664524
  0
ARC
  5
602
330
1F
100
AcDbEntity
  8
0
  6
Continuous
 62
     7
370
    25
100
AcDbCircle
 10
-4.9678296018
 20
1.4550423033
 30
0.0
 40
0.0019999999999743
100
AcDbArc
 50
184.7640664519
 51
260.2640664527
  0
ARC
  5
603
330
1F
100
AcDbEntity
  8
0
  6
Continuous
 62
     7
370
    25
100
AcDbCircle
 10
-4.9903173308
 20
1.5563035522
 30
0.0
 40
0.0120000000000009
100
AcDbArc
 50
4.7640664524
 51
80.2640664524
  0
ARC
  5
604
330
1F
100
AcDbEntity
  8
0
  6
Continuous
 62
     7
370
    25
100
AcDbCircle
 10
-5.0306508634
 20
1.5632239266
 30
0.0
 40
0.0119999999999985
100
AcDbArc
 50
80.2640664524
 51
155.7640664524
  0
ARC
  5
605
330
1F
100
AcDbEntity
  8
0
  6
Continuous
 62
     7
370
    25
100
AcDbCircle
 10
-5.0856072399
 20
1.4752504353
 30
0.0
 40
0.0020000000000014
100
AcDbArc
 50
260.2640664525
 51
335.7640664524
  0
ARC
  5
606
330
1F
100
AcDbEntity
  8
0
  6
Continuous
 62
     7
370
    25
100
AcDbCircle
 10
-5.1226669856
 20
1.4816090976
 30
0.0
 40
0.001999999999981
100
AcDbArc
 50
184.764066452
 51
260.2640664526
  0
ARC
  5
607
330
1F
100
AcDbEntity
  8
0
  6
Continuous
 62
     7
370
    25
100
AcDbCircle
 10
-5.1451547147
 20
1.5828703466
 30
0.0
 40
0.0120000000000056
100
AcDbArc
 50
4.7640664524
 51
80.2640664524
  0
ARC
  5
608
330
1F
100
AcDbEntity
  8
0
  6
Continuous
 62
     7
370
    25
100
AcDbCircle
 10
-5.1854882473
 20
1.589790721
 30
0.0
 40
0.0120000000000009
100
AcDbArc
 50
80.2640664524
 51
155.7640664524
  0
ARC
  5
609
330
1F
100
AcDbEntity
  8
0
  6
Continuous
 62
     7
370
    25
100
AcDbCircle
 10
-5.2404446238
 20
1.5018172297
 30
0.0
 40
0.0020000000000024
100
AcDbArc
 50
260.2640664525
 51
335.7640664524
  0
ARC
  5
60A
330
1F
100
AcDbEntity
  8
0
  6
Continuous
 62
     7
370
    25
100
AcDbCircle
 10
-5.2775043695
 20
1.508175892
 30
0.0
 40
0.0019999999999743
100
AcDbArc
 50
184.7640664519
 51
260.2640664527
  0
ARC
  5
60B
330
1F
100
AcDbEntity
  8
0
  6
Continuous
 62
     7
370
    25
100
AcDbCircle
 10
-5.2999920985
 20
1.609437141
 30
0.0
 40
0.0120000000000012
100
AcDbArc
 50
4.7640664524
 51
80.2640664524
  0
ARC
  5
60C
330
1F
100
AcDbEntity
  8
0
  6
Continuous
 62
     7
370
    25
100
AcDbCircle
 10
-5.3403256311
 20
1.6163575154
 30
0.0
 40
0.0119999999999988
100
AcDbArc
 50
80.2640664524
 51
155.7640664524
  0
ARC
  5
60D
330
1F
100
AcDbEntity
  8
0
  6
Continuous
 62
     7
370
    25
100
AcDbCircle
 10
-5.3952820076
 20
1.528384024
 30
0.0
 40
0.0020000000000025
100
AcDbArc
 50
260.2640664525
 51
335.7640664524
  0
ARC
  5
60E
330
1F
100
AcDbEntity
  8
0
  6
Continuous
 62
     7
370
    25
100
AcDbCircle
 10
-5.4323417533
 20
1.5347426864
 30
0.0
 40
0.0019999999999772
100
AcDbArc
 50
184.7640664519
 51
260.2640664527
  0
ARC
  5
60F
330
1F
100
AcDbEntity
  8
0
  6
Continuous
 62
     7
370
    25
100
AcDbCircle
 10
-5.4548294824
 20
1.6360039353
 30
0.0
 40
0.012000000000001
100
AcDbArc
 50
4.7640664524
 51
80.2640664524
  0
ARC
  5
610
330
1F
100
AcDbEntity
  8
0
  6
Continuous
 62
     7
370
    25
100
AcDbCircle
 10
-5.495163015
 20
1.6429243097
 30
0.0
 40
0.0119999999999977
100
AcDbArc
 50
80.2640664524
 51
155.7640664524
  0
ARC
  5
611
330
1F
100
AcDbEntity
  8
0
  6
Continuous
 62
     7
370
    25
100
AcDbCircle
 10
-5.5501193915
 20
1.5549508184
 30
0.0
 40
0.0020000000000027
100
AcDbArc
 50
260.2640664525
 51
335.7640664524
  0
ARC
  5
612
330
1F
100
AcDbEntity
  8
0
  6
Continuous
 62
     7
370
    25
100
AcDbCircle
 10
-5.5871791372
 20
1.5613094807
 30
0.0
 40
0.0019999999999774
100
AcDbArc
 50
184.7640664519
 51
260.2640664527
  0
ARC
  5
613
330
1F
100
AcDbEntity
  8
0
  6
Continuous
 62
     7
370
    25
100
AcDbCircle
 10
-5.6096668662
 20
1.6625707297
 30
0.0
 40
0.0120000000000012
100
AcDbArc
 50
4.7640664524
 51
80.2640664524
  0
ARC
  5
614
330
1F
100
AcDbEntity
  8
0
  6
Continuous
 62
     7
370
    25
100
AcDbCircle
 10
-5.6500003988
 20
1.6694911041
 30
0.0
 40
0.0119999999999978
100
AcDbArc
 50
80.2640664524
 51
155.7640664524
  0
ARC
  5
615
330
1F
100
AcDbEntity
  8
0
  6
Continuous
 62
     7
370
    25
100
AcDbCircle
 10
-5.7049567753
 20
1.5815176127
 30
0.0
 40
0.0020000000000026
100
AcDbArc
 50
260.2640664525
 51
335.7640664524
  0
ARC
  5
616
330
1F
100
AcDbEntity
  8
0
  6
Continuous
 62
     7
370
    25
100
AcDbCircle
 10
-5.742016521
 20
1.5878762751
 30
0.0
 40
0.0019999999999772
100
AcDbArc
 50
184.7640664519
 51
260.2640664527
  0
ARC
  5
617
330
1F
100
AcDbEntity
  8
0
  6
Continuous
 62
     7
370
    25
100
AcDbCircle
 10
-5.7645042501
 20
1.689137524
 30
0.0
 40
0.012000000000001
100
AcDbArc
 50
4.7640664524
 51
80.2640664524
  0
ARC
  5
618
330
1F
100
AcDbEntity
  8
0
  6
Continuous
 62
     7
370
    25
100
AcDbCircle
 10
-5.8048377827
 20
1.6960578984
 30
0.0
 40
0.0119999999999979
100
AcDbArc
 50
80.2640664524
 51
155.7640664524
  0
ARC
  5
619
330
1F
100
AcDbEntity
  8
0
  6
Continuous
 62
     7
370
    25
100
AcDbCircle
 10
-5.8597941592
 20
1.6080844071
 30
0.0
 40
0.0020000000000028
100
AcDbArc
 50
260.2640664525
 51
335.7640664524
  0
ARC
  5
61A
330
1F
100
AcDbEntity
  8
0
  6
Continuous
 62
     7
370
    25
100
AcDbCircle
 10
-5.8968539049
 20
1.6144430695
 30
0.0
 40
0.0019999999999733
100
AcDbArc
 50
184.7640664518
 51
260.2640664527
  0
ARC
  5
61B
330
1F
100
AcDbEntity
  8
0
  6
Continuous
 62
     7
370
    25
100
AcDbCircle
 10
-5.9193416339
 20
1.7157043184
 30
0.0
 40
0.012
100
AcDbArc
 50
4.7640664524
 51
80.2640664524
  0
ARC
  5
61C
330
1F
100
AcDbEntity
  8
0
  6
Continuous
 62
     7
370
    25
100
AcDbCircle
 10
-5.9596751665
 20
1.7226246928
 30
0.0
 40
0.0119999999999965
100
AcDbArc
 50
80.2640664524
 51
155.7640664524
  0
ARC
  5
61D
330
1F
100
AcDbEntity
  8
0
  6
Continuous
 62
     7
370
    25
100
AcDbCircle
 10
-6.014631543
 20
1.6346512015
 30
0.0
 40
0.0020000000000017
100
AcDbArc
 50
260.2640664525
 51
335.7640664524
  0
ARC
  5
61E
330
1F
100
AcDbEntity
  8
0
  6
Continuous
 62
     7
370
    25
100
AcDbCircle
 10
-6.0516912887
 20
1.6410098638
 30
0.0
 40
0.0019999999999774
100
AcDbArc
 50
184.7640664519
 51
260.2640664527
  0
ARC
  5
61F
330
1F
100
AcDbEntity
  8
0
  6
Continuous
 62
     7
370
    25
100
AcDbCircle
 10
-6.0741790178
 20
1.7422711128
 30
0.0
 40
0.0120000000000019
100
AcDbArc
 50
4.7640664524
 51
80.2640664524
  0
ARC
  5
620
330
1F
100
AcDbEntity
  8
0
  6
Continuous
 62
     7
370
    25
100
AcDbCircle
 10
-6.1145125504
 20
1.7491914872
 30
0.0
 40
0.0119999999999978
100
AcDbArc
 50
80.2640664524
 51
155.7640664524
  0
ARC
  5
621
330
1F
100
AcDbEntity
  8
0
  6
Continuous
 62
     7
370
    25
100
AcDbCircle
 10
-6.1694689269
 20
1.6612179958
 30
0.0
 40
0.0020000000000026
100
AcDbArc
 50
260.2640664525
 51
335.7640664523
  0
ARC
  5
622
330
1F
100
AcDbEntity
  8
0
  6
Continuous
 62
     7
370
    25
100
AcDbCircle
 10
-6.2065286726
 20
1.6675766582
 30
0.0
 40
0.0019999999999724
100
AcDbArc
 50
184.7640664518
 51
260.2640664528
  0
ARC
  5
623
330
1F
100
AcDbEntity
  8
0
  6
Continuous
 62
     7
370
    25
100
AcDbCircle
 10
-6.2290164016
 20
1.7688379071
 30
0.0
 40
0.012
100
AcDbArc
 50
4.7640664524
 51
80.2640664524
  0
ARC
  5
624
330
1F
100
AcDbEntity
  8
0
  6
Continuous
 62
     7
370
    25
100
AcDbCircle
 10
-6.2693499342
 20
1.7757582815
 30
0.0
 40
0.0119999999999963
100
AcDbArc
 50
80.2640664524
 51
155.7640664524
  0
ARC
  5
625
330
1F
100
AcDbEntity
  8
0
  6
Continuous
 62
     7
370
    25
100
AcDbCircle
 10
-6.3243063107
 20
1.6877847902
 30
0.0
 40
0.0020000000000017
100
AcDbArc
 50
260.2640664525
 51
335.7640664524
  0
ARC
  5
626
330
1F
100
AcDbEntity
  8
0
  6
Continuous
 62
     7
370
    25
100
AcDbCircle
 10
-6.3613660564
 20
1.6941434526
 30
0.0
 40
0.0019999999999724
100
AcDbArc
 50
184.7640664518
 51
260.2640664528
  0
ARC
  5
627
330
1F
100
AcDbEntity
  8
0
  6
Continuous
 62
     7
370
    25
100
AcDbCircle
 10
-6.3838537855
 20
1.7954047015
 30
0.0
 40
0.012
100
AcDbArc
 50
4.7640664524
 51
80.2640664524
  0
ARC
  5
628
330
1F
100
AcDbEntity
  8
0
  6
Continuous
 62
     7
370
    25
100
AcDbCircle
 10
-6.4241873181
 20
1.8023250759
 30
0.0
 40
0.0119999999999965
100
AcDbArc
 50
80.2640664524
 51
155.7640664524
  0
ARC
  5
629
330
1F
100
AcDbEntity
  8
0
  6
Continuous
 62
     7
370
    25
100
AcDbCircle
 10
-6.4791436946
 20
1.7143515846
 30
0.0
 40
0.0020000000000017
100
AcDbArc
 50
260.2640664525
 51
335.7640664524
  0
ARC
  5
62A
330
1F
100
AcDbEntity
  8
0
  6
Continuous
 62
     7
370
    25
100
AcDbCircle
 10
-6.5162034403
 20
1.7207102469
 30
0.0
 40
0.0019999999999774
100
AcDbArc
 50
184.7640664519
 51
260.2640664527
  0
ARC
  5
62B
330
1F
100
AcDbEntity
  8
0
  6
Continuous
 62
     7
370
    25
100
AcDbCircle
 10
-6.5386911693
 20
1.8219714959
 30
0.0
 40
0.0120000000000009
100
AcDbArc
 50
4.7640664524
 51
80.2640664524
  0
ARC
  5
62C
330
1F
100
AcDbEntity
  8
0
  6
Continuous
 62
     7
370
    25
100
AcDbCircle
 10
-6.5790247019
 20
1.8288918703
 30
0.0
 40
0.0120000000000001
100
AcDbArc
 50
80.2640664524
 51
155.7640664524
  0
ARC
  5
62D
330
1F
100
AcDbEntity
  8
0
  6
Continuous
 62
     7
370
    25
100
AcDbCircle
 10
-6.6339810784
 20
1.7409183789
 30
0.0
 40
0.0020000000000017
100
AcDbArc
 50
260.2640664525
 51
335.7640664524
  0
ARC
  5
62E
330
1F
100
AcDbEntity
  8
0
  6
Continuous
 62
     7
370
    25
100
AcDbCircle
 10
-6.6710408241
 20
1.7472770413
 30
0.0
 40
0.0019999999999772
100
AcDbArc
 50
184.7640664519
 51
260.2640664527
  0
ARC
  5
62F
330
1F
100
AcDbEntity
  8
0
  6
Continuous
 62
     7
370
    25
100
AcDbCircle
 10
-6.6935285532
 20
1.8485382902
 30
0.0
 40
0.0120000000000018
100
AcDbArc
 50
4.7640664524
 51
80.2640664524
  0
ARC
  5
630
330
1F
100
AcDbEntity
  8
0
  6
Continuous
 62
     7
370
    25
100
AcDbCircle
 10
-6.7338620858
 20
1.8554586646
 30
0.0
 40
0.0119999999999979
100
AcDbArc
 50
80.2640664524
 51
155.7640664524
  0
ARC
  5
631
330
1F
100
AcDbEntity
  8
0
  6
Continuous
 62
     7
370
    25
100
AcDbCircle
 10
-6.7888184623
 20
1.7674851733
 30
0.0
 40
0.0020000000000017
100
AcDbArc
 50
260.2640664525
 51
335.7640664524
  0
ARC
  5
632
330
1F
100
AcDbEntity
  8
0
  6
Continuous
 62
     7
370
    25
100
AcDbCircle
 10
-6.825878208
 20
1.7738438356
 30
0.0
 40
0.0019999999999772
100
AcDbArc
 50
184.7640664519
 51
260.2640664527
  0
ARC
  5
633
330
1F
100
AcDbEntity
  8
0
  6
Continuous
 62
     7
370
    25
100
AcDbCircle
 10
-6.848365937
 20
1.8751050846
 30
0.0
 40
0.012000000000002
100
AcDbArc
 50
4.7640664524
 51
80.2640664524
  0
ARC
  5
634
330
1F
100
AcDbEntity
  8
0
  6
Continuous
 62
     7
370
    25
100
AcDbCircle
 10
-6.8886994696
 20
1.882025459
 30
0.0
 40
0.011999999999998
100
AcDbArc
 50
80.2640664524
 51
155.7640664524
  0
ARC
  5
635
330
1F
100
AcDbEntity
  8
0
  6
Continuous
 62
     7
370
    25
100
AcDbCircle
 10
-6.9436558461
 20
1.7940519676
 30
0.0
 40
0.0020000000000026
100
AcDbArc
 50
260.2640664525
 51
335.7640664524
  0
ARC
  5
636
330
1F
100
AcDbEntity
  8
0
  6
Continuous
 62
     7
370
    25
100
AcDbCircle
 10
-6.9807155918
 20
1.80041063
 30
0.0
 40
0.0019999999999774
100
AcDbArc
 50
184.7640664519
 51
260.2640664527
  0
ARC
  5
637
330
1F
100
AcDbEntity
  8
0
  6
Continuous
 62
     7
370
    25
100
AcDbCircle
 10
-7.0032033209
 20
1.901671879
 30
0.0
 40
0.0120000000000009
100
AcDbArc
 50
4.7640664524
 51
80.2640664524
  0
ARC
  5
638
330
1F
100
AcDbEntity
  8
0
  6
Continuous
 62
     7
370
    25
100
AcDbCircle
 10
-7.0435368535
 20
1.9085922534
 30
0.0
 40
0.0119999999999986
100
AcDbArc
 50
80.2640664524
 51
155.7640664524
  0
ARC
  5
639
330
1F
100
AcDbEntity
  8
0
  6
Continuous
 62
     7
370
    25
100
AcDbCircle
 10
-7.09849323
 20
1.820618762
 30
0.0
 40
0.0020000000000026
100
AcDbArc
 50
260.2640664525
 51
335.7640664523
  0
ARC
  5
63A
330
1F
100
AcDbEntity
  8
0
  6
Continuous
 62
     7
370
    25
100
AcDbCircle
 10
-7.1355529757
 20
1.8269774244
 30
0.0
 40
0.0019999999999772
100
AcDbArc
 50
184.7640664519
 51
260.2640664527
  0
ARC
  5
63B
330
1F
100
AcDbEntity
  8
0
  6
Continuous
 62
     7
370
    25
100
AcDbCircle
 10
-7.1580407047
 20
1.9282386733
 30
0.0
 40
0.0120000000000022
100
AcDbArc
 50
4.7640664524
 51
80.2640664524
  0
ARC
  5
63C
330
1F
100
AcDbEntity
  8
0
  6
Continuous
 62
     7
370
    25
100
AcDbCircle
 10
-7.1983742373
 20
1.9351590477
 30
0.0
 40
0.0119999999999979
100
AcDbArc
 50
80.2640664524
 51
155.7640664524
  0
ARC
  5
63D
330
1F
100
AcDbEntity
  8
0
  6
Continuous
 62
     7
370
    25
100
AcDbCircle
 10
-7.2533306138
 20
1.8471855564
 30
0.0
 40
0.0020000000000015
100
AcDbArc
 50
260.2640664525
 51
335.7640664524
  0
ARC
  5
63E
330
1F
100
AcDbEntity
  8
0
  6
Continuous
 62
     7
370
    25
100
AcDbCircle
 10
-7.2903903595
 20
1.8535442187
 30
0.0
 40
0.0019999999999763
100
AcDbArc
 50
184.7640664519
 51
260.2640664527
  0
ARC
  5
63F
330
1F
100
AcDbEntity
  8
0
  6
Continuous
 62
     7
370
    25
100
AcDbCircle
 10
-7.3128780886
 20
1.9548054677
 30
0.0
 40
0.0120000000000019
100
AcDbArc
 50
4.7640664524
 51
80.2640664524
  0
ARC
  5
640
330
1F
100
AcDbEntity
  8
0
  6
Continuous
 62
     7
370
    25
100
AcDbCircle
 10
-7.3532116212
 20
1.9617258421
 30
0.0
 40
0.011999999999998
100
AcDbArc
 50
80.2640664524
 51
155.7640664524
  0
ARC
  5
641
330
1F
100
AcDbEntity
  8
0
  6
Continuous
 62
     7
370
    25
100
AcDbCircle
 10
-7.4081679977
 20
1.8737523507
 30
0.0
 40
0.0020000000000022
100
AcDbArc
 50
260.2640664525
 51
335.7640664523
  0
ARC
  5
642
330
1F
100
AcDbEntity
  8
0
  6
Continuous
 62
     7
370
    25
100
AcDbCircle
 10
-7.4452277434
 20
1.8801110131
 30
0.0
 40
0.0019999999999762
100
AcDbArc
 50
184.7640664519
 51
260.2640664527
  0
ARC
  5
643
330
1F
100
AcDbEntity
  8
0
  6
Continuous
 62
     7
370
    25
100
AcDbCircle
 10
-7.4677154724
 20
1.981372262
 30
0.0
 40
0.0120000000000036
100
AcDbArc
 50
4.7640664524
 51
80.2640664524
  0
ARC
  5
644
330
1F
100
AcDbEntity
  8
0
  6
Continuous
 62
     7
370
    25
100
AcDbCircle
 10
-7.508049005
 20
1.9882926364
 30
0.0
 40
0.0119999999999979
100
AcDbArc
 50
80.2640664524
 51
155.7640664524
  0
ARC
  5
645
330
1F
100
AcDbEntity
  8
0
  6
Continuous
 62
     7
370
    25
100
AcDbCircle
 10
-7.5630053815
 20
1.9003191451
 30
0.0
 40
0.0020000000000024
100
AcDbArc
 50
260.2640664525
 51
335.7640664523
  0
ARC
  5
646
330
1F
100
AcDbEntity
  8
0
  6
Continuous
 62
     7
370
    25
100
AcDbCircle
 10
-7.6000651272
 20
1.9066778075
 30
0.0
 40
0.0019999999999762
100
AcDbArc
 50
184.7640664519
 51
260.2640664527
  0
ARC
  5
647
330
1F
100
AcDbEntity
  8
0
  6
Continuous
 62
     7
370
    25
100
AcDbCircle
 10
-7.6225528562
 20
2.0079390564
 30
0.0
 40
0.0120000000000021
100
AcDbArc
 50
4.7640664524
 51
80.2640664524
  0
ARC
  5
648
330
1F
100
AcDbEntity
  8
0
  6
Continuous
 62
     7
370
    25
100
AcDbCircle
 10
-7.6628863889
 20
2.0148594308
 30
0.0
 40
0.0119999999999976
100
AcDbArc
 50
80.2640664524
 51
155.7640664524
  0
ARC
  5
649
330
1F
100
AcDbEntity
  8
0
  6
Continuous
 62
     7
370
    25
100
AcDbCircle
 10
-7.7178427654
 20
1.9268859395
 30
0.0
 40
0.0020000000000024
100
AcDbArc
 50
260.2640664525
 51
335.7640664524
  0
ARC
  5
64A
330
1F
100
AcDbEntity
  8
0
  6
Continuous
 62
     7
370
    25
100
AcDbCircle
 10
-7.7549025111
 20
1.9332446018
 30
0.0
 40
0.0019999999999801
100
AcDbArc
 50
184.764066452
 51
260.2640664526
  0
ARC
  5
64B
330
1F
100
AcDbEntity
  8
0
  6
Continuous
 62
     7
370
    25
100
AcDbCircle
 10
-7.7773902401
 20
2.0345058508
 30
0.0
 40
0.0120000000000049
100
AcDbArc
 50
4.7640664524
 51
80.2640664524
  0
ARC
  5
64C
330
1F
100
AcDbEntity
  8
0
  6
Continuous
 62
     7
370
    25
100
AcDbCircle
 10
-7.8177237727
 20
2.0414262252
 30
0.0
 40
0.0120000000000034
100
AcDbArc
 50
80.2640664524
 51
155.7640664524
  0
ARC
  5
64D
330
1F
100
AcDbEntity
  8
0
  6
Continuous
 62
     7
370
    25
100
AcDbCircle
 10
-7.8726801492
 20
1.9534527338
 30
0.0
 40
0.002000000000002
100
AcDbArc
 50
260.2640664525
 51
335.7640664524
  0
ARC
  5
64E
330
1F
100
AcDbEntity
  8
0
  6
Continuous
 62
     7
370
    25
100
AcDbCircle
 10
-7.9097398949
 20
1.9598113962
 30
0.0
 40
0.0019999999999801
100
AcDbArc
 50
184.764066452
 51
260.2640664526
  0
ARC
  5
64F
330
1F
100
AcDbEntity
  8
0
  6
Continuous
 62
     7
370
    25
100
AcDbCircle
 10
-7.9322276239
 20
2.0610726451
 30
0.0
 40
0.0120000000000038
100
AcDbArc
 50
4.7640664524
 51
80.2640664524
  0
ARC
  5
650
330
1F
100
AcDbEntity
  8
0
  6
Continuous
 62
     7
370
    25
100
AcDbCircle
 10
-7.9725611566
 20
2.0679930195
 30
0.0
 40
0.0120000000000034
100
AcDbArc
 50
80.2640664524
 51
155.7640664524
  0
ARC
  5
651
330
1F
100
AcDbEntity
  8
0
  6
Continuous
 62
     7
370
    25
100
AcDbCircle
 10
-8.0275175331
 20
1.9800195282
 30
0.0
 40
0.0020000000000011
100
AcDbArc
 50
260.2640664525
 51
335.7640664524
  0
ARC
  5
652
330
1F
100
AcDbEntity
  8
0
  6
Continuous
 62
     7
370
    25
100
AcDbCircle
 10
-8.0645772788
 20
1.9863781905
 30
0.0
 40
0.0019999999999781
100
AcDbArc
 50
184.7640664519
 51
260.2640664526
  0
ARC
  5
653
330
1F
100
AcDbEntity
  8
0
  6
Continuous
 62
     7
370
    25
100
AcDbCircle
 10
-8.0870650078
 20
2.0876394395
 30
0.0
 40
0.0119999999999999
100
AcDbArc
 50
4.7640664524
 51
80.2640664524
  0
ARC
  5
654
330
1F
100
AcDbEntity
  8
0
  6
Continuous
 62
     7
370
    25
100
AcDbCircle
 10
-8.1273985404
 20
2.0945598139
 30
0.0
 40
0.0119999999999979
100
AcDbArc
 50
80.2640664524
 51
155.7640664524
  0
ARC
  5
655
330
1F
100
AcDbEntity
  8
0
  6
Continuous
 62
     7
370
    25
100
AcDbCircle
 10
-8.1823549169
 20
2.0065863226
 30
0.0
 40
0.0020000000000066
100
AcDbArc
 50
260.2640664526
 51
335.7640664523
  0
ARC
  5
656
330
1F
100
AcDbEntity
  8
0
  6
Continuous
 62
     7
370
    25
100
AcDbCircle
 10
-8.2194146626
 20
2.0129449849
 30
0.0
 40
0.0019999999999781
100
AcDbArc
 50
184.7640664519
 51
260.2640664526
  0
ARC
  5
657
330
1F
100
AcDbEntity
  8
0
  6
Continuous
 62
     7
370
    25
100
AcDbCircle
 10
-8.2419023916
 20
2.1142062339
 30
0.0
 40
0.0119999999999999
100
AcDbArc
 50
4.7640664524
 51
80.2640664524
  0
ARC
  5
658
330
1F
100
AcDbEntity
  8
0
  6
Continuous
 62
     7
370
    25
100
AcDbCircle
 10
-8.2822359243
 20
2.1211266083
 30
0.0
 40
0.0119999999999979
100
AcDbArc
 50
80.2640664524
 51
155.7640664524
  0
ARC
  5
659
330
1F
100
AcDbEntity
  8
0
  6
Continuous
 62
     7
370
    25
100
AcDbCircle
 10
-8.3371923007
 20
2.0331531169
 30
0.0
 40
0.0020000000000056
100
AcDbArc
 50
260.2640664526
 51
335.7640664523
  0
ARC
  5
65A
330
1F
100
AcDbEntity
  8
0
  6
Continuous
 62
     7
370
    25
100
AcDbCircle
 10
-8.3742520465
 20
2.0395117793
 30
0.0
 40
0.0019999999999781
100
AcDbArc
 50
184.7640664519
 51
260.2640664526
  0
ARC
  5
65B
330
1F
100
AcDbEntity
  8
0
  6
Continuous
 62
     7
370
    25
100
AcDbCircle
 10
-8.3967397755
 20
2.1407730282
 30
0.0
 40
0.0120000000000038
100
AcDbArc
 50
4.7640664524
 51
80.2640664524
  0
ARC
  5
65C
330
1F
100
AcDbEntity
  8
0
  6
Continuous
 62
     7
370
    25
100
AcDbCircle
 10
-8.4370733081
 20
2.1476934026
 30
0.0
 40
0.0119999999999974
100
AcDbArc
 50
80.2640664524
 51
155.7640664524
  0
ARC
  5
65D
330
1F
100
AcDbEntity
  8
0
  6
Continuous
 62
     7
370
    25
100
AcDbCircle
 10
-8.4920296846
 20
2.0597199113
 30
0.0
 40
0.0020000000000052
100
AcDbArc
 50
260.2640664526
 51
335.7640664523
  0
ARC
  5
65E
330
1F
100
AcDbEntity
  8
0
  6
Continuous
 62
     7
370
    25
100
AcDbCircle
 10
-8.5290894303
 20
2.0660785736
 30
0.0
 40
0.0019999999999781
100
AcDbArc
 50
184.7640664519
 51
260.2640664526
  0
ARC
  5
65F
330
1F
100
AcDbEntity
  8
0
  6
Continuous
 62
     7
370
    25
100
AcDbCircle
 10
-8.5515771593
 20
2.1673398226
 30
0.0
 40
0.0120000000000037
100
AcDbArc
 50
4.7640664524
 51
80.2640664524
  0
ARC
  5
660
330
1F
100
AcDbEntity
  8
0
  6
Continuous
 62
     7
370
    25
100
AcDbCircle
 10
-8.591910692
 20
2.174260197
 30
0.0
 40
0.0119999999999979
100
AcDbArc
 50
80.2640664524
 51
155.7640664524
  0
ARC
  5
661
330
1F
100
AcDbEntity
  8
0
  6
Continuous
 62
     7
370
    25
100
AcDbCircle
 10
-8.6468670684
 20
2.0862867056
 30
0.0
 40
0.0020000000000068
100
AcDbArc
 50
260.2640664526
 51
335.7640664523
  0
MTEXT
  5
663
330
1F
100
AcDbEntity
  8
0
  6
Continuous
 62
     7
100
AcDbMText
 10
-8.7346984714
 20
-0.5701404091
 30
0.0
 40
0.1903
 41
0.0
 71
     1
 72
     1
  1
SOLIDWORKS Educational Product.
  7
SLDTEXTSTYLE0
 73
     1
 44
1.0
  0
MTEXT
  5
664
330
1F
100
AcDbEntity
  8
0
  6
Continuous
 62
     7
100
AcDbMText
 10
-8.7346984714
 20
-0.8555904091
 30
0.0
 40
0.1903
 41
0.0
 71
     1
 72
     1
  1
For Instructional Use Only.
  7
SLDTEXTSTYLE0
 73
     1
 44
1.0
  0
ENDSEC
  0
SECTION
  2
OBJECTS
  0
DICTIONARY
  5
C
330
0
100
AcDbDictionary
281
     1
  3
ACAD_GROUP
350
D
  3
ACAD_LAYOUT
350
1A
  3
ACAD_MLINESTYLE
350
17
  3
ACAD_PLOTSETTINGS
350
19
  3
ACAD_PLOTSTYLENAME
350
E
  3
ACAD_SCALELIST
350
47
  3
DWGPROPS
350
665
  0
DICTIONARY
  5
D
102
{ACAD_REACTORS
330
C
102
}
330
C
100
AcDbDictionary
281
     1
  0
DICTIONARY
  5
1A
102
{ACAD_REACTORS
330
C
102
}
330
C
100
AcDbDictionary
281
     1
  3
Layout1
350
1E
  3
Layout2
350
26
  3
Model
350
22
  0
DICTIONARY
  5
17
102
{ACAD_REACTORS
330
C
102
}
330
C
100
AcDbDictionary
281
     1
  3
Standard
350
18
  0
DICTIONARY
  5
19
102
{ACAD_REACTORS
330
C
102
}
330
C
100
AcDbDictionary
281
     1
  0
ACDBDICTIONARYWDFLT
  5
E
102
{ACAD_REACTORS
330
C
102
}
330
C
100
AcDbDictionary
281
     1
  3
Normal
350
F
100
AcDbDictionaryWithDefault
340
F
  0
DICTIONARY
  5
47
102
{ACAD_REACTORS
330
C
102
}
330
C
100
AcDbDictionary
281
     1
  3
A0
350
48
  3
A1
350
49
  3
A2
350
4A
  3
A3
350
4B
  3
A4
350
4C
  3
A5
350
4D
  3
A6
350
4E
  3
A7
350
4F
  3
A8
350
50
  3
A9
350
51
  3
B1
350
52
  3
B2
350
53
  3
B3
350
54
  3
B4
350
55
  3
B5
350
56
  3
B6
350
57
  3
B7
350
58
  0
XRECORD
  5
665
102
{ACAD_REACTORS
330
C
102
}
330
C
100
AcDbXrecord
280
     1
  1
DWGPROPS COOKIE
  2

  3

  4

  6

  7

  8
bkwin
  9

300
=
301
=
302
=
303
=
304
=
305
=
306
=
307
=
308
=
309
=
 40
0.0
 41
2461070.769507176
 42
2461070.769534445
  1

 90
        0
  0
LAYOUT
  5
1E
102
{ACAD_REACTORS
330
1A
102
}
330
1A
100
AcDbPlotSettings
  1

  2
none_device
  4

  6

 40
0.0
 41
0.0
 42
0.0
 43
0.0
 44
0.0
 45
0.0
 46
0.0
 47
0.0
 48
0.0
 49
0.0
140
0.0
141
0.0
142
1.0
143
1.0
 70
   688
 72
     0
 73
     0
 74
     5
  7

 75
    16
147
1.0
148
0.0
149
0.0
100
AcDbLayout
  1
Layout1
 70
     1
 71
     1
 10
0.0
 20
0.0
 11
12.0
 21
9.0
 12
0.0
 22
0.0
 32
0.0
 14
1.0000000000E+20
 24
1.0000000000E+20
 34
1.0000000000E+20
 15
-1.0000000000E+20
 25
-1.0000000000E+20
 35
-1.0000000000E+20
146
0.0
 13
0.0
 23
0.0
 33
0.0
 16
1.0
 26
0.0
 36
0.0
 17
0.0
 27
1.0
 37
0.0
 76
     0
330
1B
  0
LAYOUT
  5
26
102
{ACAD_REACTORS
330
1A
102
}
330
1A
100
AcDbPlotSettings
  1

  2
none_device
  4

  6

 40
0.0
 41
0.0
 42
0.0
 43
0.0
 44
0.0
 45
0.0
 46
0.0
 47
0.0
 48
0.0
 49
0.0
140
0.0
141
0.0
142
1.0
143
1.0
 70
   688
 72
     0
 73
     0
 74
     5
  7

 75
    16
147
1.0
148
0.0
149
0.0
100
AcDbLayout
  1
Layout2
 70
     1
 71
     2
 10
0.0
 20
0.0
 11
0.0
 21
0.0
 12
0.0
 22
0.0
 32
0.0
 14
0.0
 24
0.0
 34
0.0
 15
0.0
 25
0.0
 35
0.0
146
0.0
 13
0.0
 23
0.0
 33
0.0
 16
1.0
 26
0.0
 36
0.0
 17
0.0
 27
1.0
 37
0.0
 76
     0
330
23
  0
LAYOUT
  5
22
102
{ACAD_REACTORS
330
1A
102
}
330
1A
100
AcDbPlotSettings
  1

  2
none_device
  4
ANSI_A_(11.00_x_8.50_Inches)
  6

 40
6.35
 41
19.05
 42
6.35000508
 43
19.05000254
 44
279.4
 45
215.9
 46
144.1611400032
 47
58.4418258056
 48
0.0
 49
0.0
140
0.0
141
0.0
142
0.6721051164
143
1.0
 70
  1696
 72
     0
 73
     0
 74
     0
  7

 75
     0
147
0.5913241897
148
-39.4088153714
149
0.0
100
AcDbLayout
  1
Model
 70
     1
 71
     0
 10
0.0
 20
0.0
 11
12.0
 21
9.0
 12
0.0
 22
0.0
 32
0.0
 14
-8.7346984714
 24
-0.53
 34
0.0
 15
7.4681241728
 25
4.0983128635
 35
0.0
146
0.0
 13
0.0
 23
0.0
 33
0.0
 16
1.0
 26
0.0
 36
0.0
 17
0.0
 27
1.0
 37
0.0
 76
     0
330
1F
331
29
  0
MLINESTYLE
  5
18
102
{ACAD_REACTORS
330
17
102
}
330
17
100
AcDbMlineStyle
  2
Standard
 70
     0
  3

 62
   256
 51
90.0
 52
90.0
 71
     2
 49
0.5
 62
   256
  6
BYLAYER
 49
-0.5
 62
   256
  6
BYLAYER
  0
ACDBPLACEHOLDER
  5
F
102
{ACAD_REACTORS
330
E
102
}
330
E
  0
SCALE
  5
48
102
{ACAD_REACTORS
330
47
102
}
330
47
100
AcDbScale
 70
     0
300
1:1
140
1.0
141
1.0
290
     1
  0
SCALE
  5
49
102
{ACAD_REACTORS
330
47
102
}
330
47
100
AcDbScale
 70
     0
300
1/128" = 1'-0"
140
0.0078125
141
12.0
290
     0
  0
SCALE
  5
4A
102
{ACAD_REACTORS
330
47
102
}
330
47
100
AcDbScale
 70
     0
300
1/64" = 1'-0"
140
0.015625
141
12.0
290
     0
  0
SCALE
  5
4B
102
{ACAD_REACTORS
330
47
102
}
330
47
100
AcDbScale
 70
     0
300
1/32" = 1'-0"
140
0.03125
141
12.0
290
     0
  0
SCALE
  5
4C
102
{ACAD_REACTORS
330
47
102
}
330
47
100
AcDbScale
 70
     0
300
1/16" = 1'-0"
140
0.0625
141
12.0
290
     0
  0
SCALE
  5
4D
102
{ACAD_REACTORS
330
47
102
}
330
47
100
AcDbScale
 70
     0
300
3/32" = 1'-0"
140
0.09375
141
12.0
290
     0
  0
SCALE
  5
4E
102
{ACAD_REACTORS
330
47
102
}
330
47
100
AcDbScale
 70
     0
300
1/8" = 1'-0"
140
0.125
141
12.0
290
     0
  0
SCALE
  5
4F
102
{ACAD_REACTORS
330
47
102
}
330
47
100
AcDbScale
 70
     0
300
3/16" = 1'-0"
140
0.1875
141
12.0
290
     0
  0
SCALE
  5
50
102
{ACAD_REACTORS
330
47
102
}
330
47
100
AcDbScale
 70
     0
300
1/4" = 1'-0"
140
0.25
141
12.0
290
     0
  0
SCALE
  5
51
102
{ACAD_REACTORS
330
47
102
}
330
47
100
AcDbScale
 70
     0
300
3/8" = 1'-0"
140
0.375
141
12.0
290
     0
  0
SCALE
  5
52
102
{ACAD_REACTORS
330
47
102
}
330
47
100
AcDbScale
 70
     0
300
1/2" = 1'-0"
140
0.5
141
12.0
290
     0
  0
SCALE
  5
53
102
{ACAD_REACTORS
330
47
102
}
330
47
100
AcDbScale
 70
     0
300
3/4" = 1'-0"
140
0.75
141
12.0
290
     0
  0
SCALE
  5
54
102
{ACAD_REACTORS
330
47
102
}
330
47
100
AcDbScale
 70
     0
300
1" = 1'-0"
140
1.0
141
12.0
290
     0
  0
SCALE
  5
55
102
{ACAD_REACTORS
330
47
102
}
330
47
100
AcDbScale
 70
     0
300
1-1/2" = 1'-0"
140
1.5
141
12.0
290
     0
  0
SCALE
  5
56
102
{ACAD_REACTORS
330
47
102
}
330
47
100
AcDbScale
 70
     0
300
3" = 1'-0"
140
3.0
141
12.0
290
     0
  0
SCALE
  5
57
102
{ACAD_REACTORS
330
47
102
}
330
47
100
AcDbScale
 70
     0
300
6" = 1'-0"
140
6.0
141
12.0
290
     0
  0
SCALE
  5
58
102
{ACAD_REACTORS
330
47
102
}
330
47
100
AcDbScale
 70
     0
300
1'-0" = 1'-0"
140
12.0
141
12.0
290
     0
  0
ENDSEC
  0
EOF
