  0
SECTION
  2
HEADER
  9
$ACADVER
  1
AC1015
  9
$ACADMAINTVER
 70
     6
  9
$DWGCODEPAGE
  3
ANSI_1252
  9
$INSBASE
 10
0.0
 20
0.0
 30
0.0
  9
$EXTMIN
 10
-12.9357502737
 20
-17.3040633873
 30
0.0
  9
$EXTMAX
 10
0.0388674824
 20
0.00346035
 30
0.0
  9
$LIMMIN
 10
0.0
 20
0.0
  9
$LIMMAX
 10
12.0
 20
9.0
  9
$ORTHOMODE
 70
     0
  9
$REGENMODE
 70
     1
  9
$FILLMODE
 70
     1
  9
$QTEXTMODE
 70
     0
  9
$MIRRTEXT
 70
     1
  9
$LTSCALE
 40
1.0
  9
$ATTMODE
 70
     1
  9
$TEXTSIZE
 40
0.1377952756
  9
$TRACEWID
 40
0.05
  9
$TEXTSTYLE
  7
Standard
  9
$CLAYER
  8
0
  9
$CELTYPE
  6
ByLayer
  9
$CECOLOR
 62
   256
  9
$CELTSCALE
 40
1.0
  9
$DISPSILH
 70
     0
  9
$DIMSCALE
 40
1.0
  9
$DIMASZ
 40
0.13
  9
$DIMEXO
 40
0.0
  9
$DIMDLI
 40
0.38
  9
$DIMRND
 40
0.0
  9
$DIMDLE
 40
0.0
  9
$DIMEXE
 40
0.0393700787
  9
$DIMTP
 40
0.0
  9
$DIMTM
 40
0.0
  9
$DIMTXT
 40
0.1377952756
  9
$DIMCEN
 40
0.09
  9
$DIMTSZ
 40
0.0
  9
$DIMTOL
 70
     0
  9
$DIMLIM
 70
     0
  9
$DIMTIH
 70
     1
  9
$DIMTOH
 70
     1
  9
$DIMSE1
 70
     0
  9
$DIMSE2
 70
     0
  9
$DIMTAD
 70
     1
  9
$DIMZIN
 70
     1
  9
$DIMBLK
  1

  9
$DIMASO
 70
     1
  9
$DIMSHO
 70
     1
  9
$DIMPOST
  1

  9
$DIMAPOST
  1

  9
$DIMALT
 70
     0
  9
$DIMALTD
 70
     2
  9
$DIMALTF
 40
25.4
  9
$DIMLFAC
 40
1.0
  9
$DIMTOFL
 70
     0
  9
$DIMTVP
 40
0.0
  9
$DIMTIX
 70
     0
  9
$DIMSOXD
 70
     0
  9
$DIMSAH
 70
     0
  9
$DIMBLK1
  1

  9
$DIMBLK2
  1

  9
$DIMSTYLE
  2
Standard
  9
$DIMCLRD
 70
     0
  9
$DIMCLRE
 70
     0
  9
$DIMCLRT
 70
     0
  9
$DIMTFAC
 40
1.0
  9
$DIMGAP
 40
0.06
  9
$DIMJUST
 70
     0
  9
$DIMSD1
 70
     0
  9
$DIMSD2
 70
     0
  9
$DIMTOLJ
 70
     1
  9
$DIMTZIN
 70
     1
  9
$DIMALTZ
 70
     0
  9
$DIMALTTZ
 70
     0
  9
$DIMUPT
 70
     0
  9
$DIMDEC
 70
     2
  9
$DIMTDEC
 70
     2
  9
$DIMALTU
 70
     2
  9
$DIMALTTD
 70
     2
  9
$DIMTXSTY
  7
Standard
  9
$DIMAUNIT
 70
     0
  9
$DIMADEC
 70
     2
  9
$DIMALTRND
 40
0.0
  9
$DIMAZIN
 70
     0
  9
$DIMDSEP
 70
    46
  9
$DIMATFIT
 70
     3
  9
$DIMFRAC
 70
     0
  9
$DIMLDRBLK
  1

  9
$DIMLUNIT
 70
     2
  9
$DIMLWD
 70
    -2
  9
$DIMLWE
 70
    -2
  9
$DIMTMOVE
 70
     0
  9
$LUNITS
 70
     2
  9
$LUPREC
 70
     2
  9
$SKETCHINC
 40
0.1
  9
$FILLETRAD
 40
0.0
  9
$AUNITS
 70
     0
  9
$AUPREC
 70
     2
  9
$MENU
  1
.
  9
$ELEVATION
 40
0.0
  9
$PELEVATION
 40
0.0
  9
$THICKNESS
 40
0.0
  9
$LIMCHECK
 70
     0
  9
$CHAMFERA
 40
0.0
  9
$CHAMFERB
 40
0.0
  9
$CHAMFERC
 40
0.0
  9
$CHAMFERD
 40
0.0
  9
$SKPOLY
 70
     0
  9
$TDCREATE
 40
2461089.666851806
  9
$TDUCREATE
 40
2461089.875185139
  9
$TDUPDATE
 40
2461089.666900382
  9
$TDUUPDATE
 40
2461089.875233716
  9
$TDINDWG
 40
0.0000000116
  9
$TDUSRTIMER
 40
0.0000000116
  9
$USRTIMER
 70
     1
  9
$ANGBASE
 50
0.0
  9
$ANGDIR
 70
     0
  9
$PDMODE
 70
     0
  9
$PDSIZE
 40
-1.0
  9
$PLINEWID
 40
0.0
  9
$SPLFRAME
 70
     0
  9
$SPLINETYPE
 70
     6
  9
$SPLINESEGS
 70
     8
  9
$HANDSEED
  5
156
  9
$SURFTAB1
 70
     6
  9
$SURFTAB2
 70
     6
  9
$SURFTYPE
 70
     6
  9
$SURFU
 70
     6
  9
$SURFV
 70
     6
  9
$UCSBASE
  2

  9
$UCSNAME
  2

  9
$UCSORG
 10
0.0
 20
0.0
 30
0.0
  9
$UCSXDIR
 10
1.0
 20
0.0
 30
0.0
  9
$UCSYDIR
 10
0.0
 20
1.0
 30
0.0
  9
$UCSORTHOREF
  2

  9
$UCSORTHOVIEW
 70
     0
  9
$UCSORGTOP
 10
0.0
 20
0.0
 30
0.0
  9
$UCSORGBOTTOM
 10
0.0
 20
0.0
 30
0.0
  9
$UCSORGLEFT
 10
0.0
 20
0.0
 30
0.0
  9
$UCSORGRIGHT
 10
0.0
 20
0.0
 30
0.0
  9
$UCSORGFRONT
 10
0.0
 20
0.0
 30
0.0
  9
$UCSORGBACK
 10
0.0
 20
0.0
 30
0.0
  9
$PUCSBASE
  2

  9
$PUCSNAME
  2

  9
$PUCSORG
 10
0.0
 20
0.0
 30
0.0
  9
$PUCSXDIR
 10
1.0
 20
0.0
 30
0.0
  9
$PUCSYDIR
 10
0.0
 20
1.0
 30
0.0
  9
$PUCSORTHOREF
  2

  9
$PUCSORTHOVIEW
 70
     0
  9
$PUCSORGTOP
 10
0.0
 20
0.0
 30
0.0
  9
$PUCSORGBOTTOM
 10
0.0
 20
0.0
 30
0.0
  9
$PUCSORGLEFT
 10
0.0
 20
0.0
 30
0.0
  9
$PUCSORGRIGHT
 10
0.0
 20
0.0
 30
0.0
  9
$PUCSORGFRONT
 10
0.0
 20
0.0
 30
0.0
  9
$PUCSORGBACK
 10
0.0
 20
0.0
 30
0.0
  9
$USERI1
 70
     0
  9
$USERI2
 70
     0
  9
$USERI3
 70
     0
  9
$USERI4
 70
     0
  9
$USERI5
 70
     0
  9
$USERR1
 40
0.0
  9
$USERR2
 40
0.0
  9
$USERR3
 40
0.0
  9
$USERR4
 40
0.0
  9
$USERR5
 40
0.0
  9
$WORLDVIEW
 70
     1
  9
$SHADEDGE
 70
     3
  9
$SHADEDIF
 70
    70
  9
$TILEMODE
 70
     1
  9
$MAXACTVP
 70
    64
  9
$PINSBASE
 10
0.0
 20
0.0
 30
0.0
  9
$PLIMCHECK
 70
     0
  9
$PEXTMIN
 10
1.0000000000E+20
 20
1.0000000000E+20
 30
1.0000000000E+20
  9
$PEXTMAX
 10
-1.0000000000E+20
 20
-1.0000000000E+20
 30
-1.0000000000E+20
  9
$PLIMMIN
 10
0.0
 20
0.0
  9
$PLIMMAX
 10
12.0
 20
9.0
  9
$UNITMODE
 70
     0
  9
$VISRETAIN
 70
     1
  9
$PLINEGEN
 70
     0
  9
$PSLTSCALE
 70
     1
  9
$TREEDEPTH
 70
  3020
  9
$CMLSTYLE
  2
Standard
  9
$CMLJUST
 70
     0
  9
$CMLSCALE
 40
1.0
  9
$PROXYGRAPHICS
 70
     1
  9
$MEASUREMENT
 70
     0
  9
$CELWEIGHT
370
    -1
  9
$ENDCAPS
280
     0
  9
$JOINSTYLE
280
     0
  9
$LWDISPLAY
290
     1
  9
$INSUNITS
 70
     1
  9
$HYPERLINKBASE
  1

  9
$STYLESHEET
  1

  9
$XEDIT
290
     1
  9
$CEPSNTYPE
380
     0
  9
$PSTYLEMODE
290
     1
  9
$FINGERPRINTGUID
  2
{0684557c-0dc3-4385-97fc-54298244622c}
  9
$VERSIONGUID
  2
{FAEB1C32-E019-11D5-929B-00C0DF256EC4}
  9
$EXTNAMES
290
     1
  9
$PSVPSCALE
 40
0.0
  9
$OLESTARTUP
290
     0
  0
ENDSEC
  0
SECTION
  2
CLASSES
  0
CLASS
  1
ACDBDICTIONARYWDFLT
  2
AcDbDictionaryWithDefault
  3
ObjectDBX Classes
 90
        0
280
     0
281
     0
  0
CLASS
  1
VISUALSTYLE
  2
AcDbVisualStyle
  3
ObjectDBX Classes
 90
     4095
280
     0
281
     0
  0
CLASS
  1
MATERIAL
  2
AcDbMaterial
  3
ObjectDBX Classes
 90
     1153
280
     0
281
     0
  0
CLASS
  1
SCALE
  2
AcDbScale
  3
ObjectDBX Classes
 90
     1153
280
     0
281
     0
  0
CLASS
  1
TABLESTYLE
  2
AcDbTableStyle
  3
ObjectDBX Classes
 90
     4095
280
     0
281
     0
  0
CLASS
  1
MLEADERSTYLE
  2
AcDbMLeaderStyle
  3
ACDB_MLEADERSTYLE_CLASS
 90
     4095
280
     0
281
     0
  0
CLASS
  1
SUN
  2
AcDbSun
  3
SCENEOE
 90
     1153
280
     0
281
     0
  0
CLASS
  1
ACDBPLACEHOLDER
  2
AcDbPlaceHolder
  3
ObjectDBX Classes
 90
        0
280
     0
281
     0
  0
CLASS
  1
LAYOUT
  2
AcDbLayout
  3
ObjectDBX Classes
 90
        0
280
     0
281
     0
  0
ENDSEC
  0
SECTION
  2
TABLES
  0
TABLE
  2
VPORT
  5
8
330
0
100
AcDbSymbolTable
 70
     1
  0
VPORT
  5
29
330
8
100
AcDbSymbolTableRecord
100
AcDbViewportTableRecord
  2
*Active
 70
     0
 10
0.0
 20
0.0
 11
1.0
 21
1.0
 12
-6.4484413956
 22
-8.6503015187
 13
0.0
 23
0.0
 14
0.5
 24
0.5
 15
0.5
 25
0.5
 16
0.0
 26
0.0
 36
1.0
 17
0.0
 27
0.0
 37
0.0
 40
17.653674212
 41
0.7496518828
 42
50.0
 43
0.0
 44
0.0
 50
0.0
 51
0.0
 71
     0
 72
   100
 73
     1
 74
     3
 75
     0
 76
     0
 77
     0
 78
     0
281
     0
 65
     1
110
0.0
120
0.0
130
0.0
111
1.0
121
0.0
131
0.0
112
0.0
122
1.0
132
0.0
 79
     0
146
0.0
  0
ENDTAB
  0
TABLE
  2
LTYPE
  5
5
330
0
100
AcDbSymbolTable
 70
     6
  0
LTYPE
  5
14
330
5
100
AcDbSymbolTableRecord
100
AcDbLinetypeTableRecord
  2
ByBlock
 70
     0
  3

 72
    65
 73
     0
 40
0.0
  0
LTYPE
  5
15
330
5
100
AcDbSymbolTableRecord
100
AcDbLinetypeTableRecord
  2
ByLayer
 70
     0
  3

 72
    65
 73
     0
 40
0.0
  0
LTYPE
  5
16
330
5
100
AcDbSymbolTableRecord
100
AcDbLinetypeTableRecord
  2
Continuous
 70
     0
  3
Solid line
 72
    65
 73
     0
 40
0.0
  0
LTYPE
  5
5E
330
5
100
AcDbSymbolTableRecord
100
AcDbLinetypeTableRecord
  2
HIDDEN
 70
     0
  3
Hidden __ __ __ __ __ __ __ __ __ __ __ __ __ __
 72
    65
 73
     2
 40
0.075
 49
0.05
 74
     0
 49
-0.025
 74
     0
  0
LTYPE
  5
5F
330
5
100
AcDbSymbolTableRecord
100
AcDbLinetypeTableRecord
  2
PHANTOM
 70
     0
  3
Phantom ______  __  __  ______  __  __  ______
 72
    65
 73
     6
 40
0.5
 49
0.25
 74
     0
 49
-0.05
 74
     0
 49
0.05
 74
     0
 49
-0.05
 74
     0
 49
0.05
 74
     0
 49
-0.05
 74
     0
  0
LTYPE
  5
60
330
5
100
AcDbSymbolTableRecord
100
AcDbLinetypeTableRecord
  2
CENTER
 70
     0
  3
Center ____ _ ____ _ ____ _ ____ _ ____ _ ____
 72
    65
 73
     4
 40
0.4
 49
0.25
 74
     0
 49
-0.05
 74
     0
 49
0.05
 74
     0
 49
-0.05
 74
     0
  0
LTYPE
  5
61
330
5
100
AcDbSymbolTableRecord
100
AcDbLinetypeTableRecord
  2
CENTERX2
 70
     0
  3
Center (2x) ________  __  ________  __  _____
 72
    65
 73
     4
 40
0.8
 49
0.5
 74
     0
 49
-0.1
 74
     0
 49
0.1
 74
     0
 49
-0.1
 74
     0
  0
LTYPE
  5
62
330
5
100
AcDbSymbolTableRecord
100
AcDbLinetypeTableRecord
  2
DOT2
 70
     0
  3
Dot (.5x) ........................................
 72
    65
 73
     2
 40
0.025
 49
0.0
 74
     0
 49
-0.025
 74
     0
  0
ENDTAB
  0
TABLE
  2
LAYER
  5
2
330
0
100
AcDbSymbolTable
 70
     1
  0
LAYER
  5
10
330
2
100
AcDbSymbolTableRecord
100
AcDbLayerTableRecord
  2
0
 70
     0
 62
     7
  6
Continuous
370
    -3
390
F
  0
ENDTAB
  0
TABLE
  2
STYLE
  5
3
330
0
100
AcDbSymbolTable
 70
     2
  0
STYLE
  5
11
330
3
100
AcDbSymbolTableRecord
100
AcDbTextStyleTableRecord
  2
Standard
 70
     0
 40
0.0
 41
1.0
 50
0.0
 71
     0
 42
0.1377952756
  3
txt
  4

  0
STYLE
  5
152
330
3
100
AcDbSymbolTableRecord
100
AcDbTextStyleTableRecord
  2
SLDTEXTSTYLE0
 70
     0
 40
0.0
 41
0.7
 50
0.0
 71
     0
 42
0.1377952756
  3
TXT
  4

  0
ENDTAB
  0
TABLE
  2
VIEW
  5
6
330
0
100
AcDbSymbolTable
 70
     0
  0
ENDTAB
  0
TABLE
  2
UCS
  5
7
330
0
100
AcDbSymbolTable
 70
     0
  0
ENDTAB
  0
TABLE
  2
APPID
  5
9
330
0
100
AcDbSymbolTable
 70
     1
  0
APPID
  5
12
330
9
100
AcDbSymbolTableRecord
100
AcDbRegAppTableRecord
  2
ACAD
 70
     0
  0
ENDTAB
  0
TABLE
  2
DIMSTYLE
  5
A
330
0
100
AcDbSymbolTable
 70
     1
100
AcDbDimStyleTable
  0
DIMSTYLE
105
27
330
A
100
AcDbSymbolTableRecord
100
AcDbDimStyleTableRecord
  2
Standard
 70
     0
178
     0
340
11
  0
ENDTAB
  0
TABLE
  2
BLOCK_RECORD
  5
1
330
0
100
AcDbSymbolTable
 70
     1
  0
BLOCK_RECORD
  5
1F
330
1
100
AcDbSymbolTableRecord
100
AcDbBlockTableRecord
  2
*Model_Space
340
22
  0
BLOCK_RECORD
  5
1B
330
1
100
AcDbSymbolTableRecord
100
AcDbBlockTableRecord
  2
*Paper_Space
340
1E
  0
BLOCK_RECORD
  5
23
330
1
100
AcDbSymbolTableRecord
100
AcDbBlockTableRecord
  2
*Paper_Space0
340
26
  0
ENDTAB
  0
ENDSEC
  0
SECTION
  2
BLOCKS
  0
BLOCK
  5
20
330
1F
100
AcDbEntity
  8
0
100
AcDbBlockBegin
  2
*Model_Space
 70
     0
 10
0.0
 20
0.0
 30
0.0
  3
*Model_Space
  1

  0
ENDBLK
  5
21
330
1F
100
AcDbEntity
  8
0
100
AcDbBlockEnd
  0
BLOCK
  5
1C
330
1B
100
AcDbEntity
 67
     1
  8
0
100
AcDbBlockBegin
  2
*Paper_Space
 70
     0
 10
0.0
 20
0.0
 30
0.0
  3
*Paper_Space
  1

  0
ENDBLK
  5
1D
330
1B
100
AcDbEntity
 67
     1
  8
0
100
AcDbBlockEnd
  0
BLOCK
  5
24
330
23
100
AcDbEntity
  8
0
100
AcDbBlockBegin
  2
*Paper_Space0
 70
     0
 10
0.0
 20
0.0
 30
0.0
  3
*Paper_Space0
  1

  0
ENDBLK
  5
25
330
23
100
AcDbEntity
  8
0
100
AcDbBlockEnd
  0
ENDSEC
  0
SECTION
  2
ENTITIES
  0
LWPOLYLINE
  5
63
330
1F
100
AcDbEntity
  8
0
  6
Continuous
 62
     7
370
    25
100
AcDbPolyline
 90
       36
 70
   128
 43
0.0
 10
-4.3962359074
 20
-12.0966745762
 10
-4.3893885868
 20
-12.0180925879
 10
-4.3687126602
 20
-11.9419740994
 10
-4.3348726687
 20
-11.8707656216
 10
-4.2889562576
 20
-11.8067558536
 10
-4.2324392181
 20
-11.752002122
 10
-4.1671380543
 20
-11.7082642567
 10
-4.0951515995
 20
-11.6769480287
 10
-4.0187935574
 20
-11.6590599674
 10
-3.9405181383
 20
-11.6551750098
 10
-3.8628411788
 20
-11.6654180217
 10
-3.78825928
 20
-11.6894597841
 10
-3.7191695657
 20
-11.726527575
 10
-3.6577926361
 20
-11.7754300052
 10
-3.6061011962
 20
-11.8345953104
 10
-3.5657566514
 20
-11.9021218689
 10
-3.5380557087
 20
-11.9758393215
 10
-3.523888699
 20
-12.0533783287
 10
-3.5237109617
 20
-12.1322467231
 10
-3.5375282095
 20
-12.2099096094
 10
-3.5648963446
 20
-12.2838708387
 10
-3.6049357327
 20
-12.3517532362
 10
-3.6563594749
 20
-12.4113750058
 10
-3.7175147698
 20
-12.4608198547
 10
-3.7864360358
 20
-12.4984985848
 10
-3.8609080869
 20
-12.5232001707
 10
-3.93853733
 20
-12.5341306832
 10
-4.0168286973
 20
-12.5309388065
 10
-4.0932658399
 20
-12.5137271303
 10
-4.1653920052
 20
-12.4830488518
 10
-4.2308889988
 20
-12.4398899964
 10
-4.2876516935
 20
-12.385637725
 10
-4.3338556895
 20
-12.3220357504
 10
-4.3680159525
 20
-12.2511282922
 10
-4.3890345434
 20
-12.1751943746
 10
-4.3962359074
 20
-12.0966745762
  0
LWPOLYLINE
  5
64
330
1F
100
AcDbEntity
  8
0
  6
Continuous
 62
     7
370
    25
100
AcDbPolyline
 90
       41
 70
   128
 43
0.0
 10
-11.1060554951
 20
-7.600808047
 10
-11.0993741324
 20
-7.5127990435
 10
-11.079098026
 20
-7.426896205
 10
-11.0457264408
 20
-7.3452147446
 10
-11.0000810961
 20
-7.2697659308
 10
-10.9432859318
 20
-7.2024075639
 10
-10.8767394333
 20
-7.1447982304
 10
-10.8020801961
 20
-7.0983564632
 10
-10.7211465787
 20
-7.0642258129
 10
-10.6359314351
 20
-7.0432466893
 10
-10.548533045
 20
-7.035935668
 10
-10.4611034469
 20
-7.0424727707
 10
-10.3757954477
 20
-7.0626970322
 10
-10.2947096133
 20
-7.0961104641
 10
-10.2198425462
 20
-7.1418903167
 10
-10.153037722
 20
-7.1989093382
 10
-10.0959400972
 20
-7.265763531
 10
-10.0499556048
 20
-7.340806723
 10
-10.0162165356
 20
-7.4221911018
 10
-9.9955536575
 20
-7.5079127139
 10
-9.9884757592
 20
-7.5958608087
 10
-9.9951571219
 20
-7.6838698121
 10
-10.0154332283
 20
-7.7697726506
 10
-10.0488048134
 20
-7.851454111
 10
-10.0944501581
 20
-7.9269029248
 10
-10.1512453224
 20
-7.9942612917
 10
-10.217791821
 20
-8.0518706252
 10
-10.2924510581
 20
-8.0983123924
 10
-10.3733846756
 20
-8.1324430427
 10
-10.4585998192
 20
-8.1534221663
 10
-10.5459982092
 20
-8.1607331876
 10
-10.6334278073
 20
-8.1541960849
 10
-10.7187358065
 20
-8.1339718234
 10
-10.7998216409
 20
-8.1005583916
 10
-10.874688708
 20
-8.054778539
 10
-10.9414935322
 20
-7.9977595175
 10
-10.998591157
 20
-7.9309053247
 10
-11.0445756494
 20
-7.8558621326
 10
-11.0783147186
 20
-7.7744777538
 10
-11.0989775967
 20
-7.6887561417
 10
-11.1060554951
 20
-7.600808047
  0
LWPOLYLINE
  5
65
330
1F
100
AcDbEntity
  8
0
  6
Continuous
 62
     7
370
    25
100
AcDbPolyline
 90
       36
 70
   128
 43
0.0
 10
-2.9270191452
 20
-12.343788915
 10
-2.9201718246
 20
-12.2652069267
 10
-2.8994958979
 20
-12.1890884382
 10
-2.8656559065
 20
-12.1178799604
 10
-2.8197394954
 20
-12.0538701924
 10
-2.7632224558
 20
-11.9991164607
 10
-2.6979212921
 20
-11.9553785954
 10
-2.6259348372
 20
-11.9240623675
 10
-2.5495767951
 20
-11.9061743062
 10
-2.4713013761
 20
-11.9022893486
 10
-2.3936244165
 20
-11.9125323604
 10
-2.3190425178
 20
-11.9365741228
 10
-2.2499528035
 20
-11.9736419138
 10
-2.1885758738
 20
-12.022544344
 10
-2.1368844339
 20
-12.0817096491
 10
-2.0965398892
 20
-12.1492362076
 10
-2.0688389464
 20
-12.2229536603
 10
-2.0546719367
 20
-12.3004926675
 10
-2.0544941994
 20
-12.3793610618
 10
-2.0683114472
 20
-12.4570239482
 10
-2.0956795824
 20
-12.5309851775
 10
-2.1357189705
 20
-12.598867575
 10
-2.1871427126
 20
-12.6584893445
 10
-2.2482980075
 20
-12.7079341934
 10
-2.3172192736
 20
-12.7456129235
 10
-2.3916913247
 20
-12.7703145095
 10
-2.4693205677
 20
-12.7812450219
 10
-2.5476119351
 20
-12.7780531453
 10
-2.6240490777
 20
-12.760841469
 10
-2.6961752429
 20
-12.7301631906
 10
-2.7616722365
 20
-12.6870043352
 10
-2.8184349312
 20
-12.6327520638
 10
-2.8646389273
 20
-12.5691500891
 10
-2.8987991902
 20
-12.498242631
 10
-2.9198177811
 20
-12.4223087134
 10
-2.9270191452
 20
-12.343788915
  0
LWPOLYLINE
  5
6A
330
1F
100
AcDbEntity
  8
0
  6
Continuous
 62
     7
370
    25
100
AcDbPolyline
 90
       41
 70
   128
 43
0.0
 10
-3.1442683449
 20
-14.0235251991
 10
-3.1371904466
 20
-14.1114732938
 10
-3.1165275685
 20
-14.1971949059
 10
-3.0827884993
 20
-14.2785792847
 10
-3.0368040069
 20
-14.3536224768
 10
-2.9797063821
 20
-14.4204766696
 10
-2.9129015579
 20
-14.4774956911
 10
-2.8380344908
 20
-14.5232755437
 10
-2.7569486564
 20
-14.5566889755
 10
-2.6716406572
 20
-14.576913237
 10
-2.5842110591
 20
-14.5834503397
 10
-2.496812669
 20
-14.5761393184
 10
-2.4115975254
 20
-14.5551601948
 10
-2.330663908
 20
-14.5210295445
 10
-2.2560046708
 20
-14.4745877773
 10
-2.1894581723
 20
-14.4169784438
 10
-2.132663008
 20
-14.3496200769
 10
-2.0870176633
 20
-14.2741712631
 10
-2.0536460782
 20
-14.1924898027
 10
-2.0333699717
 20
-14.1065869642
 10
-2.026688609
 20
-14.0185779608
 10
-2.0337665074
 20
-13.930629866
 10
-2.0544293855
 20
-13.8449082539
 10
-2.0881684547
 20
-13.7635238751
 10
-2.1341529471
 20
-13.6884806831
 10
-2.1912505719
 20
-13.6216264903
 10
-2.2580553961
 20
-13.5646074688
 10
-2.3329224632
 20
-13.5188276162
 10
-2.4140082976
 20
-13.4854141843
 10
-2.4993162968
 20
-13.4651899228
 10
-2.5867458949
 20
-13.4586528201
 10
-2.6741442849
 20
-13.4659638414
 10
-2.7593594285
 20
-13.486942965
 10
-2.840293046
 20
-13.5210736153
 10
-2.9149522831
 20
-13.5675153825
 10
-2.9814987817
 20
-13.625124716
 10
-3.038293946
 20
-13.6924830829
 10
-3.0839392907
 20
-13.7679318967
 10
-3.1173108758
 20
-13.8496133571
 10
-3.1375869822
 20
-13.9355161956
 10
-3.1442683449
 20
-14.0235251991
  0
LWPOLYLINE
  5
6B
330
1F
100
AcDbEntity
  8
0
  6
Continuous
 62
     7
370
    25
100
AcDbPolyline
 90
       41
 70
   128
 43
0.0
 10
-11.0892488351
 20
-15.0585255778
 10
-11.0821709367
 20
-15.1464736726
 10
-11.0615080586
 20
-15.2321952847
 10
-11.0277689895
 20
-15.3135796635
 10
-10.981784497
 20
-15.3886228555
 10
-10.9246868722
 20
-15.4554770483
 10
-10.857882048
 20
-15.5124960698
 10
-10.7830149809
 20
-15.5582759224
 10
-10.7019291466
 20
-15.5916893543
 10
-10.6166211473
 20
-15.6119136157
 10
-10.5291915492
 20
-15.6184507184
 10
-10.4417931592
 20
-15.6111396972
 10
-10.3565780156
 20
-15.5901605735
 10
-10.2756443981
 20
-15.5560299232
 10
-10.200985161
 20
-15.5095881561
 10
-10.1344386625
 20
-15.4519788225
 10
-10.0776434981
 20
-15.3846204556
 10
-10.0319981535
 20
-15.3091716419
 10
-9.9986265683
 20
-15.2274901814
 10
-9.9783504619
 20
-15.141587343
 10
-9.9716690992
 20
-15.0535783395
 10
-9.9787469976
 20
-14.9656302447
 10
-9.9994098757
 20
-14.8799086326
 10
-10.0331489448
 20
-14.7985242538
 10
-10.0791334372
 20
-14.7234810618
 10
-10.1362310621
 20
-14.656626869
 10
-10.2030358863
 20
-14.5996078475
 10
-10.2779029534
 20
-14.5538279949
 10
-10.3589887877
 20
-14.520414563
 10
-10.444296787
 20
-14.5001903016
 10
-10.531726385
 20
-14.4936531989
 10
-10.6191247751
 20
-14.5009642201
 10
-10.7043399187
 20
-14.5219433438
 10
-10.7852735362
 20
-14.5560739941
 10
-10.8599327733
 20
-14.6025157612
 10
-10.9264792718
 20
-14.6601250948
 10
-10.9832744362
 20
-14.7274834617
 10
-11.0289197808
 20
-14.8029322754
 10
-11.062291366
 20
-14.8846137359
 10
-11.0825674724
 20
-14.9705165743
 10
-11.0892488351
 20
-15.0585255778
  0
LWPOLYLINE
  5
6C
330
1F
100
AcDbEntity
  8
0
  6
Continuous
 62
     7
370
    25
100
AcDbPolyline
 90
       41
 70
   128
 43
0.0
 10
-9.1030037126
 20
-14.7997754831
 10
-9.0959258142
 20
-14.8877235779
 10
-9.0752629361
 20
-14.97344519
 10
-9.0415238669
 20
-15.0548295688
 10
-8.9955393745
 20
-15.1298727608
 10
-8.9384417497
 20
-15.1967269536
 10
-8.8716369255
 20
-15.2537459751
 10
-8.7967698584
 20
-15.2995258277
 10
-8.715684024
 20
-15.3329392596
 10
-8.6303760248
 20
-15.3531635211
 10
-8.5429464267
 20
-15.3597006238
 10
-8.4555480367
 20
-15.3523896025
 10
-8.3703328931
 20
-15.3314104789
 10
-8.2893992756
 20
-15.2972798285
 10
-8.2147400385
 20
-15.2508380614
 10
-8.1481935399
 20
-15.1932287279
 10
-8.0913983756
 20
-15.1258703609
 10
-8.0457530309
 20
-15.0504215472
 10
-8.0123814458
 20
-14.9687400867
 10
-7.9921053393
 20
-14.8828372483
 10
-7.9854239766
 20
-14.7948282448
 10
-7.992501875
 20
-14.70688015
 10
-8.0131647531
 20
-14.621158538
 10
-8.0469038223
 20
-14.5397741592
 10
-8.0928883147
 20
-14.4647309671
 10
-8.1499859395
 20
-14.3978767743
 10
-8.2167907637
 20
-14.3408577528
 10
-8.2916578308
 20
-14.2950779002
 10
-8.3727436652
 20
-14.2616644684
 10
-8.4580516644
 20
-14.2414402069
 10
-8.5454812625
 20
-14.2349031042
 10
-8.6328796526
 20
-14.2422141254
 10
-8.7180947961
 20
-14.2631932491
 10
-8.7990284136
 20
-14.2973238994
 10
-8.8736876507
 20
-14.3437656665
 10
-8.9402341493
 20
-14.4013750001
 10
-8.9970293136
 20
-14.468733367
 10
-9.0426746583
 20
-14.5441821808
 10
-9.0760462434
 20
-14.6258636412
 10
-9.0963223499
 20
-14.7117664796
 10
-9.1030037126
 20
-14.7997754831
  0
LWPOLYLINE
  5
6D
330
1F
100
AcDbEntity
  8
0
  6
Continuous
 62
     7
370
    25
100
AcDbPolyline
 90
       41
 70
   128
 43
0.0
 10
-7.11675859
 20
-14.5410253884
 10
-7.1096806916
 20
-14.6289734832
 10
-7.0890178135
 20
-14.7146950953
 10
-7.0552787444
 20
-14.7960794741
 10
-7.009294252
 20
-14.8711226661
 10
-6.9521966272
 20
-14.9379768589
 10
-6.885391803
 20
-14.9949958804
 10
-6.8105247358
 20
-15.040775733
 10
-6.7294389015
 20
-15.0741891649
 10
-6.6441309022
 20
-15.0944134264
 10
-6.5567013042
 20
-15.1009505291
 10
-6.4693029141
 20
-15.0936395078
 10
-6.3840877705
 20
-15.0726603842
 10
-6.303154153
 20
-15.0385297339
 10
-6.2284949159
 20
-14.9920879667
 10
-6.1619484174
 20
-14.9344786332
 10
-6.105153253
 20
-14.8671202663
 10
-6.0595079084
 20
-14.7916714525
 10
-6.0261363232
 20
-14.7099899921
 10
-6.0058602168
 20
-14.6240871536
 10
-5.9991788541
 20
-14.5360781501
 10
-6.0062567525
 20
-14.4481300554
 10
-6.0269196306
 20
-14.3624084433
 10
-6.0606586998
 20
-14.2810240645
 10
-6.1066431922
 20
-14.2059808724
 10
-6.163740817
 20
-14.1391266796
 10
-6.2305456412
 20
-14.0821076581
 10
-6.3054127083
 20
-14.0363278055
 10
-6.3864985426
 20
-14.0029143737
 10
-6.4718065419
 20
-13.9826901122
 10
-6.55923614
 20
-13.9761530095
 10
-6.64663453
 20
-13.9834640308
 10
-6.7318496736
 20
-14.0044431544
 10
-6.8127832911
 20
-14.0385738047
 10
-6.8874425282
 20
-14.0850155719
 10
-6.9539890267
 20
-14.1426249054
 10
-7.0107841911
 20
-14.2099832723
 10
-7.0564295357
 20
-14.2854320861
 10
-7.0898011209
 20
-14.3671135465
 10
-7.1100772273
 20
-14.453016385
 10
-7.11675859
 20
-14.5410253884
  0
LWPOLYLINE
  5
6E
330
1F
100
AcDbEntity
  8
0
  6
Continuous
 62
     7
370
    25
100
AcDbPolyline
 90
       41
 70
   128
 43
0.0
 10
-5.1305134675
 20
-14.2822752938
 10
-5.1234355691
 20
-14.3702233885
 10
-5.102772691
 20
-14.4559450006
 10
-5.0690336218
 20
-14.5373293794
 10
-5.0230491294
 20
-14.6123725714
 10
-4.9659515046
 20
-14.6792267643
 10
-4.8991466804
 20
-14.7362457857
 10
-4.8242796133
 20
-14.7820256384
 10
-4.7431937789
 20
-14.8154390702
 10
-4.6578857797
 20
-14.8356633317
 10
-4.5704561816
 20
-14.8422004344
 10
-4.4830577916
 20
-14.8348894131
 10
-4.397842648
 20
-14.8139102895
 10
-4.3169090305
 20
-14.7797796392
 10
-4.2422497934
 20
-14.733337872
 10
-4.1757032948
 20
-14.6757285385
 10
-4.1189081305
 20
-14.6083701716
 10
-4.0732627858
 20
-14.5329213578
 10
-4.0398912007
 20
-14.4512398974
 10
-4.0196150943
 20
-14.3653370589
 10
-4.0129337316
 20
-14.2773280554
 10
-4.0200116299
 20
-14.1893799607
 10
-4.040674508
 20
-14.1036583486
 10
-4.0744135772
 20
-14.0222739698
 10
-4.1203980696
 20
-13.9472307778
 10
-4.1774956944
 20
-13.8803765849
 10
-4.2443005186
 20
-13.8233575635
 10
-4.3191675857
 20
-13.7775777108
 10
-4.4002534201
 20
-13.744164279
 10
-4.4855614193
 20
-13.7239400175
 10
-4.5729910174
 20
-13.7174029148
 10
-4.6603894075
 20
-13.7247139361
 10
-4.7456045511
 20
-13.7456930597
 10
-4.8265381685
 20
-13.77982371
 10
-4.9011974057
 20
-13.8262654772
 10
-4.9677439042
 20
-13.8838748107
 10
-5.0245390685
 20
-13.9512331776
 10
-5.0701844132
 20
-14.0266819914
 10
-5.1035559983
 20
-14.1083634518
 10
-5.1238321048
 20
-14.1942662903
 10
-5.1305134675
 20
-14.2822752938
  0
CIRCLE
  5
6F
330
1F
100
AcDbEntity
  8
0
  6
Continuous
 62
     7
370
    25
100
AcDbCircle
 10
-0.4594764551
 20
-16.7491205144
 30
0.0
 40
0.1048234373177721
  0
CIRCLE
  5
70
330
1F
100
AcDbEntity
  8
0
  6
Continuous
 62
     7
370
    25
100
AcDbCircle
 10
-12.4153474916
 20
-0.8048978772
 30
0.0
 40
0.1048234373177694
  0
CIRCLE
  5
71
330
1F
100
AcDbEntity
  8
0
  6
Continuous
 62
     7
370
    25
100
AcDbCircle
 10
-12.414220898
 20
-1.3048078859
 30
0.0
 40
0.1048234373177729
  0
CIRCLE
  5
72
330
1F
100
AcDbEntity
  8
0
  6
Continuous
 62
     7
370
    25
100
AcDbCircle
 10
-11.8836248666
 20
-16.7996922839
 30
0.0
 40
0.1048234373177676
  0
CIRCLE
  5
73
330
1F
100
AcDbEntity
  8
0
  6
Continuous
 62
     7
370
    25
100
AcDbCircle
 10
-11.3869227617
 20
-16.7974935113
 30
0.0
 40
0.1048234373177694
  0
CIRCLE
  5
74
330
1F
100
AcDbEntity
  8
0
  6
Continuous
 62
     7
370
    25
100
AcDbCircle
 10
-10.8902206569
 20
-16.7952947387
 30
0.0
 40
0.1048234373177694
  0
CIRCLE
  5
75
330
1F
100
AcDbEntity
  8
0
  6
Continuous
 62
     7
370
    25
100
AcDbCircle
 10
-12.3871826493
 20
-13.3026480947
 30
0.0
 40
0.1048234373177712
  0
CIRCLE
  5
76
330
1F
100
AcDbEntity
  8
0
  6
Continuous
 62
     7
370
    25
100
AcDbCircle
 10
-12.4130943043
 20
-1.8047178946
 30
0.0
 40
0.1048234373177694
  0
CIRCLE
  5
77
330
1F
100
AcDbEntity
  8
0
  6
Continuous
 62
     7
370
    25
100
AcDbCircle
 10
-12.3792964935
 20
-16.8020181556
 30
0.0
 40
0.1048234373177694
  0
CIRCLE
  5
78
330
1F
100
AcDbEntity
  8
0
  6
Continuous
 62
     7
370
    25
100
AcDbCircle
 10
-12.3804230872
 20
-16.3021081469
 30
0.0
 40
0.104823437317773
  0
CIRCLE
  5
79
330
1F
100
AcDbEntity
  8
0
  6
Continuous
 62
     7
370
    25
100
AcDbCircle
 10
-12.3815496808
 20
-15.8021981382
 30
0.0
 40
0.1048234373177676
  0
CIRCLE
  5
7A
330
1F
100
AcDbEntity
  8
0
  6
Continuous
 62
     7
370
    25
100
AcDbCircle
 10
-0.467362611
 20
-13.2497504536
 30
0.0
 40
0.1048234373177654
  0
CIRCLE
  5
7B
330
1F
100
AcDbEntity
  8
0
  6
Continuous
 62
     7
370
    25
100
AcDbCircle
 10
-0.4662360173
 20
-13.7496604622
 30
0.0
 40
0.1048234373177661
  0
CIRCLE
  5
7C
330
1F
100
AcDbEntity
  8
0
  6
Continuous
 62
     7
370
    25
100
AcDbCircle
 10
-0.4651094236
 20
-14.2495704709
 30
0.0
 40
0.104823437317766
  0
CIRCLE
  5
7D
330
1F
100
AcDbEntity
  8
0
  6
Continuous
 62
     7
370
    25
100
AcDbCircle
 10
-0.4639828299
 20
-14.7494804796
 30
0.0
 40
0.1048234373177677
  0
CIRCLE
  5
7E
330
1F
100
AcDbEntity
  8
0
  6
Continuous
 62
     7
370
    25
100
AcDbCircle
 10
-12.3849294619
 20
-14.3024681121
 30
0.0
 40
0.104823437317773
  0
CIRCLE
  5
7F
330
1F
100
AcDbEntity
  8
0
  6
Continuous
 62
     7
370
    25
100
AcDbCircle
 10
-0.4606030488
 20
-16.2492105057
 30
0.0
 40
0.1048234373177676
  0
CIRCLE
  5
80
330
1F
100
AcDbEntity
  8
0
  6
Continuous
 62
     7
370
    25
100
AcDbCircle
 10
-0.4617296425
 20
-15.749300497
 30
0.0
 40
0.104823437317767
  0
CIRCLE
  5
81
330
1F
100
AcDbEntity
  8
0
  6
Continuous
 62
     7
370
    25
100
AcDbCircle
 10
-0.4628562362
 20
-15.2493904883
 30
0.0
 40
0.1048234373177701
  0
CIRCLE
  5
82
330
1F
100
AcDbEntity
  8
0
  6
Continuous
 62
     7
370
    25
100
AcDbCircle
 10
-0.95617856
 20
-16.751319287
 30
0.0
 40
0.104823437317771
  0
CIRCLE
  5
83
330
1F
100
AcDbEntity
  8
0
  6
Continuous
 62
     7
370
    25
100
AcDbCircle
 10
-1.4528806648
 20
-16.7535180596
 30
0.0
 40
0.1048234373177734
  0
CIRCLE
  5
84
330
1F
100
AcDbEntity
  8
0
  6
Continuous
 62
     7
370
    25
100
AcDbCircle
 10
-1.9495827697
 20
-16.7557168322
 30
0.0
 40
0.1048234373177696
  0
CIRCLE
  5
85
330
1F
100
AcDbEntity
  8
0
  6
Continuous
 62
     7
370
    25
100
AcDbCircle
 10
-2.4462848745
 20
-16.7579156048
 30
0.0
 40
0.1048234373177698
  0
CIRCLE
  5
86
330
1F
100
AcDbEntity
  8
0
  6
Continuous
 62
     7
370
    25
100
AcDbCircle
 10
-2.9429869793
 20
-16.7601143774
 30
0.0
 40
0.1048234373177659
  0
CIRCLE
  5
87
330
1F
100
AcDbEntity
  8
0
  6
Continuous
 62
     7
370
    25
100
AcDbCircle
 10
-3.4396890842
 20
-16.7623131499
 30
0.0
 40
0.1048234373177663
  0
CIRCLE
  5
88
330
1F
100
AcDbEntity
  8
0
  6
Continuous
 62
     7
370
    25
100
AcDbCircle
 10
-3.936391189
 20
-16.7645119225
 30
0.0
 40
0.104823437317768
  0
CIRCLE
  5
89
330
1F
100
AcDbEntity
  8
0
  6
Continuous
 62
     7
370
    25
100
AcDbCircle
 10
-4.4330932939
 20
-16.7667106951
 30
0.0
 40
0.1048234373177703
  0
CIRCLE
  5
8A
330
1F
100
AcDbEntity
  8
0
  6
Continuous
 62
     7
370
    25
100
AcDbCircle
 10
-0.4932742659
 20
-1.7518202535
 30
0.0
 40
0.1048234373177685
  0
CIRCLE
  5
8B
330
1F
100
AcDbEntity
  8
0
  6
Continuous
 62
     7
370
    25
100
AcDbCircle
 10
-0.4944008596
 20
-1.2519102448
 30
0.0
 40
0.1048234373177688
  0
CIRCLE
  5
8C
330
1F
100
AcDbEntity
  8
0
  6
Continuous
 62
     7
370
    25
100
AcDbCircle
 10
-0.4955274533
 20
-0.7520002361
 30
0.0
 40
0.1048234373177691
  0
CIRCLE
  5
8D
330
1F
100
AcDbEntity
  8
0
  6
Continuous
 62
     7
370
    25
100
AcDbCircle
 10
-12.3860560556
 20
-13.8025581034
 30
0.0
 40
0.1048234373177694
  0
CIRCLE
  5
8E
330
1F
100
AcDbEntity
  8
0
  6
Continuous
 62
     7
370
    25
100
AcDbCircle
 10
-10.3935185521
 20
-16.7930959661
 30
0.0
 40
0.1048234373177641
  0
CIRCLE
  5
8F
330
1F
100
AcDbEntity
  8
0
  6
Continuous
 62
     7
370
    25
100
AcDbCircle
 10
-9.8968164472
 20
-16.7908971935
 30
0.0
 40
0.1048234373177676
  0
CIRCLE
  5
90
330
1F
100
AcDbEntity
  8
0
  6
Continuous
 62
     7
370
    25
100
AcDbCircle
 10
-9.4001143424
 20
-16.7886984209
 30
0.0
 40
0.1048234373177676
  0
CIRCLE
  5
91
330
1F
100
AcDbEntity
  8
0
  6
Continuous
 62
     7
370
    25
100
AcDbCircle
 10
-8.9034122375
 20
-16.7864996484
 30
0.0
 40
0.1048234373177694
  0
CIRCLE
  5
92
330
1F
100
AcDbEntity
  8
0
  6
Continuous
 62
     7
370
    25
100
AcDbCircle
 10
-8.4067101327
 20
-16.7843008758
 30
0.0
 40
0.1048234373177676
  0
CIRCLE
  5
93
330
1F
100
AcDbEntity
  8
0
  6
Continuous
 62
     7
370
    25
100
AcDbCircle
 10
-7.9100080278
 20
-16.7821021032
 30
0.0
 40
0.1048234373177676
  0
CIRCLE
  5
94
330
1F
100
AcDbEntity
  8
0
  6
Continuous
 62
     7
370
    25
100
AcDbCircle
 10
-7.413305923
 20
-16.7799033306
 30
0.0
 40
0.1048234373177721
  0
CIRCLE
  5
95
330
1F
100
AcDbEntity
  8
0
  6
Continuous
 62
     7
370
    25
100
AcDbCircle
 10
-6.9166038181
 20
-16.777704558
 30
0.0
 40
0.1048234373177667
  0
CIRCLE
  5
96
330
1F
100
AcDbEntity
  8
0
  6
Continuous
 62
     7
370
    25
100
AcDbCircle
 10
-6.4199017133
 20
-16.7755057854
 30
0.0
 40
0.1048234373177711
  0
CIRCLE
  5
97
330
1F
100
AcDbEntity
  8
0
  6
Continuous
 62
     7
370
    25
100
AcDbCircle
 10
-5.9231996084
 20
-16.7733070129
 30
0.0
 40
0.1048234373177676
  0
CIRCLE
  5
98
330
1F
100
AcDbEntity
  8
0
  6
Continuous
 62
     7
370
    25
100
AcDbCircle
 10
-5.4264975036
 20
-16.7711082403
 30
0.0
 40
0.1048234373177685
  0
CIRCLE
  5
99
330
1F
100
AcDbEntity
  8
0
  6
Continuous
 62
     7
370
    25
100
AcDbCircle
 10
-4.9297953987
 20
-16.7689094677
 30
0.0
 40
0.1048234373177721
  0
LINE
  5
F4
330
1F
100
AcDbEntity
  8
0
  6
Continuous
 62
     7
370
    25
100
AcDbLine
 10
0.0388674824
 20
-17.2468953001
 30
0.0
 11
-12.8753872436
 21
-17.3040633873
 31
0.0
  0
LINE
  5
F5
330
1F
100
AcDbEntity
  8
0
  6
Continuous
 62
     7
370
    25
100
AcDbLine
 10
-12.8753872436
 20
-17.3040633873
 30
0.0
 11
-12.914254726
 21
-0.0571680872
 31
0.0
  0
LINE
  5
F6
330
1F
100
AcDbEntity
  8
0
  6
Continuous
 62
     7
370
    25
100
AcDbLine
 10
-12.914254726
 20
-0.0571680872
 30
0.0
 11
0.0
 21
0.0
 31
0.0
  0
LINE
  5
F7
330
1F
100
AcDbEntity
  8
0
  6
Continuous
 62
     7
370
    25
100
AcDbLine
 10
0.0
 20
0.0
 30
0.0
 11
0.0388674824
 21
-17.2468953001
 31
0.0
  0
LINE
  5
F8
330
1F
100
AcDbEntity
  8
0
  6
Continuous
 62
     7
370
    25
100
AcDbLine
 10
-12.8968827913
 20
-17.3006030373
 30
0.0
 11
-12.8753872436
 21
-17.3040633873
 31
0.0
  0
LINE
  5
F9
330
1F
100
AcDbEntity
  8
0
  6
Continuous
 62
     7
370
    25
100
AcDbLine
 10
-12.8968827913
 20
-17.3006030373
 30
0.0
 11
-12.9357502737
 21
-0.0537077372
 31
0.0
  0
LINE
  5
FA
330
1F
100
AcDbEntity
  8
0
  6
Continuous
 62
     7
370
    25
100
AcDbLine
 10
-12.9357502737
 20
-0.0537077372
 30
0.0
 11
-12.914254726
 21
-0.0571680872
 31
0.0
  0
LINE
  5
FB
330
1F
100
AcDbEntity
  8
0
  6
Continuous
 62
     7
370
    25
100
AcDbLine
 10
-12.9357502737
 20
-0.0537077372
 30
0.0
 11
-0.0214955477
 21
0.00346035
 31
0.0
  0
LINE
  5
FC
330
1F
100
AcDbEntity
  8
0
  6
Continuous
 62
     7
370
    25
100
AcDbLine
 10
-0.0214955477
 20
0.00346035
 30
0.0
 11
0.0
 21
0.0
 31
0.0
  0
ARC
  5
FD
330
1F
100
AcDbEntity
  8
0
  6
Continuous
 62
     7
370
    25
100
AcDbCircle
 10
-12.4379311903
 20
-0.8012817504
 30
0.0
 40
0.1050540393015039
100
AcDbArc
 50
267.1211923983
 51
74.588790909
  0
ARC
  5
FE
330
1F
100
AcDbEntity
  8
0
  6
Continuous
 62
     7
370
    25
100
AcDbCircle
 10
-12.4368045966
 20
-1.3011917591
 30
0.0
 40
0.1050540393014986
100
AcDbArc
 50
267.1211923976
 51
74.5887909097
  0
ARC
  5
FF
330
1F
100
AcDbEntity
  8
0
  6
Continuous
 62
     7
370
    25
100
AcDbCircle
 10
-12.4356780029
 20
-1.8011017678
 30
0.0
 40
0.1050540393014968
100
AcDbArc
 50
267.1211923973
 51
74.5887909094
  0
ARC
  5
100
330
1F
100
AcDbEntity
  8
0
  6
Continuous
 62
     7
370
    25
100
AcDbCircle
 10
-12.4097663479
 20
-13.2990319678
 30
0.0
 40
0.1050540393014793
100
AcDbArc
 50
267.1211923954
 51
74.5887909118
  0
ARC
  5
101
330
1F
100
AcDbEntity
  8
0
  6
Continuous
 62
     7
370
    25
100
AcDbCircle
 10
-12.4086397543
 20
-13.7989419765
 30
0.0
 40
0.105054039301466
100
AcDbArc
 50
267.1211923936
 51
74.5887909136
  0
ARC
  5
102
330
1F
100
AcDbEntity
  8
0
  6
Continuous
 62
     7
370
    25
100
AcDbCircle
 10
-12.4075131606
 20
-14.2988519852
 30
0.0
 40
0.1050540393014158
100
AcDbArc
 50
267.1211923881
 51
74.5887909189
  0
ARC
  5
103
330
1F
100
AcDbEntity
  8
0
  6
Continuous
 62
     7
370
    25
100
AcDbCircle
 10
-10.5718680784
 20
-7.594373929
 30
0.0
 40
0.5625682612144819
100
AcDbArc
 50
262.2843609605
 51
79.4256223405
  0
ARC
  5
104
330
1F
100
AcDbEntity
  8
0
  6
Continuous
 62
     7
370
    25
100
AcDbCircle
 10
-12.4041333795
 20
-15.7985820113
 30
0.0
 40
0.1050540393014689
100
AcDbArc
 50
267.1211923939
 51
74.5887909133
  0
ARC
  5
105
330
1F
100
AcDbEntity
  8
0
  6
Continuous
 62
     7
370
    25
100
AcDbCircle
 10
-12.4030067858
 20
-16.29849202
 30
0.0
 40
0.1050540393014975
100
AcDbArc
 50
267.1211924031
 51
74.5887909151
  0
ARC
  5
106
330
1F
100
AcDbEntity
  8
0
  6
Continuous
 62
     7
370
    25
100
AcDbCircle
 10
-12.4018801921
 20
-16.7984020287
 30
0.0
 40
0.1050540393013338
100
AcDbArc
 50
267.1211923786
 51
74.5887909282
  0
ARC
  5
107
330
1F
100
AcDbEntity
  8
0
  6
Continuous
 62
     7
370
    25
100
AcDbCircle
 10
-11.9048455776
 20
-16.7957696509
 30
0.0
 40
0.1045478639812673
100
AcDbArc
 50
359.9648763638
 51
74.7013162829
  0
ARC
  5
108
330
1F
100
AcDbEntity
  8
0
  6
Continuous
 62
     7
370
    25
100
AcDbCircle
 10
-11.9051347806
 20
-16.7964210668
 30
0.0
 40
0.104838692527491
100
AcDbArc
 50
267.0915761845
 51
0.3209831686
  0
ARC
  5
109
330
1F
100
AcDbEntity
  8
0
  6
Continuous
 62
     7
370
    25
100
AcDbCircle
 10
-11.4081434727
 20
-16.7935708784
 30
0.0
 40
0.1045478639810916
100
AcDbArc
 50
359.9648763638
 51
74.7013163002
  0
ARC
  5
10A
330
1F
100
AcDbEntity
  8
0
  6
Continuous
 62
     7
370
    25
100
AcDbCircle
 10
-11.4084326758
 20
-16.7942222942
 30
0.0
 40
0.1048386925272955
100
AcDbArc
 50
267.0915761668
 51
0.3209831687
  0
ARC
  5
10B
330
1F
100
AcDbEntity
  8
0
  6
Continuous
 62
     7
370
    25
100
AcDbCircle
 10
-10.5550614184
 20
-15.0520914598
 30
0.0
 40
0.5625682612170158
100
AcDbArc
 50
262.2843610127
 51
79.4256222984
  0
ARC
  5
10C
330
1F
100
AcDbEntity
  8
0
  6
Continuous
 62
     7
370
    25
100
AcDbCircle
 10
-10.9114413679
 20
-16.7913721058
 30
0.0
 40
0.1045478639811092
100
AcDbArc
 50
359.9648763638
 51
74.7013162998
  0
ARC
  5
10D
330
1F
100
AcDbEntity
  8
0
  6
Continuous
 62
     7
370
    25
100
AcDbCircle
 10
-10.9117305709
 20
-16.7920235217
 30
0.0
 40
0.1048386925273086
100
AcDbArc
 50
267.0915761672
 51
0.3209831687
  0
ARC
  5
10E
330
1F
100
AcDbEntity
  8
0
  6
Continuous
 62
     7
370
    25
100
AcDbCircle
 10
-10.414739263
 20
-16.7891733332
 30
0.0
 40
0.1045478639812221
100
AcDbArc
 50
359.9648763638
 51
74.7013162865
  0
ARC
  5
10F
330
1F
100
AcDbEntity
  8
0
  6
Continuous
 62
     7
370
    25
100
AcDbCircle
 10
-10.4150284661
 20
-16.7898247491
 30
0.0
 40
0.1048386925274486
100
AcDbArc
 50
267.0915761809
 51
0.3209831686
  0
ARC
  5
110
330
1F
100
AcDbEntity
  8
0
  6
Continuous
 62
     7
370
    25
100
AcDbCircle
 10
-9.9180371582
 20
-16.7869745606
 30
0.0
 40
0.10454786398078
100
AcDbArc
 50
359.9648763637
 51
74.7013163325
  0
ARC
  5
111
330
1F
100
AcDbEntity
  8
0
  6
Continuous
 62
     7
370
    25
100
AcDbCircle
 10
-9.9183263612
 20
-16.7876259765
 30
0.0
 40
0.1048386925269525
100
AcDbArc
 50
267.0915761337
 51
0.3209831687
  0
ARC
  5
112
330
1F
100
AcDbEntity
  8
0
  6
Continuous
 62
     7
370
    25
100
AcDbCircle
 10
-9.4213350534
 20
-16.784775788
 30
0.0
 40
0.1045478639809322
100
AcDbArc
 50
359.9648763637
 51
74.7013163156
  0
ARC
  5
113
330
1F
100
AcDbEntity
  8
0
  6
Continuous
 62
     7
370
    25
100
AcDbCircle
 10
-9.4216242564
 20
-16.7854272039
 30
0.0
 40
0.1048386925271314
100
AcDbArc
 50
267.091576151
 51
0.3209831687
  0
ARC
  5
114
330
1F
100
AcDbEntity
  8
0
  6
Continuous
 62
     7
370
    25
100
AcDbCircle
 10
-8.5688162959
 20
-14.7933413651
 30
0.0
 40
0.5625682612146098
100
AcDbArc
 50
262.2843609645
 51
79.4256223399
  0
ARC
  5
115
330
1F
100
AcDbEntity
  8
0
  6
Continuous
 62
     7
370
    25
100
AcDbCircle
 10
-8.9246329485
 20
-16.7825770154
 30
0.0
 40
0.1045478639809486
100
AcDbArc
 50
359.9648763638
 51
74.7013163154
  0
ARC
  5
116
330
1F
100
AcDbEntity
  8
0
  6
Continuous
 62
     7
370
    25
100
AcDbCircle
 10
-8.9249221515
 20
-16.7832284313
 30
0.0
 40
0.1048386925271385
100
AcDbArc
 50
267.0915761512
 51
0.3209831687
  0
ARC
  5
117
330
1F
100
AcDbEntity
  8
0
  6
Continuous
 62
     7
370
    25
100
AcDbCircle
 10
-8.4279308437
 20
-16.7803782429
 30
0.0
 40
0.1045478639812398
100
AcDbArc
 50
359.9648763638
 51
74.7013162863
  0
ARC
  5
118
330
1F
100
AcDbEntity
  8
0
  6
Continuous
 62
     7
370
    25
100
AcDbCircle
 10
-8.4282200467
 20
-16.7810296587
 30
0.0
 40
0.1048386925274645
100
AcDbArc
 50
267.091576181
 51
0.3209831686
  0
ARC
  5
119
330
1F
100
AcDbEntity
  8
0
  6
Continuous
 62
     7
370
    25
100
AcDbCircle
 10
-7.9312287388
 20
-16.7781794703
 30
0.0
 40
0.1045478639810303
100
AcDbArc
 50
359.9648763638
 51
74.7013163066
  0
ARC
  5
11A
330
1F
100
AcDbEntity
  8
0
  6
Continuous
 62
     7
370
    25
100
AcDbCircle
 10
-7.9315179418
 20
-16.7788308862
 30
0.0
 40
0.1048386925272218
100
AcDbArc
 50
267.0915761602
 51
0.3209831687
  0
ARC
  5
11B
330
1F
100
AcDbEntity
  8
0
  6
Continuous
 62
     7
370
    25
100
AcDbCircle
 10
-6.5825711733
 20
-14.5345912704
 30
0.0
 40
0.5625682612184522
100
AcDbArc
 50
262.2843610416
 51
79.4256222736
  0
ARC
  5
11C
330
1F
100
AcDbEntity
  8
0
  6
Continuous
 62
     7
370
    25
100
AcDbCircle
 10
-7.434526634
 20
-16.7759806977
 30
0.0
 40
0.1045478639808992
100
AcDbArc
 50
359.9648763637
 51
74.7013163195
  0
ARC
  5
11D
330
1F
100
AcDbEntity
  8
0
  6
Continuous
 62
     7
370
    25
100
AcDbCircle
 10
-7.434815837
 20
-16.7766321136
 30
0.0
 40
0.104838692527102
100
AcDbArc
 50
267.091576147
 51
0.3209831687
  0
ARC
  5
11E
330
1F
100
AcDbEntity
  8
0
  6
Continuous
 62
     7
370
    25
100
AcDbCircle
 10
-6.9378245291
 20
-16.7737819251
 30
0.0
 40
0.1045478639812976
100
AcDbArc
 50
359.9648763638
 51
74.701316282
  0
ARC
  5
11F
330
1F
100
AcDbEntity
  8
0
  6
Continuous
 62
     7
370
    25
100
AcDbCircle
 10
-6.9381137321
 20
-16.774433341
 30
0.0
 40
0.1048386925275053
100
AcDbArc
 50
267.0915761854
 51
0.3209831686
  0
ARC
  5
120
330
1F
100
AcDbEntity
  8
0
  6
Continuous
 62
     7
370
    25
100
AcDbCircle
 10
-6.4411224243
 20
-16.7715831525
 30
0.0
 40
0.1045478639809816
100
AcDbArc
 50
359.9648763638
 51
74.701316312
  0
ARC
  5
121
330
1F
100
AcDbEntity
  8
0
  6
Continuous
 62
     7
370
    25
100
AcDbCircle
 10
-6.4414116273
 20
-16.7722345684
 30
0.0
 40
0.1048386925271863
100
AcDbArc
 50
267.0915761547
 51
0.3209831687
  0
ARC
  5
122
330
1F
100
AcDbEntity
  8
0
  6
Continuous
 62
     7
370
    25
100
AcDbCircle
 10
-5.9444203194
 20
-16.7693843799
 30
0.0
 40
0.1045478639808619
100
AcDbArc
 50
359.9648763637
 51
74.7013163221
  0
ARC
  5
123
330
1F
100
AcDbEntity
  8
0
  6
Continuous
 62
     7
370
    25
100
AcDbCircle
 10
-5.9447095224
 20
-16.7700357958
 30
0.0
 40
0.1048386925270701
100
AcDbArc
 50
267.0915761444
 51
0.3209831687
  0
ARC
  5
124
330
1F
100
AcDbEntity
  8
0
  6
Continuous
 62
     7
370
    25
100
AcDbCircle
 10
-4.5963260508
 20
-14.2758411757
 30
0.0
 40
0.5625682612132217
100
AcDbArc
 50
262.2843609366
 51
79.4256223637
  0
ARC
  5
125
330
1F
100
AcDbEntity
  8
0
  6
Continuous
 62
     7
370
    25
100
AcDbCircle
 10
-5.4477182146
 20
-16.7671856074
 30
0.0
 40
0.1045478639809433
100
AcDbArc
 50
359.9648763638
 51
74.7013163153
  0
ARC
  5
126
330
1F
100
AcDbEntity
  8
0
  6
Continuous
 62
     7
370
    25
100
AcDbCircle
 10
-5.4480074176
 20
-16.7678370232
 30
0.0
 40
0.1048386925271334
100
AcDbArc
 50
267.0915761513
 51
0.3209831687
  0
ARC
  5
127
330
1F
100
AcDbEntity
  8
0
  6
Continuous
 62
     7
370
    25
100
AcDbCircle
 10
-3.9829030844
 20
-12.0909139656
 30
0.0
 40
0.4400610323814037
100
AcDbArc
 50
262.5719103508
 51
79.1380729564
  0
ARC
  5
128
330
1F
100
AcDbEntity
  8
0
  6
Continuous
 62
     7
370
    25
100
AcDbCircle
 10
-4.9510161097
 20
-16.7649868348
 30
0.0
 40
0.1045478639810791
100
AcDbArc
 50
359.9648763638
 51
74.701316302
  0
ARC
  5
129
330
1F
100
AcDbEntity
  8
0
  6
Continuous
 62
     7
370
    25
100
AcDbCircle
 10
-4.9513053128
 20
-16.7656382507
 30
0.0
 40
0.104838692527282
100
AcDbArc
 50
267.0915761649
 51
0.3209831687
  0
ARC
  5
12A
330
1F
100
AcDbEntity
  8
0
  6
Continuous
 62
     7
370
    25
100
AcDbCircle
 10
-4.4543140049
 20
-16.7627880622
 30
0.0
 40
0.1045478639811416
100
AcDbArc
 50
359.9648763638
 51
74.7013162968
  0
ARC
  5
12B
330
1F
100
AcDbEntity
  8
0
  6
Continuous
 62
     7
370
    25
100
AcDbCircle
 10
-4.4546032079
 20
-16.7634394781
 30
0.0
 40
0.1048386925273415
100
AcDbArc
 50
267.0915761703
 51
0.3209831686
  0
ARC
  5
12C
330
1F
100
AcDbEntity
  8
0
  6
Continuous
 62
     7
370
    25
100
AcDbCircle
 10
-3.9576119
 20
-16.7605892896
 30
0.0
 40
0.1045478639811484
100
AcDbArc
 50
359.9648763638
 51
74.701316295
  0
ARC
  5
12D
330
1F
100
AcDbEntity
  8
0
  6
Continuous
 62
     7
370
    25
100
AcDbCircle
 10
-3.9579011031
 20
-16.7612407055
 30
0.0
 40
0.1048386925273582
100
AcDbArc
 50
267.0915761721
 51
0.3209831686
  0
ARC
  5
12E
330
1F
100
AcDbEntity
  8
0
  6
Continuous
 62
     7
370
    25
100
AcDbCircle
 10
-2.5136863221
 20
-12.3380283043
 30
0.0
 40
0.4400610323812939
100
AcDbArc
 50
262.5719103478
 51
79.138072959
  0
ARC
  5
12F
330
1F
100
AcDbEntity
  8
0
  6
Continuous
 62
     7
370
    25
100
AcDbCircle
 10
-2.6100809282
 20
-14.0170910811
 30
0.0
 40
0.5625682612226421
100
AcDbArc
 50
262.284361126
 51
79.4256222018
  0
ARC
  5
130
330
1F
100
AcDbEntity
  8
0
  6
Continuous
 62
     7
370
    25
100
AcDbCircle
 10
-3.4609097952
 20
-16.758390517
 30
0.0
 40
0.1045478639812145
100
AcDbArc
 50
359.9648763638
 51
74.7013162885
  0
ARC
  5
131
330
1F
100
AcDbEntity
  8
0
  6
Continuous
 62
     7
370
    25
100
AcDbCircle
 10
-3.4611989982
 20
-16.7590419329
 30
0.0
 40
0.1048386925274346
100
AcDbArc
 50
267.0915761787
 51
0.3209831686
  0
ARC
  5
132
330
1F
100
AcDbEntity
  8
0
  6
Continuous
 62
     7
370
    25
100
AcDbCircle
 10
-0.5167481643
 20
-0.7480776031
 30
0.0
 40
0.1045478639810608
100
AcDbArc
 50
359.9648763638
 51
74.7013163039
  0
ARC
  5
133
330
1F
100
AcDbEntity
  8
0
  6
Continuous
 62
     7
370
    25
100
AcDbCircle
 10
-0.5170373673
 20
-0.748729019
 30
0.0
 40
0.1048386925272672
100
AcDbArc
 50
267.0915761629
 51
0.3209831687
  0
ARC
  5
134
330
1F
100
AcDbEntity
  8
0
  6
Continuous
 62
     7
370
    25
100
AcDbCircle
 10
-0.5156215706
 20
-1.2479876118
 30
0.0
 40
0.1045478639810612
100
AcDbArc
 50
359.9648763638
 51
74.7013163038
  0
ARC
  5
135
330
1F
100
AcDbEntity
  8
0
  6
Continuous
 62
     7
370
    25
100
AcDbCircle
 10
-0.5159107736
 20
-1.2486390277
 30
0.0
 40
0.1048386925272677
100
AcDbArc
 50
267.0915761631
 51
0.3209831687
  0
ARC
  5
136
330
1F
100
AcDbEntity
  8
0
  6
Continuous
 62
     7
370
    25
100
AcDbCircle
 10
-2.9642076903
 20
-16.7561917444
 30
0.0
 40
0.1045478639810307
100
AcDbArc
 50
359.9648763638
 51
74.701316307
  0
ARC
  5
137
330
1F
100
AcDbEntity
  8
0
  6
Continuous
 62
     7
370
    25
100
AcDbCircle
 10
-2.9644968934
 20
-16.7568431603
 30
0.0
 40
0.10483869252722
100
AcDbArc
 50
267.0915761599
 51
0.3209831687
  0
ARC
  5
138
330
1F
100
AcDbEntity
  8
0
  6
Continuous
 62
     7
370
    25
100
AcDbCircle
 10
-0.5144949769
 20
-1.7478976205
 30
0.0
 40
0.1045478639810582
100
AcDbArc
 50
359.9648763638
 51
74.7013163041
  0
ARC
  5
139
330
1F
100
AcDbEntity
  8
0
  6
Continuous
 62
     7
370
    25
100
AcDbCircle
 10
-0.5147841799
 20
-1.7485490364
 30
0.0
 40
0.1048386925272623
100
AcDbArc
 50
267.0915761628
 51
0.3209831687
  0
ARC
  5
13A
330
1F
100
AcDbEntity
  8
0
  6
Continuous
 62
     7
370
    25
100
AcDbCircle
 10
-2.4675055855
 20
-16.7539929719
 30
0.0
 40
0.10454786398108
100
AcDbArc
 50
359.9648763638
 51
74.7013163018
  0
ARC
  5
13B
330
1F
100
AcDbEntity
  8
0
  6
Continuous
 62
     7
370
    25
100
AcDbCircle
 10
-2.4677947885
 20
-16.7546443877
 30
0.0
 40
0.1048386925272838
100
AcDbArc
 50
267.0915761652
 51
0.3209831687
  0
ARC
  5
13C
330
1F
100
AcDbEntity
  8
0
  6
Continuous
 62
     7
370
    25
100
AcDbCircle
 10
-1.9708034806
 20
-16.7517941993
 30
0.0
 40
0.104547863981348
100
AcDbArc
 50
359.9648763638
 51
74.7013162764
  0
ARC
  5
13D
330
1F
100
AcDbEntity
  8
0
  6
Continuous
 62
     7
370
    25
100
AcDbCircle
 10
-1.9710926837
 20
-16.7524456152
 30
0.0
 40
0.1048386925275651
100
AcDbArc
 50
267.0915761911
 51
0.3209831686
  0
ARC
  5
13E
330
1F
100
AcDbEntity
  8
0
  6
Continuous
 62
     7
370
    25
100
AcDbCircle
 10
-1.4741013758
 20
-16.7495954267
 30
0.0
 40
0.1045478639809231
100
AcDbArc
 50
359.9648763637
 51
74.7013163172
  0
ARC
  5
13F
330
1F
100
AcDbEntity
  8
0
  6
Continuous
 62
     7
370
    25
100
AcDbCircle
 10
-1.4743905788
 20
-16.7502468426
 30
0.0
 40
0.1048386925271122
100
AcDbArc
 50
267.0915761493
 51
0.3209831687
  0
ARC
  5
140
330
1F
100
AcDbEntity
  8
0
  6
Continuous
 62
     7
370
    25
100
AcDbCircle
 10
-0.488583322
 20
-13.2458278206
 30
0.0
 40
0.1045478639810885
100
AcDbArc
 50
359.9648763638
 51
74.7013163011
  0
ARC
  5
141
330
1F
100
AcDbEntity
  8
0
  6
Continuous
 62
     7
370
    25
100
AcDbCircle
 10
-0.488872525
 20
-13.2464792365
 30
0.0
 40
0.1048386925272902
100
AcDbArc
 50
267.0915761658
 51
0.3209831687
  0
ARC
  5
142
330
1F
100
AcDbEntity
  8
0
  6
Continuous
 62
     7
370
    25
100
AcDbCircle
 10
-0.977399271
 20
-16.7473966541
 30
0.0
 40
0.1045478639812917
100
AcDbArc
 50
359.9648763638
 51
74.7013162828
  0
ARC
  5
143
330
1F
100
AcDbEntity
  8
0
  6
Continuous
 62
     7
370
    25
100
AcDbCircle
 10
-0.977688474
 20
-16.74804807
 30
0.0
 40
0.1048386925274974
100
AcDbArc
 50
267.0915761845
 51
0.3209831686
  0
ARC
  5
144
330
1F
100
AcDbEntity
  8
0
  6
Continuous
 62
     7
370
    25
100
AcDbCircle
 10
-0.4874567283
 20
-13.7457378293
 30
0.0
 40
0.1045478639810447
100
AcDbArc
 50
359.9648763638
 51
74.701316305
  0
ARC
  5
145
330
1F
100
AcDbEntity
  8
0
  6
Continuous
 62
     7
370
    25
100
AcDbCircle
 10
-0.4877459313
 20
-13.7463892452
 30
0.0
 40
0.1048386925272511
100
AcDbArc
 50
267.0915761619
 51
0.3209831687
  0
ARC
  5
146
330
1F
100
AcDbEntity
  8
0
  6
Continuous
 62
     7
370
    25
100
AcDbCircle
 10
-0.4863301346
 20
-14.245647838
 30
0.0
 40
0.1045478639811295
100
AcDbArc
 50
359.9648763638
 51
74.7013162975
  0
ARC
  5
147
330
1F
100
AcDbEntity
  8
0
  6
Continuous
 62
     7
370
    25
100
AcDbCircle
 10
-0.4866193376
 20
-14.2462992539
 30
0.0
 40
0.1048386925273416
100
AcDbArc
 50
267.0915761696
 51
0.3209831686
  0
ARC
  5
148
330
1F
100
AcDbEntity
  8
0
  6
Continuous
 62
     7
370
    25
100
AcDbCircle
 10
-0.4852035409
 20
-14.7455578467
 30
0.0
 40
0.104547863981292
100
AcDbArc
 50
359.9648763638
 51
74.7013162809
  0
ARC
  5
149
330
1F
100
AcDbEntity
  8
0
  6
Continuous
 62
     7
370
    25
100
AcDbCircle
 10
-0.4854927439
 20
-14.7462092626
 30
0.0
 40
0.1048386925275118
100
AcDbArc
 50
267.0915761866
 51
0.3209831686
  0
ARC
  5
14A
330
1F
100
AcDbEntity
  8
0
  6
Continuous
 62
     7
370
    25
100
AcDbCircle
 10
-0.4840769472
 20
-15.2454678554
 30
0.0
 40
0.1045478639809141
100
AcDbArc
 50
359.9648763637
 51
74.7013163179
  0
ARC
  5
14B
330
1F
100
AcDbEntity
  8
0
  6
Continuous
 62
     7
370
    25
100
AcDbCircle
 10
-0.4843661502
 20
-15.2461192713
 30
0.0
 40
0.1048386925271153
100
AcDbArc
 50
267.0915761486
 51
0.3209831687
  0
ARC
  5
14C
330
1F
100
AcDbEntity
  8
0
  6
Continuous
 62
     7
370
    25
100
AcDbCircle
 10
-0.4829503535
 20
-15.7453778641
 30
0.0
 40
0.1045478639812806
100
AcDbArc
 50
359.9648763638
 51
74.7013162818
  0
ARC
  5
14D
330
1F
100
AcDbEntity
  8
0
  6
Continuous
 62
     7
370
    25
100
AcDbCircle
 10
-0.4832395565
 20
-15.74602928
 30
0.0
 40
0.1048386925275062
100
AcDbArc
 50
267.0915761857
 51
0.3209831686
  0
ARC
  5
14E
330
1F
100
AcDbEntity
  8
0
  6
Continuous
 62
     7
370
    25
100
AcDbCircle
 10
-0.4818237598
 20
-16.2452878728
 30
0.0
 40
0.1045478639811034
100
AcDbArc
 50
359.9648763638
 51
74.7013163004
  0
ARC
  5
14F
330
1F
100
AcDbEntity
  8
0
  6
Continuous
 62
     7
370
    25
100
AcDbCircle
 10
-0.4821129628
 20
-16.2459392887
 30
0.0
 40
0.1048386925273119
100
AcDbArc
 50
267.0915761666
 51
0.3209831687
  0
ARC
  5
150
330
1F
100
AcDbEntity
  8
0
  6
Continuous
 62
     7
370
    25
100
AcDbCircle
 10
-0.4806971661
 20
-16.7451978815
 30
0.0
 40
0.1045478639810219
100
AcDbArc
 50
359.9648763638
 51
74.7013163075
  0
ARC
  5
151
330
1F
100
AcDbEntity
  8
0
  6
Continuous
 62
     7
370
    25
100
AcDbCircle
 10
-0.4809863691
 20
-16.7458492974
 30
0.0
 40
0.1048386925272158
100
AcDbArc
 50
267.0915761593
 51
0.3209831687
  0
MTEXT
  5
153
330
1F
100
AcDbEntity
  8
0
  6
Continuous
 62
     7
100
AcDbMText
 10
-12.9357502737
 20
-17.3442037964
 30
0.0
 40
0.1903
 41
0.0
 71
     1
 72
     1
  1
SOLIDWORKS Educational Product.
  7
SLDTEXTSTYLE0
 73
     1
 44
1.0
  0
MTEXT
  5
154
330
1F
100
AcDbEntity
  8
0
  6
Continuous
 62
     7
100
AcDbMText
 10
-12.9357502737
 20
-17.6296537964
 30
0.0
 40
0.1903
 41
0.0
 71
     1
 72
     1
  1
For Instructional Use Only.
  7
SLDTEXTSTYLE0
 73
     1
 44
1.0
  0
ENDSEC
  0
SECTION
  2
OBJECTS
  0
DICTIONARY
  5
C
330
0
100
AcDbDictionary
281
     1
  3
ACAD_GROUP
350
D
  3
ACAD_LAYOUT
350
1A
  3
ACAD_MLINESTYLE
350
17
  3
ACAD_PLOTSETTINGS
350
19
  3
ACAD_PLOTSTYLENAME
350
E
  3
ACAD_SCALELIST
350
47
  3
DWGPROPS
350
155
  0
DICTIONARY
  5
D
102
{ACAD_REACTORS
330
C
102
}
330
C
100
AcDbDictionary
281
     1
  0
DICTIONARY
  5
1A
102
{ACAD_REACTORS
330
C
102
}
330
C
100
AcDbDictionary
281
     1
  3
Layout1
350
1E
  3
Layout2
350
26
  3
Model
350
22
  0
DICTIONARY
  5
17
102
{ACAD_REACTORS
330
C
102
}
330
C
100
AcDbDictionary
281
     1
  3
Standard
350
18
  0
DICTIONARY
  5
19
102
{ACAD_REACTORS
330
C
102
}
330
C
100
AcDbDictionary
281
     1
  0
ACDBDICTIONARYWDFLT
  5
E
102
{ACAD_REACTORS
330
C
102
}
330
C
100
AcDbDictionary
281
     1
  3
Normal
350
F
100
AcDbDictionaryWithDefault
340
F
  0
DICTIONARY
  5
47
102
{ACAD_REACTORS
330
C
102
}
330
C
100
AcDbDictionary
281
     1
  3
A0
350
48
  3
A1
350
49
  3
A2
350
4A
  3
A3
350
4B
  3
A4
350
4C
  3
A5
350
4D
  3
A6
350
4E
  3
A7
350
4F
  3
A8
350
50
  3
A9
350
51
  3
B1
350
52
  3
B2
350
53
  3
B3
350
54
  3
B4
350
55
  3
B5
350
56
  3
B6
350
57
  3
B7
350
58
  0
XRECORD
  5
155
102
{ACAD_REACTORS
330
C
102
}
330
C
100
AcDbXrecord
280
     1
  1
DWGPROPS COOKIE
  2

  3

  4

  6

  7

  8
bkwin
  9

300
=
301
=
302
=
303
=
304
=
305
=
306
=
307
=
308
=
309
=
 40
0.0
 41
2461089.875185139
 42
2461089.875233716
  1

 90
        0
  0
LAYOUT
  5
1E
102
{ACAD_REACTORS
330
1A
102
}
330
1A
100
AcDbPlotSettings
  1

  2
none_device
  4

  6

 40
0.0
 41
0.0
 42
0.0
 43
0.0
 44
0.0
 45
0.0
 46
0.0
 47
0.0
 48
0.0
 49
0.0
140
0.0
141
0.0
142
1.0
143
1.0
 70
   688
 72
     0
 73
     0
 74
     5
  7

 75
    16
147
1.0
148
0.0
149
0.0
100
AcDbLayout
  1
Layout1
 70
     1
 71
     1
 10
0.0
 20
0.0
 11
12.0
 21
9.0
 12
0.0
 22
0.0
 32
0.0
 14
1.0000000000E+20
 24
1.0000000000E+20
 34
1.0000000000E+20
 15
-1.0000000000E+20
 25
-1.0000000000E+20
 35
-1.0000000000E+20
146
0.0
 13
0.0
 23
0.0
 33
0.0
 16
1.0
 26
0.0
 36
0.0
 17
0.0
 27
1.0
 37
0.0
 76
     0
330
1B
  0
LAYOUT
  5
26
102
{ACAD_REACTORS
330
1A
102
}
330
1A
100
AcDbPlotSettings
  1

  2
none_device
  4

  6

 40
0.0
 41
0.0
 42
0.0
 43
0.0
 44
0.0
 45
0.0
 46
0.0
 47
0.0
 48
0.0
 49
0.0
140
0.0
141
0.0
142
1.0
143
1.0
 70
   688
 72
     0
 73
     0
 74
     5
  7

 75
    16
147
1.0
148
0.0
149
0.0
100
AcDbLayout
  1
Layout2
 70
     1
 71
     2
 10
0.0
 20
0.0
 11
0.0
 21
0.0
 12
0.0
 22
0.0
 32
0.0
 14
0.0
 24
0.0
 34
0.0
 15
0.0
 25
0.0
 35
0.0
146
0.0
 13
0.0
 23
0.0
 33
0.0
 16
1.0
 26
0.0
 36
0.0
 17
0.0
 27
1.0
 37
0.0
 76
     0
330
23
  0
LAYOUT
  5
22
102
{ACAD_REACTORS
330
1A
102
}
330
1A
100
AcDbPlotSettings
  1

  2
none_device
  4
ANSI_A_(11.00_x_8.50_Inches)
  6

 40
6.35
 41
19.05
 42
6.35000508
 43
19.05000254
 44
279.4
 45
215.9
 46
212.985671128
 47
195.7277647908
 48
0.0
 49
0.0
140
0.0
141
0.0
142
0.4862047355
143
1.0
 70
  1696
 72
     0
 73
     0
 74
     0
  7

 75
     0
147
0.5913241897
148
-39.4088153714
149
0.0
100
AcDbLayout
  1
Model
 70
     1
 71
     0
 10
0.0
 20
0.0
 11
12.0
 21
9.0
 12
0.0
 22
0.0
 32
0.0
 14
-12.9357502737
 24
-17.3040633873
 34
0.0
 15
0.0388674824
 25
0.00346035
 35
0.0
146
0.0
 13
0.0
 23
0.0
 33
0.0
 16
1.0
 26
0.0
 36
0.0
 17
0.0
 27
1.0
 37
0.0
 76
     0
330
1F
331
29
  0
MLINESTYLE
  5
18
102
{ACAD_REACTORS
330
17
102
}
330
17
100
AcDbMlineStyle
  2
Standard
 70
     0
  3

 62
   256
 51
90.0
 52
90.0
 71
     2
 49
0.5
 62
   256
  6
BYLAYER
 49
-0.5
 62
   256
  6
BYLAYER
  0
ACDBPLACEHOLDER
  5
F
102
{ACAD_REACTORS
330
E
102
}
330
E
  0
SCALE
  5
48
102
{ACAD_REACTORS
330
47
102
}
330
47
100
AcDbScale
 70
     0
300
1:1
140
1.0
141
1.0
290
     1
  0
SCALE
  5
49
102
{ACAD_REACTORS
330
47
102
}
330
47
100
AcDbScale
 70
     0
300
1/128" = 1'-0"
140
0.0078125
141
12.0
290
     0
  0
SCALE
  5
4A
102
{ACAD_REACTORS
330
47
102
}
330
47
100
AcDbScale
 70
     0
300
1/64" = 1'-0"
140
0.015625
141
12.0
290
     0
  0
SCALE
  5
4B
102
{ACAD_REACTORS
330
47
102
}
330
47
100
AcDbScale
 70
     0
300
1/32" = 1'-0"
140
0.03125
141
12.0
290
     0
  0
SCALE
  5
4C
102
{ACAD_REACTORS
330
47
102
}
330
47
100
AcDbScale
 70
     0
300
1/16" = 1'-0"
140
0.0625
141
12.0
290
     0
  0
SCALE
  5
4D
102
{ACAD_REACTORS
330
47
102
}
330
47
100
AcDbScale
 70
     0
300
3/32" = 1'-0"
140
0.09375
141
12.0
290
     0
  0
SCALE
  5
4E
102
{ACAD_REACTORS
330
47
102
}
330
47
100
AcDbScale
 70
     0
300
1/8" = 1'-0"
140
0.125
141
12.0
290
     0
  0
SCALE
  5
4F
102
{ACAD_REACTORS
330
47
102
}
330
47
100
AcDbScale
 70
     0
300
3/16" = 1'-0"
140
0.1875
141
12.0
290
     0
  0
SCALE
  5
50
102
{ACAD_REACTORS
330
47
102
}
330
47
100
AcDbScale
 70
     0
300
1/4" = 1'-0"
140
0.25
141
12.0
290
     0
  0
SCALE
  5
51
102
{ACAD_REACTORS
330
47
102
}
330
47
100
AcDbScale
 70
     0
300
3/8" = 1'-0"
140
0.375
141
12.0
290
     0
  0
SCALE
  5
52
102
{ACAD_REACTORS
330
47
102
}
330
47
100
AcDbScale
 70
     0
300
1/2" = 1'-0"
140
0.5
141
12.0
290
     0
  0
SCALE
  5
53
102
{ACAD_REACTORS
330
47
102
}
330
47
100
AcDbScale
 70
     0
300
3/4" = 1'-0"
140
0.75
141
12.0
290
     0
  0
SCALE
  5
54
102
{ACAD_REACTORS
330
47
102
}
330
47
100
AcDbScale
 70
     0
300
1" = 1'-0"
140
1.0
141
12.0
290
     0
  0
SCALE
  5
55
102
{ACAD_REACTORS
330
47
102
}
330
47
100
AcDbScale
 70
     0
300
1-1/2" = 1'-0"
140
1.5
141
12.0
290
     0
  0
SCALE
  5
56
102
{ACAD_REACTORS
330
47
102
}
330
47
100
AcDbScale
 70
     0
300
3" = 1'-0"
140
3.0
141
12.0
290
     0
  0
SCALE
  5
57
102
{ACAD_REACTORS
330
47
102
}
330
47
100
AcDbScale
 70
     0
300
6" = 1'-0"
140
6.0
141
12.0
290
     0
  0
SCALE
  5
58
102
{ACAD_REACTORS
330
47
102
}
330
47
100
AcDbScale
 70
     0
300
1'-0" = 1'-0"
140
12.0
141
12.0
290
     0
  0
ENDSEC
  0
EOF
